G04 #@! TF.GenerationSoftware,KiCad,Pcbnew,(5.1.2)-2*
G04 #@! TF.CreationDate,2019-08-12T14:05:45+10:00*
G04 #@! TF.ProjectId,TSAL-HVM,5453414c-2d48-4564-9d2e-6b696361645f,rev?*
G04 #@! TF.SameCoordinates,Original*
G04 #@! TF.FileFunction,Legend,Top*
G04 #@! TF.FilePolarity,Positive*
%FSLAX46Y46*%
G04 Gerber Fmt 4.6, Leading zero omitted, Abs format (unit mm)*
G04 Created by KiCad (PCBNEW (5.1.2)-2) date 2019-08-12 14:05:45*
%MOMM*%
%LPD*%
G04 APERTURE LIST*
%ADD10C,0.300000*%
%ADD11C,1.000000*%
%ADD12C,0.250000*%
%ADD13C,0.150000*%
%ADD14C,0.500000*%
%ADD15C,0.120000*%
G04 APERTURE END LIST*
D10*
X105160571Y-64705571D02*
X106017714Y-64705571D01*
X105589142Y-66205571D02*
X105589142Y-64705571D01*
X107374857Y-66205571D02*
X106874857Y-65491285D01*
X106517714Y-66205571D02*
X106517714Y-64705571D01*
X107089142Y-64705571D01*
X107232000Y-64777000D01*
X107303428Y-64848428D01*
X107374857Y-64991285D01*
X107374857Y-65205571D01*
X107303428Y-65348428D01*
X107232000Y-65419857D01*
X107089142Y-65491285D01*
X106517714Y-65491285D01*
X107946285Y-65777000D02*
X108660571Y-65777000D01*
X107803428Y-66205571D02*
X108303428Y-64705571D01*
X108803428Y-66205571D01*
X110160571Y-66062714D02*
X110089142Y-66134142D01*
X109874857Y-66205571D01*
X109732000Y-66205571D01*
X109517714Y-66134142D01*
X109374857Y-65991285D01*
X109303428Y-65848428D01*
X109232000Y-65562714D01*
X109232000Y-65348428D01*
X109303428Y-65062714D01*
X109374857Y-64919857D01*
X109517714Y-64777000D01*
X109732000Y-64705571D01*
X109874857Y-64705571D01*
X110089142Y-64777000D01*
X110160571Y-64848428D01*
X110589142Y-64705571D02*
X111446285Y-64705571D01*
X111017714Y-66205571D02*
X111017714Y-64705571D01*
X111946285Y-66205571D02*
X111946285Y-64705571D01*
X112446285Y-64705571D02*
X112946285Y-66205571D01*
X113446285Y-64705571D01*
X113946285Y-65419857D02*
X114446285Y-65419857D01*
X114660571Y-66205571D02*
X113946285Y-66205571D01*
X113946285Y-64705571D01*
X114660571Y-64705571D01*
X106089142Y-68684142D02*
X106303428Y-68755571D01*
X106660571Y-68755571D01*
X106803428Y-68684142D01*
X106874857Y-68612714D01*
X106946285Y-68469857D01*
X106946285Y-68327000D01*
X106874857Y-68184142D01*
X106803428Y-68112714D01*
X106660571Y-68041285D01*
X106374857Y-67969857D01*
X106232000Y-67898428D01*
X106160571Y-67827000D01*
X106089142Y-67684142D01*
X106089142Y-67541285D01*
X106160571Y-67398428D01*
X106232000Y-67327000D01*
X106374857Y-67255571D01*
X106732000Y-67255571D01*
X106946285Y-67327000D01*
X107874857Y-68041285D02*
X107874857Y-68755571D01*
X107374857Y-67255571D02*
X107874857Y-68041285D01*
X108374857Y-67255571D01*
X108803428Y-68684142D02*
X109017714Y-68755571D01*
X109374857Y-68755571D01*
X109517714Y-68684142D01*
X109589142Y-68612714D01*
X109660571Y-68469857D01*
X109660571Y-68327000D01*
X109589142Y-68184142D01*
X109517714Y-68112714D01*
X109374857Y-68041285D01*
X109089142Y-67969857D01*
X108946285Y-67898428D01*
X108874857Y-67827000D01*
X108803428Y-67684142D01*
X108803428Y-67541285D01*
X108874857Y-67398428D01*
X108946285Y-67327000D01*
X109089142Y-67255571D01*
X109446285Y-67255571D01*
X109660571Y-67327000D01*
X110089142Y-67255571D02*
X110946285Y-67255571D01*
X110517714Y-68755571D02*
X110517714Y-67255571D01*
X111446285Y-67969857D02*
X111946285Y-67969857D01*
X112160571Y-68755571D02*
X111446285Y-68755571D01*
X111446285Y-67255571D01*
X112160571Y-67255571D01*
X112803428Y-68755571D02*
X112803428Y-67255571D01*
X113303428Y-68327000D01*
X113803428Y-67255571D01*
X113803428Y-68755571D01*
X111283857Y-71640000D02*
X111141000Y-71568571D01*
X110926714Y-71568571D01*
X110712428Y-71640000D01*
X110569571Y-71782857D01*
X110498142Y-71925714D01*
X110426714Y-72211428D01*
X110426714Y-72425714D01*
X110498142Y-72711428D01*
X110569571Y-72854285D01*
X110712428Y-72997142D01*
X110926714Y-73068571D01*
X111069571Y-73068571D01*
X111283857Y-72997142D01*
X111355285Y-72925714D01*
X111355285Y-72425714D01*
X111069571Y-72425714D01*
X112712428Y-73068571D02*
X111998142Y-73068571D01*
X111998142Y-71568571D01*
X112998142Y-71568571D02*
X113498142Y-73068571D01*
X113998142Y-71568571D01*
D11*
X101854000Y-96266000D02*
X101854000Y-98298000D01*
X106934000Y-70358000D02*
X125222000Y-70358000D01*
X106934000Y-72390000D02*
X106934000Y-70358000D01*
D12*
X123134380Y-57133809D02*
X122134380Y-57133809D01*
X122610571Y-57133809D02*
X122610571Y-56562380D01*
X123134380Y-56562380D02*
X122134380Y-56562380D01*
X122134380Y-56229047D02*
X123134380Y-55895714D01*
X122134380Y-55562380D01*
X123134380Y-55229047D02*
X122134380Y-55229047D01*
X122848666Y-54895714D01*
X122134380Y-54562380D01*
X123134380Y-54562380D01*
X122467714Y-53419523D02*
X123134380Y-53181428D01*
X122467714Y-52943333D01*
X123134380Y-52038571D02*
X123134380Y-52610000D01*
X123134380Y-52324285D02*
X122134380Y-52324285D01*
X122277238Y-52419523D01*
X122372476Y-52514761D01*
X122420095Y-52610000D01*
D10*
X52325047Y-87646761D02*
X52325047Y-85646761D01*
X52801238Y-85646761D01*
X53086952Y-85742000D01*
X53277428Y-85932476D01*
X53372666Y-86122952D01*
X53467904Y-86503904D01*
X53467904Y-86789619D01*
X53372666Y-87170571D01*
X53277428Y-87361047D01*
X53086952Y-87551523D01*
X52801238Y-87646761D01*
X52325047Y-87646761D01*
X54229809Y-87075333D02*
X55182190Y-87075333D01*
X54039333Y-87646761D02*
X54706000Y-85646761D01*
X55372666Y-87646761D01*
X56039333Y-87646761D02*
X56039333Y-85646761D01*
X57182190Y-87646761D01*
X57182190Y-85646761D01*
X59182190Y-85742000D02*
X58991714Y-85646761D01*
X58706000Y-85646761D01*
X58420285Y-85742000D01*
X58229809Y-85932476D01*
X58134571Y-86122952D01*
X58039333Y-86503904D01*
X58039333Y-86789619D01*
X58134571Y-87170571D01*
X58229809Y-87361047D01*
X58420285Y-87551523D01*
X58706000Y-87646761D01*
X58896476Y-87646761D01*
X59182190Y-87551523D01*
X59277428Y-87456285D01*
X59277428Y-86789619D01*
X58896476Y-86789619D01*
X60134571Y-86599142D02*
X60801238Y-86599142D01*
X61086952Y-87646761D02*
X60134571Y-87646761D01*
X60134571Y-85646761D01*
X61086952Y-85646761D01*
X63086952Y-87646761D02*
X62420285Y-86694380D01*
X61944095Y-87646761D02*
X61944095Y-85646761D01*
X62706000Y-85646761D01*
X62896476Y-85742000D01*
X62991714Y-85837238D01*
X63086952Y-86027714D01*
X63086952Y-86313428D01*
X62991714Y-86503904D01*
X62896476Y-86599142D01*
X62706000Y-86694380D01*
X61944095Y-86694380D01*
X64325047Y-85646761D02*
X64706000Y-85646761D01*
X64896476Y-85742000D01*
X65086952Y-85932476D01*
X65182190Y-86313428D01*
X65182190Y-86980095D01*
X65086952Y-87361047D01*
X64896476Y-87551523D01*
X64706000Y-87646761D01*
X64325047Y-87646761D01*
X64134571Y-87551523D01*
X63944095Y-87361047D01*
X63848857Y-86980095D01*
X63848857Y-86313428D01*
X63944095Y-85932476D01*
X64134571Y-85742000D01*
X64325047Y-85646761D01*
X66039333Y-85646761D02*
X66039333Y-87265809D01*
X66134571Y-87456285D01*
X66229809Y-87551523D01*
X66420285Y-87646761D01*
X66801238Y-87646761D01*
X66991714Y-87551523D01*
X67086952Y-87456285D01*
X67182190Y-87265809D01*
X67182190Y-85646761D01*
X68039333Y-87551523D02*
X68325047Y-87646761D01*
X68801238Y-87646761D01*
X68991714Y-87551523D01*
X69086952Y-87456285D01*
X69182190Y-87265809D01*
X69182190Y-87075333D01*
X69086952Y-86884857D01*
X68991714Y-86789619D01*
X68801238Y-86694380D01*
X68420285Y-86599142D01*
X68229809Y-86503904D01*
X68134571Y-86408666D01*
X68039333Y-86218190D01*
X68039333Y-86027714D01*
X68134571Y-85837238D01*
X68229809Y-85742000D01*
X68420285Y-85646761D01*
X68896476Y-85646761D01*
X69182190Y-85742000D01*
X54658380Y-88946761D02*
X55325047Y-90946761D01*
X55991714Y-88946761D01*
X57039333Y-88946761D02*
X57420285Y-88946761D01*
X57610761Y-89042000D01*
X57801238Y-89232476D01*
X57896476Y-89613428D01*
X57896476Y-90280095D01*
X57801238Y-90661047D01*
X57610761Y-90851523D01*
X57420285Y-90946761D01*
X57039333Y-90946761D01*
X56848857Y-90851523D01*
X56658380Y-90661047D01*
X56563142Y-90280095D01*
X56563142Y-89613428D01*
X56658380Y-89232476D01*
X56848857Y-89042000D01*
X57039333Y-88946761D01*
X59706000Y-90946761D02*
X58753619Y-90946761D01*
X58753619Y-88946761D01*
X60086952Y-88946761D02*
X61229809Y-88946761D01*
X60658380Y-90946761D02*
X60658380Y-88946761D01*
X61801238Y-90375333D02*
X62753619Y-90375333D01*
X61610761Y-90946761D02*
X62277428Y-88946761D01*
X62944095Y-90946761D01*
X64658380Y-89042000D02*
X64467904Y-88946761D01*
X64182190Y-88946761D01*
X63896476Y-89042000D01*
X63706000Y-89232476D01*
X63610761Y-89422952D01*
X63515523Y-89803904D01*
X63515523Y-90089619D01*
X63610761Y-90470571D01*
X63706000Y-90661047D01*
X63896476Y-90851523D01*
X64182190Y-90946761D01*
X64372666Y-90946761D01*
X64658380Y-90851523D01*
X64753619Y-90756285D01*
X64753619Y-90089619D01*
X64372666Y-90089619D01*
X65610761Y-89899142D02*
X66277428Y-89899142D01*
X66563142Y-90946761D02*
X65610761Y-90946761D01*
X65610761Y-88946761D01*
X66563142Y-88946761D01*
D13*
X117387714Y-67348285D02*
X118197238Y-67348285D01*
X118292476Y-67395904D01*
X118340095Y-67443523D01*
X118387714Y-67538761D01*
X118387714Y-67681619D01*
X118340095Y-67776857D01*
X118006761Y-67348285D02*
X118054380Y-67443523D01*
X118054380Y-67634000D01*
X118006761Y-67729238D01*
X117959142Y-67776857D01*
X117863904Y-67824476D01*
X117578190Y-67824476D01*
X117482952Y-67776857D01*
X117435333Y-67729238D01*
X117387714Y-67634000D01*
X117387714Y-67443523D01*
X117435333Y-67348285D01*
X118054380Y-66872095D02*
X117387714Y-66872095D01*
X117054380Y-66872095D02*
X117102000Y-66919714D01*
X117149619Y-66872095D01*
X117102000Y-66824476D01*
X117054380Y-66872095D01*
X117149619Y-66872095D01*
X117387714Y-66538761D02*
X117387714Y-66157809D01*
X117054380Y-66395904D02*
X117911523Y-66395904D01*
X118006761Y-66348285D01*
X118054380Y-66253047D01*
X118054380Y-66157809D01*
X118054380Y-65824476D02*
X117054380Y-65824476D01*
X118054380Y-65395904D02*
X117530571Y-65395904D01*
X117435333Y-65443523D01*
X117387714Y-65538761D01*
X117387714Y-65681619D01*
X117435333Y-65776857D01*
X117482952Y-65824476D01*
X117387714Y-64491142D02*
X118054380Y-64491142D01*
X117387714Y-64919714D02*
X117911523Y-64919714D01*
X118006761Y-64872095D01*
X118054380Y-64776857D01*
X118054380Y-64634000D01*
X118006761Y-64538761D01*
X117959142Y-64491142D01*
X118054380Y-64014952D02*
X117054380Y-64014952D01*
X117435333Y-64014952D02*
X117387714Y-63919714D01*
X117387714Y-63729238D01*
X117435333Y-63634000D01*
X117482952Y-63586380D01*
X117578190Y-63538761D01*
X117863904Y-63538761D01*
X117959142Y-63586380D01*
X118006761Y-63634000D01*
X118054380Y-63729238D01*
X118054380Y-63919714D01*
X118006761Y-64014952D01*
X117959142Y-63110190D02*
X118006761Y-63062571D01*
X118054380Y-63110190D01*
X118006761Y-63157809D01*
X117959142Y-63110190D01*
X118054380Y-63110190D01*
X118006761Y-62205428D02*
X118054380Y-62300666D01*
X118054380Y-62491142D01*
X118006761Y-62586380D01*
X117959142Y-62634000D01*
X117863904Y-62681619D01*
X117578190Y-62681619D01*
X117482952Y-62634000D01*
X117435333Y-62586380D01*
X117387714Y-62491142D01*
X117387714Y-62300666D01*
X117435333Y-62205428D01*
X118054380Y-61634000D02*
X118006761Y-61729238D01*
X117959142Y-61776857D01*
X117863904Y-61824476D01*
X117578190Y-61824476D01*
X117482952Y-61776857D01*
X117435333Y-61729238D01*
X117387714Y-61634000D01*
X117387714Y-61491142D01*
X117435333Y-61395904D01*
X117482952Y-61348285D01*
X117578190Y-61300666D01*
X117863904Y-61300666D01*
X117959142Y-61348285D01*
X118006761Y-61395904D01*
X118054380Y-61491142D01*
X118054380Y-61634000D01*
X118054380Y-60872095D02*
X117387714Y-60872095D01*
X117482952Y-60872095D02*
X117435333Y-60824476D01*
X117387714Y-60729238D01*
X117387714Y-60586380D01*
X117435333Y-60491142D01*
X117530571Y-60443523D01*
X118054380Y-60443523D01*
X117530571Y-60443523D02*
X117435333Y-60395904D01*
X117387714Y-60300666D01*
X117387714Y-60157809D01*
X117435333Y-60062571D01*
X117530571Y-60014952D01*
X118054380Y-60014952D01*
X117006761Y-58824476D02*
X118292476Y-59681619D01*
X118054380Y-58491142D02*
X117387714Y-58491142D01*
X117482952Y-58491142D02*
X117435333Y-58443523D01*
X117387714Y-58348285D01*
X117387714Y-58205428D01*
X117435333Y-58110190D01*
X117530571Y-58062571D01*
X118054380Y-58062571D01*
X117530571Y-58062571D02*
X117435333Y-58014952D01*
X117387714Y-57919714D01*
X117387714Y-57776857D01*
X117435333Y-57681619D01*
X117530571Y-57634000D01*
X118054380Y-57634000D01*
X118054380Y-57157809D02*
X117387714Y-57157809D01*
X117054380Y-57157809D02*
X117102000Y-57205428D01*
X117149619Y-57157809D01*
X117102000Y-57110190D01*
X117054380Y-57157809D01*
X117149619Y-57157809D01*
X118006761Y-56253047D02*
X118054380Y-56348285D01*
X118054380Y-56538761D01*
X118006761Y-56634000D01*
X117959142Y-56681619D01*
X117863904Y-56729238D01*
X117578190Y-56729238D01*
X117482952Y-56681619D01*
X117435333Y-56634000D01*
X117387714Y-56538761D01*
X117387714Y-56348285D01*
X117435333Y-56253047D01*
X118054380Y-55824476D02*
X117054380Y-55824476D01*
X118054380Y-55395904D02*
X117530571Y-55395904D01*
X117435333Y-55443523D01*
X117387714Y-55538761D01*
X117387714Y-55681619D01*
X117435333Y-55776857D01*
X117482952Y-55824476D01*
X118054380Y-54491142D02*
X117530571Y-54491142D01*
X117435333Y-54538761D01*
X117387714Y-54634000D01*
X117387714Y-54824476D01*
X117435333Y-54919714D01*
X118006761Y-54491142D02*
X118054380Y-54586380D01*
X118054380Y-54824476D01*
X118006761Y-54919714D01*
X117911523Y-54967333D01*
X117816285Y-54967333D01*
X117721047Y-54919714D01*
X117673428Y-54824476D01*
X117673428Y-54586380D01*
X117625809Y-54491142D01*
X118006761Y-53634000D02*
X118054380Y-53729238D01*
X118054380Y-53919714D01*
X118006761Y-54014952D01*
X117911523Y-54062571D01*
X117530571Y-54062571D01*
X117435333Y-54014952D01*
X117387714Y-53919714D01*
X117387714Y-53729238D01*
X117435333Y-53634000D01*
X117530571Y-53586380D01*
X117625809Y-53586380D01*
X117721047Y-54062571D01*
X118054380Y-53014952D02*
X118006761Y-53110190D01*
X117911523Y-53157809D01*
X117054380Y-53157809D01*
X118054380Y-52634000D02*
X117387714Y-52634000D01*
X117578190Y-52634000D02*
X117482952Y-52586380D01*
X117435333Y-52538761D01*
X117387714Y-52443523D01*
X117387714Y-52348285D01*
X117387714Y-51586380D02*
X118054380Y-51586380D01*
X117387714Y-52014952D02*
X117911523Y-52014952D01*
X118006761Y-51967333D01*
X118054380Y-51872095D01*
X118054380Y-51729238D01*
X118006761Y-51634000D01*
X117959142Y-51586380D01*
X117387714Y-51110190D02*
X118387714Y-51110190D01*
X117435333Y-51110190D02*
X117387714Y-51014952D01*
X117387714Y-50824476D01*
X117435333Y-50729238D01*
X117482952Y-50681619D01*
X117578190Y-50634000D01*
X117863904Y-50634000D01*
X117959142Y-50681619D01*
X118006761Y-50729238D01*
X118054380Y-50824476D01*
X118054380Y-51014952D01*
X118006761Y-51110190D01*
X117387714Y-50205428D02*
X118387714Y-50205428D01*
X117435333Y-50205428D02*
X117387714Y-50110190D01*
X117387714Y-49919714D01*
X117435333Y-49824476D01*
X117482952Y-49776857D01*
X117578190Y-49729238D01*
X117863904Y-49729238D01*
X117959142Y-49776857D01*
X118006761Y-49824476D01*
X118054380Y-49919714D01*
X118054380Y-50110190D01*
X118006761Y-50205428D01*
X118006761Y-48919714D02*
X118054380Y-49014952D01*
X118054380Y-49205428D01*
X118006761Y-49300666D01*
X117911523Y-49348285D01*
X117530571Y-49348285D01*
X117435333Y-49300666D01*
X117387714Y-49205428D01*
X117387714Y-49014952D01*
X117435333Y-48919714D01*
X117530571Y-48872095D01*
X117625809Y-48872095D01*
X117721047Y-49348285D01*
X117006761Y-47729238D02*
X118292476Y-48586380D01*
X117054380Y-47538761D02*
X117054380Y-46967333D01*
X118054380Y-47253047D02*
X117054380Y-47253047D01*
X118006761Y-46681619D02*
X118054380Y-46538761D01*
X118054380Y-46300666D01*
X118006761Y-46205428D01*
X117959142Y-46157809D01*
X117863904Y-46110190D01*
X117768666Y-46110190D01*
X117673428Y-46157809D01*
X117625809Y-46205428D01*
X117578190Y-46300666D01*
X117530571Y-46491142D01*
X117482952Y-46586380D01*
X117435333Y-46634000D01*
X117340095Y-46681619D01*
X117244857Y-46681619D01*
X117149619Y-46634000D01*
X117102000Y-46586380D01*
X117054380Y-46491142D01*
X117054380Y-46253047D01*
X117102000Y-46110190D01*
X117768666Y-45729238D02*
X117768666Y-45253047D01*
X118054380Y-45824476D02*
X117054380Y-45491142D01*
X118054380Y-45157809D01*
X118054380Y-44348285D02*
X118054380Y-44824476D01*
X117054380Y-44824476D01*
D14*
X120023142Y-68031714D02*
X120023142Y-66317428D01*
X123023142Y-67174571D02*
X120023142Y-67174571D01*
X122880285Y-65460285D02*
X123023142Y-65031714D01*
X123023142Y-64317428D01*
X122880285Y-64031714D01*
X122737428Y-63888857D01*
X122451714Y-63746000D01*
X122166000Y-63746000D01*
X121880285Y-63888857D01*
X121737428Y-64031714D01*
X121594571Y-64317428D01*
X121451714Y-64888857D01*
X121308857Y-65174571D01*
X121166000Y-65317428D01*
X120880285Y-65460285D01*
X120594571Y-65460285D01*
X120308857Y-65317428D01*
X120166000Y-65174571D01*
X120023142Y-64888857D01*
X120023142Y-64174571D01*
X120166000Y-63746000D01*
X122166000Y-62603142D02*
X122166000Y-61174571D01*
X123023142Y-62888857D02*
X120023142Y-61888857D01*
X123023142Y-60888857D01*
X123023142Y-58460285D02*
X123023142Y-59888857D01*
X120023142Y-59888857D01*
D13*
X59341190Y-91527380D02*
X59436428Y-91527380D01*
X59531666Y-91575000D01*
X59579285Y-91622619D01*
X59626904Y-91717857D01*
X59674523Y-91908333D01*
X59674523Y-92146428D01*
X59626904Y-92336904D01*
X59579285Y-92432142D01*
X59531666Y-92479761D01*
X59436428Y-92527380D01*
X59341190Y-92527380D01*
X59245952Y-92479761D01*
X59198333Y-92432142D01*
X59150714Y-92336904D01*
X59103095Y-92146428D01*
X59103095Y-91908333D01*
X59150714Y-91717857D01*
X59198333Y-91622619D01*
X59245952Y-91575000D01*
X59341190Y-91527380D01*
X60103095Y-92146428D02*
X60865000Y-92146428D01*
X61293571Y-91622619D02*
X61341190Y-91575000D01*
X61436428Y-91527380D01*
X61674523Y-91527380D01*
X61769761Y-91575000D01*
X61817380Y-91622619D01*
X61865000Y-91717857D01*
X61865000Y-91813095D01*
X61817380Y-91955952D01*
X61245952Y-92527380D01*
X61865000Y-92527380D01*
X62484047Y-91527380D02*
X62579285Y-91527380D01*
X62674523Y-91575000D01*
X62722142Y-91622619D01*
X62769761Y-91717857D01*
X62817380Y-91908333D01*
X62817380Y-92146428D01*
X62769761Y-92336904D01*
X62722142Y-92432142D01*
X62674523Y-92479761D01*
X62579285Y-92527380D01*
X62484047Y-92527380D01*
X62388809Y-92479761D01*
X62341190Y-92432142D01*
X62293571Y-92336904D01*
X62245952Y-92146428D01*
X62245952Y-91908333D01*
X62293571Y-91717857D01*
X62341190Y-91622619D01*
X62388809Y-91575000D01*
X62484047Y-91527380D01*
X63436428Y-91527380D02*
X63531666Y-91527380D01*
X63626904Y-91575000D01*
X63674523Y-91622619D01*
X63722142Y-91717857D01*
X63769761Y-91908333D01*
X63769761Y-92146428D01*
X63722142Y-92336904D01*
X63674523Y-92432142D01*
X63626904Y-92479761D01*
X63531666Y-92527380D01*
X63436428Y-92527380D01*
X63341190Y-92479761D01*
X63293571Y-92432142D01*
X63245952Y-92336904D01*
X63198333Y-92146428D01*
X63198333Y-91908333D01*
X63245952Y-91717857D01*
X63293571Y-91622619D01*
X63341190Y-91575000D01*
X63436428Y-91527380D01*
X64055476Y-91527380D02*
X64388809Y-92527380D01*
X64722142Y-91527380D01*
X65055476Y-92527380D02*
X65055476Y-91527380D01*
X65293571Y-91527380D01*
X65436428Y-91575000D01*
X65531666Y-91670238D01*
X65579285Y-91765476D01*
X65626904Y-91955952D01*
X65626904Y-92098809D01*
X65579285Y-92289285D01*
X65531666Y-92384523D01*
X65436428Y-92479761D01*
X65293571Y-92527380D01*
X65055476Y-92527380D01*
X66626904Y-92432142D02*
X66579285Y-92479761D01*
X66436428Y-92527380D01*
X66341190Y-92527380D01*
X66198333Y-92479761D01*
X66103095Y-92384523D01*
X66055476Y-92289285D01*
X66007857Y-92098809D01*
X66007857Y-91955952D01*
X66055476Y-91765476D01*
X66103095Y-91670238D01*
X66198333Y-91575000D01*
X66341190Y-91527380D01*
X66436428Y-91527380D01*
X66579285Y-91575000D01*
X66626904Y-91622619D01*
D10*
X62357333Y-64912761D02*
X62357333Y-62912761D01*
X62357333Y-63865142D02*
X63500190Y-63865142D01*
X63500190Y-64912761D02*
X63500190Y-62912761D01*
X64166857Y-62912761D02*
X64833523Y-64912761D01*
X65500190Y-62912761D01*
X66166857Y-64150857D02*
X67690666Y-64150857D01*
X66928761Y-64912761D02*
X66928761Y-63388952D01*
X62357333Y-78374761D02*
X62357333Y-76374761D01*
X62357333Y-77327142D02*
X63500190Y-77327142D01*
X63500190Y-78374761D02*
X63500190Y-76374761D01*
X64166857Y-76374761D02*
X64833523Y-78374761D01*
X65500190Y-76374761D01*
X66166857Y-77612857D02*
X67690666Y-77612857D01*
D15*
X48962000Y-80393000D02*
X51812000Y-80393000D01*
X48962000Y-77543000D02*
X48962000Y-80393000D01*
X60422000Y-75533000D02*
X60422000Y-77343000D01*
X59022000Y-75533000D02*
X60422000Y-75533000D01*
X59022000Y-74533000D02*
X59022000Y-75533000D01*
X49202000Y-74533000D02*
X59022000Y-74533000D01*
X49202000Y-77343000D02*
X49202000Y-74533000D01*
X60422000Y-79153000D02*
X60422000Y-77343000D01*
X59022000Y-79153000D02*
X60422000Y-79153000D01*
X59022000Y-80153000D02*
X59022000Y-79153000D01*
X49202000Y-80153000D02*
X59022000Y-80153000D01*
X49202000Y-77343000D02*
X49202000Y-80153000D01*
X58362000Y-72643000D02*
X58362000Y-74533000D01*
X54842000Y-72643000D02*
X54842000Y-74533000D01*
X58362000Y-82043000D02*
X58362000Y-80153000D01*
X54842000Y-82043000D02*
X54842000Y-80153000D01*
X58362000Y-72643000D02*
G75*
G03X54842000Y-72643000I-1760000J0D01*
G01*
X54842000Y-82043000D02*
G75*
G03X58362000Y-82043000I1760000J0D01*
G01*
X48962000Y-66169000D02*
X51812000Y-66169000D01*
X48962000Y-63319000D02*
X48962000Y-66169000D01*
X60422000Y-61309000D02*
X60422000Y-63119000D01*
X59022000Y-61309000D02*
X60422000Y-61309000D01*
X59022000Y-60309000D02*
X59022000Y-61309000D01*
X49202000Y-60309000D02*
X59022000Y-60309000D01*
X49202000Y-63119000D02*
X49202000Y-60309000D01*
X60422000Y-64929000D02*
X60422000Y-63119000D01*
X59022000Y-64929000D02*
X60422000Y-64929000D01*
X59022000Y-65929000D02*
X59022000Y-64929000D01*
X49202000Y-65929000D02*
X59022000Y-65929000D01*
X49202000Y-63119000D02*
X49202000Y-65929000D01*
X58362000Y-58419000D02*
X58362000Y-60309000D01*
X54842000Y-58419000D02*
X54842000Y-60309000D01*
X58362000Y-67819000D02*
X58362000Y-65929000D01*
X54842000Y-67819000D02*
X54842000Y-65929000D01*
X58362000Y-58419000D02*
G75*
G03X54842000Y-58419000I-1760000J0D01*
G01*
X54842000Y-67819000D02*
G75*
G03X58362000Y-67819000I1760000J0D01*
G01*
X102009000Y-48008000D02*
X104859000Y-48008000D01*
X102009000Y-45158000D02*
X102009000Y-48008000D01*
X113469000Y-43148000D02*
X113469000Y-44958000D01*
X112069000Y-43148000D02*
X113469000Y-43148000D01*
X112069000Y-42148000D02*
X112069000Y-43148000D01*
X102249000Y-42148000D02*
X112069000Y-42148000D01*
X102249000Y-44958000D02*
X102249000Y-42148000D01*
X113469000Y-46768000D02*
X113469000Y-44958000D01*
X112069000Y-46768000D02*
X113469000Y-46768000D01*
X112069000Y-47768000D02*
X112069000Y-46768000D01*
X102249000Y-47768000D02*
X112069000Y-47768000D01*
X102249000Y-44958000D02*
X102249000Y-47768000D01*
X117122000Y-89800000D02*
X119972000Y-89800000D01*
X117122000Y-86950000D02*
X117122000Y-89800000D01*
X128582000Y-82840000D02*
X128582000Y-84650000D01*
X127182000Y-82840000D02*
X128582000Y-82840000D01*
X127182000Y-79740000D02*
X127182000Y-82840000D01*
X117362000Y-79740000D02*
X127182000Y-79740000D01*
X117362000Y-84650000D02*
X117362000Y-79740000D01*
X128582000Y-86460000D02*
X128582000Y-84650000D01*
X127182000Y-86460000D02*
X128582000Y-86460000D01*
X127182000Y-89560000D02*
X127182000Y-86460000D01*
X117362000Y-89560000D02*
X127182000Y-89560000D01*
X117362000Y-84650000D02*
X117362000Y-89560000D01*
X100362936Y-51075000D02*
X101567064Y-51075000D01*
X100362936Y-49255000D02*
X101567064Y-49255000D01*
X106555000Y-57475000D02*
X108015000Y-57475000D01*
X106555000Y-60635000D02*
X108715000Y-60635000D01*
X106555000Y-60635000D02*
X106555000Y-59705000D01*
X106555000Y-57475000D02*
X106555000Y-58405000D01*
X105455000Y-52960000D02*
X112355000Y-52960000D01*
X105455000Y-56260000D02*
X112355000Y-56260000D01*
X105455000Y-52960000D02*
X105455000Y-56260000D01*
X91701252Y-52630000D02*
X91178748Y-52630000D01*
X91701252Y-54050000D02*
X91178748Y-54050000D01*
X83110000Y-57941248D02*
X83110000Y-58463752D01*
X84530000Y-57941248D02*
X84530000Y-58463752D01*
X120085000Y-76276248D02*
X120085000Y-76798752D01*
X121505000Y-76276248D02*
X121505000Y-76798752D01*
X80320000Y-77980000D02*
X80320000Y-79440000D01*
X77160000Y-77980000D02*
X77160000Y-80140000D01*
X77160000Y-77980000D02*
X78090000Y-77980000D01*
X80320000Y-77980000D02*
X79390000Y-77980000D01*
X89790000Y-91990000D02*
X89790000Y-85090000D01*
X93090000Y-91990000D02*
X93090000Y-85090000D01*
X89790000Y-91990000D02*
X93090000Y-91990000D01*
X116078000Y-74168000D02*
X116078000Y-83312000D01*
X94234000Y-74168000D02*
X116078000Y-74168000D01*
X94234000Y-83312000D02*
X94234000Y-74168000D01*
X116078000Y-83312000D02*
X94234000Y-83312000D01*
X85574000Y-53086000D02*
G75*
G03X85574000Y-53086000I-1500000J0D01*
G01*
X53028436Y-51922000D02*
X54232564Y-51922000D01*
X53028436Y-53742000D02*
X54232564Y-53742000D01*
X74145000Y-60745000D02*
X71905000Y-60745000D01*
X71905000Y-60745000D02*
X71905000Y-64985000D01*
X71905000Y-64985000D02*
X74145000Y-64985000D01*
X74145000Y-64985000D02*
X74145000Y-60745000D01*
X73025000Y-60095000D02*
X73025000Y-60745000D01*
X73025000Y-65635000D02*
X73025000Y-64985000D01*
X74145000Y-61465000D02*
X71905000Y-61465000D01*
X74145000Y-61585000D02*
X71905000Y-61585000D01*
X74145000Y-61345000D02*
X71905000Y-61345000D01*
X79700000Y-91415000D02*
X79700000Y-88555000D01*
X79700000Y-88555000D02*
X77780000Y-88555000D01*
X77780000Y-88555000D02*
X77780000Y-91415000D01*
X100274000Y-66015000D02*
X100274000Y-63155000D01*
X100274000Y-63155000D02*
X98354000Y-63155000D01*
X98354000Y-63155000D02*
X98354000Y-66015000D01*
X72700000Y-88555000D02*
X72700000Y-91415000D01*
X74620000Y-88555000D02*
X72700000Y-88555000D01*
X74620000Y-91415000D02*
X74620000Y-88555000D01*
X123060000Y-77139564D02*
X123060000Y-75935436D01*
X124880000Y-77139564D02*
X124880000Y-75935436D01*
X115590000Y-95280000D02*
X115150000Y-95280000D01*
X100230000Y-87630000D02*
X101500000Y-87630000D01*
X98960000Y-88900000D02*
X101500000Y-90170000D01*
X98960000Y-86360000D02*
X100230000Y-86360000D01*
X100230000Y-93960000D02*
X98960000Y-93960000D01*
X98960000Y-92710000D02*
X98960000Y-87630000D01*
X98960000Y-87630000D02*
X100230000Y-87630000D01*
X100230000Y-92710000D02*
X100230000Y-93960000D01*
X101500000Y-87630000D02*
X101500000Y-92710000D01*
X100230000Y-86360000D02*
X100230000Y-87630000D01*
X101500000Y-92710000D02*
X98960000Y-92710000D01*
X115590000Y-95280000D02*
X115590000Y-94910000D01*
X113680000Y-95280000D02*
X107450000Y-95280000D01*
X105980000Y-95280000D02*
X96849995Y-95280000D01*
X96190000Y-95280000D02*
X95350000Y-95280000D01*
X95350000Y-94650000D02*
X95350000Y-95280000D01*
X95350000Y-90160000D02*
X95350000Y-93260000D01*
X115590000Y-85040000D02*
X97629998Y-85040000D01*
X115590000Y-85040000D02*
X115590000Y-93000000D01*
X85400000Y-77980000D02*
X85400000Y-79440000D01*
X82240000Y-77980000D02*
X82240000Y-80140000D01*
X82240000Y-77980000D02*
X83170000Y-77980000D01*
X85400000Y-77980000D02*
X84470000Y-77980000D01*
X83000436Y-45614000D02*
X84204564Y-45614000D01*
X83000436Y-43794000D02*
X84204564Y-43794000D01*
X84204564Y-48154000D02*
X83000436Y-48154000D01*
X84204564Y-46334000D02*
X83000436Y-46334000D01*
X83000436Y-50694000D02*
X84204564Y-50694000D01*
X83000436Y-48874000D02*
X84204564Y-48874000D01*
X59124436Y-53742000D02*
X60328564Y-53742000D01*
X59124436Y-51922000D02*
X60328564Y-51922000D01*
X65474436Y-53742000D02*
X66678564Y-53742000D01*
X65474436Y-51922000D02*
X66678564Y-51922000D01*
X71861000Y-51565564D02*
X71861000Y-50361436D01*
X73681000Y-51565564D02*
X73681000Y-50361436D01*
X73681000Y-46485564D02*
X73681000Y-45281436D01*
X71861000Y-46485564D02*
X71861000Y-45281436D01*
X80648564Y-55986000D02*
X79444436Y-55986000D01*
X80648564Y-57806000D02*
X79444436Y-57806000D01*
X80648564Y-60600000D02*
X79444436Y-60600000D01*
X80648564Y-58780000D02*
X79444436Y-58780000D01*
X98954000Y-56330436D02*
X98954000Y-57534564D01*
X97134000Y-56330436D02*
X97134000Y-57534564D01*
X79650000Y-84639564D02*
X79650000Y-83435436D01*
X77830000Y-84639564D02*
X77830000Y-83435436D01*
X92259564Y-46334000D02*
X91055436Y-46334000D01*
X92259564Y-48154000D02*
X91055436Y-48154000D01*
X95356000Y-64204436D02*
X95356000Y-65408564D01*
X97176000Y-64204436D02*
X97176000Y-65408564D01*
X83000436Y-81640000D02*
X84204564Y-81640000D01*
X83000436Y-83460000D02*
X84204564Y-83460000D01*
X72750000Y-84639564D02*
X72750000Y-83435436D01*
X74570000Y-84639564D02*
X74570000Y-83435436D01*
X82780000Y-64008000D02*
G75*
G03X82780000Y-64008000I-1500000J0D01*
G01*
X103100000Y-71755000D02*
G75*
G03X103100000Y-71755000I-1500000J0D01*
G01*
X79605000Y-44450000D02*
G75*
G03X79605000Y-44450000I-1500000J0D01*
G01*
X98020000Y-71755000D02*
G75*
G03X98020000Y-71755000I-1500000J0D01*
G01*
X88368000Y-62992000D02*
G75*
G03X88368000Y-62992000I-1500000J0D01*
G01*
X87225000Y-87630000D02*
G75*
G03X87225000Y-87630000I-1500000J0D01*
G01*
X91375000Y-60345000D02*
X93325000Y-60345000D01*
X91375000Y-60345000D02*
X89425000Y-60345000D01*
X91375000Y-55225000D02*
X93325000Y-55225000D01*
X91375000Y-55225000D02*
X87925000Y-55225000D01*
D13*
X47564380Y-77676333D02*
X48278666Y-77676333D01*
X48421523Y-77723952D01*
X48516761Y-77819190D01*
X48564380Y-77962047D01*
X48564380Y-78057285D01*
X47659619Y-77247761D02*
X47612000Y-77200142D01*
X47564380Y-77104904D01*
X47564380Y-76866809D01*
X47612000Y-76771571D01*
X47659619Y-76723952D01*
X47754857Y-76676333D01*
X47850095Y-76676333D01*
X47992952Y-76723952D01*
X48564380Y-77295380D01*
X48564380Y-76676333D01*
X47564380Y-63452333D02*
X48278666Y-63452333D01*
X48421523Y-63499952D01*
X48516761Y-63595190D01*
X48564380Y-63738047D01*
X48564380Y-63833285D01*
X48564380Y-62452333D02*
X48564380Y-63023761D01*
X48564380Y-62738047D02*
X47564380Y-62738047D01*
X47707238Y-62833285D01*
X47802476Y-62928523D01*
X47850095Y-63023761D01*
X100611380Y-45291333D02*
X101325666Y-45291333D01*
X101468523Y-45338952D01*
X101563761Y-45434190D01*
X101611380Y-45577047D01*
X101611380Y-45672285D01*
X100944714Y-44386571D02*
X101611380Y-44386571D01*
X100563761Y-44624666D02*
X101278047Y-44862761D01*
X101278047Y-44243714D01*
X117308380Y-91265333D02*
X118022666Y-91265333D01*
X118165523Y-91312952D01*
X118260761Y-91408190D01*
X118308380Y-91551047D01*
X118308380Y-91646285D01*
X117308380Y-90884380D02*
X117308380Y-90265333D01*
X117689333Y-90598666D01*
X117689333Y-90455809D01*
X117736952Y-90360571D01*
X117784571Y-90312952D01*
X117879809Y-90265333D01*
X118117904Y-90265333D01*
X118213142Y-90312952D01*
X118260761Y-90360571D01*
X118308380Y-90455809D01*
X118308380Y-90741523D01*
X118260761Y-90836761D01*
X118213142Y-90884380D01*
X96258142Y-50617380D02*
X95924809Y-50141190D01*
X95686714Y-50617380D02*
X95686714Y-49617380D01*
X96067666Y-49617380D01*
X96162904Y-49665000D01*
X96210523Y-49712619D01*
X96258142Y-49807857D01*
X96258142Y-49950714D01*
X96210523Y-50045952D01*
X96162904Y-50093571D01*
X96067666Y-50141190D01*
X95686714Y-50141190D01*
X97210523Y-50617380D02*
X96639095Y-50617380D01*
X96924809Y-50617380D02*
X96924809Y-49617380D01*
X96829571Y-49760238D01*
X96734333Y-49855476D01*
X96639095Y-49903095D01*
X98067666Y-49617380D02*
X97877190Y-49617380D01*
X97781952Y-49665000D01*
X97734333Y-49712619D01*
X97639095Y-49855476D01*
X97591476Y-50045952D01*
X97591476Y-50426904D01*
X97639095Y-50522142D01*
X97686714Y-50569761D01*
X97781952Y-50617380D01*
X97972428Y-50617380D01*
X98067666Y-50569761D01*
X98115285Y-50522142D01*
X98162904Y-50426904D01*
X98162904Y-50188809D01*
X98115285Y-50093571D01*
X98067666Y-50045952D01*
X97972428Y-49998333D01*
X97781952Y-49998333D01*
X97686714Y-50045952D01*
X97639095Y-50093571D01*
X97591476Y-50188809D01*
X107219761Y-62102619D02*
X107124523Y-62055000D01*
X107029285Y-61959761D01*
X106886428Y-61816904D01*
X106791190Y-61769285D01*
X106695952Y-61769285D01*
X106743571Y-62007380D02*
X106648333Y-61959761D01*
X106553095Y-61864523D01*
X106505476Y-61674047D01*
X106505476Y-61340714D01*
X106553095Y-61150238D01*
X106648333Y-61055000D01*
X106743571Y-61007380D01*
X106934047Y-61007380D01*
X107029285Y-61055000D01*
X107124523Y-61150238D01*
X107172142Y-61340714D01*
X107172142Y-61674047D01*
X107124523Y-61864523D01*
X107029285Y-61959761D01*
X106934047Y-62007380D01*
X106743571Y-62007380D01*
X107505476Y-61007380D02*
X108124523Y-61007380D01*
X107791190Y-61388333D01*
X107934047Y-61388333D01*
X108029285Y-61435952D01*
X108076904Y-61483571D01*
X108124523Y-61578809D01*
X108124523Y-61816904D01*
X108076904Y-61912142D01*
X108029285Y-61959761D01*
X107934047Y-62007380D01*
X107648333Y-62007380D01*
X107553095Y-61959761D01*
X107505476Y-61912142D01*
X109116904Y-52562380D02*
X109116904Y-51562380D01*
X109355000Y-51562380D01*
X109497857Y-51610000D01*
X109593095Y-51705238D01*
X109640714Y-51800476D01*
X109688333Y-51990952D01*
X109688333Y-52133809D01*
X109640714Y-52324285D01*
X109593095Y-52419523D01*
X109497857Y-52514761D01*
X109355000Y-52562380D01*
X109116904Y-52562380D01*
X110545476Y-51562380D02*
X110355000Y-51562380D01*
X110259761Y-51610000D01*
X110212142Y-51657619D01*
X110116904Y-51800476D01*
X110069285Y-51990952D01*
X110069285Y-52371904D01*
X110116904Y-52467142D01*
X110164523Y-52514761D01*
X110259761Y-52562380D01*
X110450238Y-52562380D01*
X110545476Y-52514761D01*
X110593095Y-52467142D01*
X110640714Y-52371904D01*
X110640714Y-52133809D01*
X110593095Y-52038571D01*
X110545476Y-51990952D01*
X110450238Y-51943333D01*
X110259761Y-51943333D01*
X110164523Y-51990952D01*
X110116904Y-52038571D01*
X110069285Y-52133809D01*
X91273333Y-55347142D02*
X91225714Y-55394761D01*
X91082857Y-55442380D01*
X90987619Y-55442380D01*
X90844761Y-55394761D01*
X90749523Y-55299523D01*
X90701904Y-55204285D01*
X90654285Y-55013809D01*
X90654285Y-54870952D01*
X90701904Y-54680476D01*
X90749523Y-54585238D01*
X90844761Y-54490000D01*
X90987619Y-54442380D01*
X91082857Y-54442380D01*
X91225714Y-54490000D01*
X91273333Y-54537619D01*
X91606666Y-54442380D02*
X92225714Y-54442380D01*
X91892380Y-54823333D01*
X92035238Y-54823333D01*
X92130476Y-54870952D01*
X92178095Y-54918571D01*
X92225714Y-55013809D01*
X92225714Y-55251904D01*
X92178095Y-55347142D01*
X92130476Y-55394761D01*
X92035238Y-55442380D01*
X91749523Y-55442380D01*
X91654285Y-55394761D01*
X91606666Y-55347142D01*
X85827142Y-58369166D02*
X85874761Y-58416785D01*
X85922380Y-58559642D01*
X85922380Y-58654880D01*
X85874761Y-58797738D01*
X85779523Y-58892976D01*
X85684285Y-58940595D01*
X85493809Y-58988214D01*
X85350952Y-58988214D01*
X85160476Y-58940595D01*
X85065238Y-58892976D01*
X84970000Y-58797738D01*
X84922380Y-58654880D01*
X84922380Y-58559642D01*
X84970000Y-58416785D01*
X85017619Y-58369166D01*
X85017619Y-57988214D02*
X84970000Y-57940595D01*
X84922380Y-57845357D01*
X84922380Y-57607261D01*
X84970000Y-57512023D01*
X85017619Y-57464404D01*
X85112857Y-57416785D01*
X85208095Y-57416785D01*
X85350952Y-57464404D01*
X85922380Y-58035833D01*
X85922380Y-57416785D01*
X121134142Y-73699666D02*
X121181761Y-73747285D01*
X121229380Y-73890142D01*
X121229380Y-73985380D01*
X121181761Y-74128238D01*
X121086523Y-74223476D01*
X120991285Y-74271095D01*
X120800809Y-74318714D01*
X120657952Y-74318714D01*
X120467476Y-74271095D01*
X120372238Y-74223476D01*
X120277000Y-74128238D01*
X120229380Y-73985380D01*
X120229380Y-73890142D01*
X120277000Y-73747285D01*
X120324619Y-73699666D01*
X121229380Y-72747285D02*
X121229380Y-73318714D01*
X121229380Y-73033000D02*
X120229380Y-73033000D01*
X120372238Y-73128238D01*
X120467476Y-73223476D01*
X120515095Y-73318714D01*
X76787619Y-78835238D02*
X76740000Y-78930476D01*
X76644761Y-79025714D01*
X76501904Y-79168571D01*
X76454285Y-79263809D01*
X76454285Y-79359047D01*
X76692380Y-79311428D02*
X76644761Y-79406666D01*
X76549523Y-79501904D01*
X76359047Y-79549523D01*
X76025714Y-79549523D01*
X75835238Y-79501904D01*
X75740000Y-79406666D01*
X75692380Y-79311428D01*
X75692380Y-79120952D01*
X75740000Y-79025714D01*
X75835238Y-78930476D01*
X76025714Y-78882857D01*
X76359047Y-78882857D01*
X76549523Y-78930476D01*
X76644761Y-79025714D01*
X76692380Y-79120952D01*
X76692380Y-79311428D01*
X75787619Y-78501904D02*
X75740000Y-78454285D01*
X75692380Y-78359047D01*
X75692380Y-78120952D01*
X75740000Y-78025714D01*
X75787619Y-77978095D01*
X75882857Y-77930476D01*
X75978095Y-77930476D01*
X76120952Y-77978095D01*
X76692380Y-78549523D01*
X76692380Y-77930476D01*
X89392380Y-88328095D02*
X88392380Y-88328095D01*
X88392380Y-88090000D01*
X88440000Y-87947142D01*
X88535238Y-87851904D01*
X88630476Y-87804285D01*
X88820952Y-87756666D01*
X88963809Y-87756666D01*
X89154285Y-87804285D01*
X89249523Y-87851904D01*
X89344761Y-87947142D01*
X89392380Y-88090000D01*
X89392380Y-88328095D01*
X88725714Y-86899523D02*
X89392380Y-86899523D01*
X88344761Y-87137619D02*
X89059047Y-87375714D01*
X89059047Y-86756666D01*
X116332095Y-74255380D02*
X116332095Y-75064904D01*
X116379714Y-75160142D01*
X116427333Y-75207761D01*
X116522571Y-75255380D01*
X116713047Y-75255380D01*
X116808285Y-75207761D01*
X116855904Y-75160142D01*
X116903523Y-75064904D01*
X116903523Y-74255380D01*
X117903523Y-75255380D02*
X117332095Y-75255380D01*
X117617809Y-75255380D02*
X117617809Y-74255380D01*
X117522571Y-74398238D01*
X117427333Y-74493476D01*
X117332095Y-74541095D01*
X83512095Y-55038380D02*
X84083523Y-55038380D01*
X83797809Y-56038380D02*
X83797809Y-55038380D01*
X84416857Y-56038380D02*
X84416857Y-55038380D01*
X84797809Y-55038380D01*
X84893047Y-55086000D01*
X84940666Y-55133619D01*
X84988285Y-55228857D01*
X84988285Y-55371714D01*
X84940666Y-55466952D01*
X84893047Y-55514571D01*
X84797809Y-55562190D01*
X84416857Y-55562190D01*
X85893047Y-55038380D02*
X85416857Y-55038380D01*
X85369238Y-55514571D01*
X85416857Y-55466952D01*
X85512095Y-55419333D01*
X85750190Y-55419333D01*
X85845428Y-55466952D01*
X85893047Y-55514571D01*
X85940666Y-55609809D01*
X85940666Y-55847904D01*
X85893047Y-55943142D01*
X85845428Y-55990761D01*
X85750190Y-56038380D01*
X85512095Y-56038380D01*
X85416857Y-55990761D01*
X85369238Y-55943142D01*
X53297166Y-50940571D02*
X52963833Y-50940571D01*
X52963833Y-51464380D02*
X52963833Y-50464380D01*
X53440023Y-50464380D01*
X53773357Y-50559619D02*
X53820976Y-50512000D01*
X53916214Y-50464380D01*
X54154309Y-50464380D01*
X54249547Y-50512000D01*
X54297166Y-50559619D01*
X54344785Y-50654857D01*
X54344785Y-50750095D01*
X54297166Y-50892952D01*
X53725738Y-51464380D01*
X54344785Y-51464380D01*
X75597380Y-63603095D02*
X74597380Y-63603095D01*
X74597380Y-63365000D01*
X74645000Y-63222142D01*
X74740238Y-63126904D01*
X74835476Y-63079285D01*
X75025952Y-63031666D01*
X75168809Y-63031666D01*
X75359285Y-63079285D01*
X75454523Y-63126904D01*
X75549761Y-63222142D01*
X75597380Y-63365000D01*
X75597380Y-63603095D01*
X75597380Y-62079285D02*
X75597380Y-62650714D01*
X75597380Y-62365000D02*
X74597380Y-62365000D01*
X74740238Y-62460238D01*
X74835476Y-62555476D01*
X74883095Y-62650714D01*
X75277380Y-59316904D02*
X74277380Y-59316904D01*
X75277380Y-58745476D02*
X74705952Y-59174047D01*
X74277380Y-58745476D02*
X74848809Y-59316904D01*
X80842380Y-91153095D02*
X79842380Y-91153095D01*
X79842380Y-90915000D01*
X79890000Y-90772142D01*
X79985238Y-90676904D01*
X80080476Y-90629285D01*
X80270952Y-90581666D01*
X80413809Y-90581666D01*
X80604285Y-90629285D01*
X80699523Y-90676904D01*
X80794761Y-90772142D01*
X80842380Y-90915000D01*
X80842380Y-91153095D01*
X79842380Y-90248333D02*
X79842380Y-89629285D01*
X80223333Y-89962619D01*
X80223333Y-89819761D01*
X80270952Y-89724523D01*
X80318571Y-89676904D01*
X80413809Y-89629285D01*
X80651904Y-89629285D01*
X80747142Y-89676904D01*
X80794761Y-89724523D01*
X80842380Y-89819761D01*
X80842380Y-90105476D01*
X80794761Y-90200714D01*
X80747142Y-90248333D01*
X101416380Y-65753095D02*
X100416380Y-65753095D01*
X100416380Y-65515000D01*
X100464000Y-65372142D01*
X100559238Y-65276904D01*
X100654476Y-65229285D01*
X100844952Y-65181666D01*
X100987809Y-65181666D01*
X101178285Y-65229285D01*
X101273523Y-65276904D01*
X101368761Y-65372142D01*
X101416380Y-65515000D01*
X101416380Y-65753095D01*
X100511619Y-64800714D02*
X100464000Y-64753095D01*
X100416380Y-64657857D01*
X100416380Y-64419761D01*
X100464000Y-64324523D01*
X100511619Y-64276904D01*
X100606857Y-64229285D01*
X100702095Y-64229285D01*
X100844952Y-64276904D01*
X101416380Y-64848333D01*
X101416380Y-64229285D01*
X75762380Y-91153095D02*
X74762380Y-91153095D01*
X74762380Y-90915000D01*
X74810000Y-90772142D01*
X74905238Y-90676904D01*
X75000476Y-90629285D01*
X75190952Y-90581666D01*
X75333809Y-90581666D01*
X75524285Y-90629285D01*
X75619523Y-90676904D01*
X75714761Y-90772142D01*
X75762380Y-90915000D01*
X75762380Y-91153095D01*
X74762380Y-89676904D02*
X74762380Y-90153095D01*
X75238571Y-90200714D01*
X75190952Y-90153095D01*
X75143333Y-90057857D01*
X75143333Y-89819761D01*
X75190952Y-89724523D01*
X75238571Y-89676904D01*
X75333809Y-89629285D01*
X75571904Y-89629285D01*
X75667142Y-89676904D01*
X75714761Y-89724523D01*
X75762380Y-89819761D01*
X75762380Y-90057857D01*
X75714761Y-90153095D01*
X75667142Y-90200714D01*
X123898571Y-73351333D02*
X123898571Y-73684666D01*
X124422380Y-73684666D02*
X123422380Y-73684666D01*
X123422380Y-73208476D01*
X124422380Y-72303714D02*
X124422380Y-72875142D01*
X124422380Y-72589428D02*
X123422380Y-72589428D01*
X123565238Y-72684666D01*
X123660476Y-72779904D01*
X123708095Y-72875142D01*
X93114904Y-95575380D02*
X93114904Y-94575380D01*
X93686333Y-95575380D02*
X93257761Y-95003952D01*
X93686333Y-94575380D02*
X93114904Y-95146809D01*
X94638714Y-95575380D02*
X94067285Y-95575380D01*
X94353000Y-95575380D02*
X94353000Y-94575380D01*
X94257761Y-94718238D01*
X94162523Y-94813476D01*
X94067285Y-94861095D01*
X81867619Y-78835238D02*
X81820000Y-78930476D01*
X81724761Y-79025714D01*
X81581904Y-79168571D01*
X81534285Y-79263809D01*
X81534285Y-79359047D01*
X81772380Y-79311428D02*
X81724761Y-79406666D01*
X81629523Y-79501904D01*
X81439047Y-79549523D01*
X81105714Y-79549523D01*
X80915238Y-79501904D01*
X80820000Y-79406666D01*
X80772380Y-79311428D01*
X80772380Y-79120952D01*
X80820000Y-79025714D01*
X80915238Y-78930476D01*
X81105714Y-78882857D01*
X81439047Y-78882857D01*
X81629523Y-78930476D01*
X81724761Y-79025714D01*
X81772380Y-79120952D01*
X81772380Y-79311428D01*
X81772380Y-77930476D02*
X81772380Y-78501904D01*
X81772380Y-78216190D02*
X80772380Y-78216190D01*
X80915238Y-78311428D01*
X81010476Y-78406666D01*
X81058095Y-78501904D01*
X86955333Y-45156380D02*
X86622000Y-44680190D01*
X86383904Y-45156380D02*
X86383904Y-44156380D01*
X86764857Y-44156380D01*
X86860095Y-44204000D01*
X86907714Y-44251619D01*
X86955333Y-44346857D01*
X86955333Y-44489714D01*
X86907714Y-44584952D01*
X86860095Y-44632571D01*
X86764857Y-44680190D01*
X86383904Y-44680190D01*
X87860095Y-44156380D02*
X87383904Y-44156380D01*
X87336285Y-44632571D01*
X87383904Y-44584952D01*
X87479142Y-44537333D01*
X87717238Y-44537333D01*
X87812476Y-44584952D01*
X87860095Y-44632571D01*
X87907714Y-44727809D01*
X87907714Y-44965904D01*
X87860095Y-45061142D01*
X87812476Y-45108761D01*
X87717238Y-45156380D01*
X87479142Y-45156380D01*
X87383904Y-45108761D01*
X87336285Y-45061142D01*
X86955333Y-47696380D02*
X86622000Y-47220190D01*
X86383904Y-47696380D02*
X86383904Y-46696380D01*
X86764857Y-46696380D01*
X86860095Y-46744000D01*
X86907714Y-46791619D01*
X86955333Y-46886857D01*
X86955333Y-47029714D01*
X86907714Y-47124952D01*
X86860095Y-47172571D01*
X86764857Y-47220190D01*
X86383904Y-47220190D01*
X87812476Y-46696380D02*
X87622000Y-46696380D01*
X87526761Y-46744000D01*
X87479142Y-46791619D01*
X87383904Y-46934476D01*
X87336285Y-47124952D01*
X87336285Y-47505904D01*
X87383904Y-47601142D01*
X87431523Y-47648761D01*
X87526761Y-47696380D01*
X87717238Y-47696380D01*
X87812476Y-47648761D01*
X87860095Y-47601142D01*
X87907714Y-47505904D01*
X87907714Y-47267809D01*
X87860095Y-47172571D01*
X87812476Y-47124952D01*
X87717238Y-47077333D01*
X87526761Y-47077333D01*
X87431523Y-47124952D01*
X87383904Y-47172571D01*
X87336285Y-47267809D01*
X86479142Y-50236380D02*
X86145809Y-49760190D01*
X85907714Y-50236380D02*
X85907714Y-49236380D01*
X86288666Y-49236380D01*
X86383904Y-49284000D01*
X86431523Y-49331619D01*
X86479142Y-49426857D01*
X86479142Y-49569714D01*
X86431523Y-49664952D01*
X86383904Y-49712571D01*
X86288666Y-49760190D01*
X85907714Y-49760190D01*
X87431523Y-50236380D02*
X86860095Y-50236380D01*
X87145809Y-50236380D02*
X87145809Y-49236380D01*
X87050571Y-49379238D01*
X86955333Y-49474476D01*
X86860095Y-49522095D01*
X88050571Y-49236380D02*
X88145809Y-49236380D01*
X88241047Y-49284000D01*
X88288666Y-49331619D01*
X88336285Y-49426857D01*
X88383904Y-49617333D01*
X88383904Y-49855428D01*
X88336285Y-50045904D01*
X88288666Y-50141142D01*
X88241047Y-50188761D01*
X88145809Y-50236380D01*
X88050571Y-50236380D01*
X87955333Y-50188761D01*
X87907714Y-50141142D01*
X87860095Y-50045904D01*
X87812476Y-49855428D01*
X87812476Y-49617333D01*
X87860095Y-49426857D01*
X87907714Y-49331619D01*
X87955333Y-49284000D01*
X88050571Y-49236380D01*
X59559833Y-51464380D02*
X59226500Y-50988190D01*
X58988404Y-51464380D02*
X58988404Y-50464380D01*
X59369357Y-50464380D01*
X59464595Y-50512000D01*
X59512214Y-50559619D01*
X59559833Y-50654857D01*
X59559833Y-50797714D01*
X59512214Y-50892952D01*
X59464595Y-50940571D01*
X59369357Y-50988190D01*
X58988404Y-50988190D01*
X60512214Y-51464380D02*
X59940785Y-51464380D01*
X60226500Y-51464380D02*
X60226500Y-50464380D01*
X60131261Y-50607238D01*
X60036023Y-50702476D01*
X59940785Y-50750095D01*
X65909833Y-51464380D02*
X65576500Y-50988190D01*
X65338404Y-51464380D02*
X65338404Y-50464380D01*
X65719357Y-50464380D01*
X65814595Y-50512000D01*
X65862214Y-50559619D01*
X65909833Y-50654857D01*
X65909833Y-50797714D01*
X65862214Y-50892952D01*
X65814595Y-50940571D01*
X65719357Y-50988190D01*
X65338404Y-50988190D01*
X66290785Y-50559619D02*
X66338404Y-50512000D01*
X66433642Y-50464380D01*
X66671738Y-50464380D01*
X66766976Y-50512000D01*
X66814595Y-50559619D01*
X66862214Y-50654857D01*
X66862214Y-50750095D01*
X66814595Y-50892952D01*
X66243166Y-51464380D01*
X66862214Y-51464380D01*
X71403380Y-51130166D02*
X70927190Y-51463500D01*
X71403380Y-51701595D02*
X70403380Y-51701595D01*
X70403380Y-51320642D01*
X70451000Y-51225404D01*
X70498619Y-51177785D01*
X70593857Y-51130166D01*
X70736714Y-51130166D01*
X70831952Y-51177785D01*
X70879571Y-51225404D01*
X70927190Y-51320642D01*
X70927190Y-51701595D01*
X70403380Y-50796833D02*
X70403380Y-50177785D01*
X70784333Y-50511119D01*
X70784333Y-50368261D01*
X70831952Y-50273023D01*
X70879571Y-50225404D01*
X70974809Y-50177785D01*
X71212904Y-50177785D01*
X71308142Y-50225404D01*
X71355761Y-50273023D01*
X71403380Y-50368261D01*
X71403380Y-50653976D01*
X71355761Y-50749214D01*
X71308142Y-50796833D01*
X71403380Y-46050166D02*
X70927190Y-46383500D01*
X71403380Y-46621595D02*
X70403380Y-46621595D01*
X70403380Y-46240642D01*
X70451000Y-46145404D01*
X70498619Y-46097785D01*
X70593857Y-46050166D01*
X70736714Y-46050166D01*
X70831952Y-46097785D01*
X70879571Y-46145404D01*
X70927190Y-46240642D01*
X70927190Y-46621595D01*
X70736714Y-45193023D02*
X71403380Y-45193023D01*
X70355761Y-45431119D02*
X71070047Y-45669214D01*
X71070047Y-45050166D01*
X79879833Y-55570380D02*
X79546500Y-55094190D01*
X79308404Y-55570380D02*
X79308404Y-54570380D01*
X79689357Y-54570380D01*
X79784595Y-54618000D01*
X79832214Y-54665619D01*
X79879833Y-54760857D01*
X79879833Y-54903714D01*
X79832214Y-54998952D01*
X79784595Y-55046571D01*
X79689357Y-55094190D01*
X79308404Y-55094190D01*
X80451261Y-54998952D02*
X80356023Y-54951333D01*
X80308404Y-54903714D01*
X80260785Y-54808476D01*
X80260785Y-54760857D01*
X80308404Y-54665619D01*
X80356023Y-54618000D01*
X80451261Y-54570380D01*
X80641738Y-54570380D01*
X80736976Y-54618000D01*
X80784595Y-54665619D01*
X80832214Y-54760857D01*
X80832214Y-54808476D01*
X80784595Y-54903714D01*
X80736976Y-54951333D01*
X80641738Y-54998952D01*
X80451261Y-54998952D01*
X80356023Y-55046571D01*
X80308404Y-55094190D01*
X80260785Y-55189428D01*
X80260785Y-55379904D01*
X80308404Y-55475142D01*
X80356023Y-55522761D01*
X80451261Y-55570380D01*
X80641738Y-55570380D01*
X80736976Y-55522761D01*
X80784595Y-55475142D01*
X80832214Y-55379904D01*
X80832214Y-55189428D01*
X80784595Y-55094190D01*
X80736976Y-55046571D01*
X80641738Y-54998952D01*
X79879833Y-61962380D02*
X79546500Y-61486190D01*
X79308404Y-61962380D02*
X79308404Y-60962380D01*
X79689357Y-60962380D01*
X79784595Y-61010000D01*
X79832214Y-61057619D01*
X79879833Y-61152857D01*
X79879833Y-61295714D01*
X79832214Y-61390952D01*
X79784595Y-61438571D01*
X79689357Y-61486190D01*
X79308404Y-61486190D01*
X80356023Y-61962380D02*
X80546500Y-61962380D01*
X80641738Y-61914761D01*
X80689357Y-61867142D01*
X80784595Y-61724285D01*
X80832214Y-61533809D01*
X80832214Y-61152857D01*
X80784595Y-61057619D01*
X80736976Y-61010000D01*
X80641738Y-60962380D01*
X80451261Y-60962380D01*
X80356023Y-61010000D01*
X80308404Y-61057619D01*
X80260785Y-61152857D01*
X80260785Y-61390952D01*
X80308404Y-61486190D01*
X80356023Y-61533809D01*
X80451261Y-61581428D01*
X80641738Y-61581428D01*
X80736976Y-61533809D01*
X80784595Y-61486190D01*
X80832214Y-61390952D01*
X100316380Y-57575357D02*
X99840190Y-57908690D01*
X100316380Y-58146785D02*
X99316380Y-58146785D01*
X99316380Y-57765833D01*
X99364000Y-57670595D01*
X99411619Y-57622976D01*
X99506857Y-57575357D01*
X99649714Y-57575357D01*
X99744952Y-57622976D01*
X99792571Y-57670595D01*
X99840190Y-57765833D01*
X99840190Y-58146785D01*
X100316380Y-56622976D02*
X100316380Y-57194404D01*
X100316380Y-56908690D02*
X99316380Y-56908690D01*
X99459238Y-57003928D01*
X99554476Y-57099166D01*
X99602095Y-57194404D01*
X99411619Y-56242023D02*
X99364000Y-56194404D01*
X99316380Y-56099166D01*
X99316380Y-55861071D01*
X99364000Y-55765833D01*
X99411619Y-55718214D01*
X99506857Y-55670595D01*
X99602095Y-55670595D01*
X99744952Y-55718214D01*
X100316380Y-56289642D01*
X100316380Y-55670595D01*
X77372380Y-84680357D02*
X76896190Y-85013690D01*
X77372380Y-85251785D02*
X76372380Y-85251785D01*
X76372380Y-84870833D01*
X76420000Y-84775595D01*
X76467619Y-84727976D01*
X76562857Y-84680357D01*
X76705714Y-84680357D01*
X76800952Y-84727976D01*
X76848571Y-84775595D01*
X76896190Y-84870833D01*
X76896190Y-85251785D01*
X77372380Y-83727976D02*
X77372380Y-84299404D01*
X77372380Y-84013690D02*
X76372380Y-84013690D01*
X76515238Y-84108928D01*
X76610476Y-84204166D01*
X76658095Y-84299404D01*
X76372380Y-83394642D02*
X76372380Y-82775595D01*
X76753333Y-83108928D01*
X76753333Y-82966071D01*
X76800952Y-82870833D01*
X76848571Y-82823214D01*
X76943809Y-82775595D01*
X77181904Y-82775595D01*
X77277142Y-82823214D01*
X77324761Y-82870833D01*
X77372380Y-82966071D01*
X77372380Y-83251785D01*
X77324761Y-83347023D01*
X77277142Y-83394642D01*
X91490833Y-49516380D02*
X91157500Y-49040190D01*
X90919404Y-49516380D02*
X90919404Y-48516380D01*
X91300357Y-48516380D01*
X91395595Y-48564000D01*
X91443214Y-48611619D01*
X91490833Y-48706857D01*
X91490833Y-48849714D01*
X91443214Y-48944952D01*
X91395595Y-48992571D01*
X91300357Y-49040190D01*
X90919404Y-49040190D01*
X91824166Y-48516380D02*
X92490833Y-48516380D01*
X92062261Y-49516380D01*
X98538380Y-65449357D02*
X98062190Y-65782690D01*
X98538380Y-66020785D02*
X97538380Y-66020785D01*
X97538380Y-65639833D01*
X97586000Y-65544595D01*
X97633619Y-65496976D01*
X97728857Y-65449357D01*
X97871714Y-65449357D01*
X97966952Y-65496976D01*
X98014571Y-65544595D01*
X98062190Y-65639833D01*
X98062190Y-66020785D01*
X98538380Y-64496976D02*
X98538380Y-65068404D01*
X98538380Y-64782690D02*
X97538380Y-64782690D01*
X97681238Y-64877928D01*
X97776476Y-64973166D01*
X97824095Y-65068404D01*
X98538380Y-63544595D02*
X98538380Y-64116023D01*
X98538380Y-63830309D02*
X97538380Y-63830309D01*
X97681238Y-63925547D01*
X97776476Y-64020785D01*
X97824095Y-64116023D01*
X82959642Y-81182380D02*
X82626309Y-80706190D01*
X82388214Y-81182380D02*
X82388214Y-80182380D01*
X82769166Y-80182380D01*
X82864404Y-80230000D01*
X82912023Y-80277619D01*
X82959642Y-80372857D01*
X82959642Y-80515714D01*
X82912023Y-80610952D01*
X82864404Y-80658571D01*
X82769166Y-80706190D01*
X82388214Y-80706190D01*
X83912023Y-81182380D02*
X83340595Y-81182380D01*
X83626309Y-81182380D02*
X83626309Y-80182380D01*
X83531071Y-80325238D01*
X83435833Y-80420476D01*
X83340595Y-80468095D01*
X84769166Y-80515714D02*
X84769166Y-81182380D01*
X84531071Y-80134761D02*
X84292976Y-80849047D01*
X84912023Y-80849047D01*
X72292380Y-84680357D02*
X71816190Y-85013690D01*
X72292380Y-85251785D02*
X71292380Y-85251785D01*
X71292380Y-84870833D01*
X71340000Y-84775595D01*
X71387619Y-84727976D01*
X71482857Y-84680357D01*
X71625714Y-84680357D01*
X71720952Y-84727976D01*
X71768571Y-84775595D01*
X71816190Y-84870833D01*
X71816190Y-85251785D01*
X72292380Y-83727976D02*
X72292380Y-84299404D01*
X72292380Y-84013690D02*
X71292380Y-84013690D01*
X71435238Y-84108928D01*
X71530476Y-84204166D01*
X71578095Y-84299404D01*
X71292380Y-82823214D02*
X71292380Y-83299404D01*
X71768571Y-83347023D01*
X71720952Y-83299404D01*
X71673333Y-83204166D01*
X71673333Y-82966071D01*
X71720952Y-82870833D01*
X71768571Y-82823214D01*
X71863809Y-82775595D01*
X72101904Y-82775595D01*
X72197142Y-82823214D01*
X72244761Y-82870833D01*
X72292380Y-82966071D01*
X72292380Y-83204166D01*
X72244761Y-83299404D01*
X72197142Y-83347023D01*
X80718095Y-65960380D02*
X81289523Y-65960380D01*
X81003809Y-66960380D02*
X81003809Y-65960380D01*
X81622857Y-66960380D02*
X81622857Y-65960380D01*
X82003809Y-65960380D01*
X82099047Y-66008000D01*
X82146666Y-66055619D01*
X82194285Y-66150857D01*
X82194285Y-66293714D01*
X82146666Y-66388952D01*
X82099047Y-66436571D01*
X82003809Y-66484190D01*
X81622857Y-66484190D01*
X83146666Y-66960380D02*
X82575238Y-66960380D01*
X82860952Y-66960380D02*
X82860952Y-65960380D01*
X82765714Y-66103238D01*
X82670476Y-66198476D01*
X82575238Y-66246095D01*
X100338095Y-68921380D02*
X100909523Y-68921380D01*
X100623809Y-69921380D02*
X100623809Y-68921380D01*
X101242857Y-69921380D02*
X101242857Y-68921380D01*
X101623809Y-68921380D01*
X101719047Y-68969000D01*
X101766666Y-69016619D01*
X101814285Y-69111857D01*
X101814285Y-69254714D01*
X101766666Y-69349952D01*
X101719047Y-69397571D01*
X101623809Y-69445190D01*
X101242857Y-69445190D01*
X102195238Y-69016619D02*
X102242857Y-68969000D01*
X102338095Y-68921380D01*
X102576190Y-68921380D01*
X102671428Y-68969000D01*
X102719047Y-69016619D01*
X102766666Y-69111857D01*
X102766666Y-69207095D01*
X102719047Y-69349952D01*
X102147619Y-69921380D01*
X102766666Y-69921380D01*
X77543095Y-46402380D02*
X78114523Y-46402380D01*
X77828809Y-47402380D02*
X77828809Y-46402380D01*
X78447857Y-47402380D02*
X78447857Y-46402380D01*
X78828809Y-46402380D01*
X78924047Y-46450000D01*
X78971666Y-46497619D01*
X79019285Y-46592857D01*
X79019285Y-46735714D01*
X78971666Y-46830952D01*
X78924047Y-46878571D01*
X78828809Y-46926190D01*
X78447857Y-46926190D01*
X79352619Y-46402380D02*
X79971666Y-46402380D01*
X79638333Y-46783333D01*
X79781190Y-46783333D01*
X79876428Y-46830952D01*
X79924047Y-46878571D01*
X79971666Y-46973809D01*
X79971666Y-47211904D01*
X79924047Y-47307142D01*
X79876428Y-47354761D01*
X79781190Y-47402380D01*
X79495476Y-47402380D01*
X79400238Y-47354761D01*
X79352619Y-47307142D01*
X95258095Y-68921380D02*
X95829523Y-68921380D01*
X95543809Y-69921380D02*
X95543809Y-68921380D01*
X96162857Y-69921380D02*
X96162857Y-68921380D01*
X96543809Y-68921380D01*
X96639047Y-68969000D01*
X96686666Y-69016619D01*
X96734285Y-69111857D01*
X96734285Y-69254714D01*
X96686666Y-69349952D01*
X96639047Y-69397571D01*
X96543809Y-69445190D01*
X96162857Y-69445190D01*
X97591428Y-69254714D02*
X97591428Y-69921380D01*
X97353333Y-68873761D02*
X97115238Y-69588047D01*
X97734285Y-69588047D01*
X86306095Y-64944380D02*
X86877523Y-64944380D01*
X86591809Y-65944380D02*
X86591809Y-64944380D01*
X87210857Y-65944380D02*
X87210857Y-64944380D01*
X87591809Y-64944380D01*
X87687047Y-64992000D01*
X87734666Y-65039619D01*
X87782285Y-65134857D01*
X87782285Y-65277714D01*
X87734666Y-65372952D01*
X87687047Y-65420571D01*
X87591809Y-65468190D01*
X87210857Y-65468190D01*
X88639428Y-64944380D02*
X88448952Y-64944380D01*
X88353714Y-64992000D01*
X88306095Y-65039619D01*
X88210857Y-65182476D01*
X88163238Y-65372952D01*
X88163238Y-65753904D01*
X88210857Y-65849142D01*
X88258476Y-65896761D01*
X88353714Y-65944380D01*
X88544190Y-65944380D01*
X88639428Y-65896761D01*
X88687047Y-65849142D01*
X88734666Y-65753904D01*
X88734666Y-65515809D01*
X88687047Y-65420571D01*
X88639428Y-65372952D01*
X88544190Y-65325333D01*
X88353714Y-65325333D01*
X88258476Y-65372952D01*
X88210857Y-65420571D01*
X88163238Y-65515809D01*
X85163095Y-89582380D02*
X85734523Y-89582380D01*
X85448809Y-90582380D02*
X85448809Y-89582380D01*
X86067857Y-90582380D02*
X86067857Y-89582380D01*
X86448809Y-89582380D01*
X86544047Y-89630000D01*
X86591666Y-89677619D01*
X86639285Y-89772857D01*
X86639285Y-89915714D01*
X86591666Y-90010952D01*
X86544047Y-90058571D01*
X86448809Y-90106190D01*
X86067857Y-90106190D01*
X86972619Y-89582380D02*
X87639285Y-89582380D01*
X87210714Y-90582380D01*
X90613095Y-53837380D02*
X90613095Y-54646904D01*
X90660714Y-54742142D01*
X90708333Y-54789761D01*
X90803571Y-54837380D01*
X90994047Y-54837380D01*
X91089285Y-54789761D01*
X91136904Y-54742142D01*
X91184523Y-54646904D01*
X91184523Y-53837380D01*
X91613095Y-53932619D02*
X91660714Y-53885000D01*
X91755952Y-53837380D01*
X91994047Y-53837380D01*
X92089285Y-53885000D01*
X92136904Y-53932619D01*
X92184523Y-54027857D01*
X92184523Y-54123095D01*
X92136904Y-54265952D01*
X91565476Y-54837380D01*
X92184523Y-54837380D01*
M02*
