G04 #@! TF.GenerationSoftware,KiCad,Pcbnew,(5.1.2)-2*
G04 #@! TF.CreationDate,2019-08-12T14:05:45+10:00*
G04 #@! TF.ProjectId,TSAL-HVM,5453414c-2d48-4564-9d2e-6b696361645f,rev?*
G04 #@! TF.SameCoordinates,Original*
G04 #@! TF.FileFunction,Soldermask,Top*
G04 #@! TF.FilePolarity,Negative*
%FSLAX46Y46*%
G04 Gerber Fmt 4.6, Leading zero omitted, Abs format (unit mm)*
G04 Created by KiCad (PCBNEW (5.1.2)-2) date 2019-08-12 14:05:45*
%MOMM*%
%LPD*%
G04 APERTURE LIST*
%ADD10C,0.100000*%
G04 APERTURE END LIST*
D10*
G36*
X125695256Y-92841298D02*
G01*
X125801579Y-92862447D01*
X126102042Y-92986903D01*
X126372451Y-93167585D01*
X126602415Y-93397549D01*
X126783097Y-93667958D01*
X126907553Y-93968421D01*
X126971000Y-94287391D01*
X126971000Y-94612609D01*
X126907553Y-94931579D01*
X126783097Y-95232042D01*
X126602415Y-95502451D01*
X126372451Y-95732415D01*
X126102042Y-95913097D01*
X125801579Y-96037553D01*
X125695256Y-96058702D01*
X125482611Y-96101000D01*
X125157389Y-96101000D01*
X124944744Y-96058702D01*
X124838421Y-96037553D01*
X124537958Y-95913097D01*
X124267549Y-95732415D01*
X124037585Y-95502451D01*
X123856903Y-95232042D01*
X123732447Y-94931579D01*
X123669000Y-94612609D01*
X123669000Y-94287391D01*
X123732447Y-93968421D01*
X123856903Y-93667958D01*
X124037585Y-93397549D01*
X124267549Y-93167585D01*
X124537958Y-92986903D01*
X124838421Y-92862447D01*
X124944744Y-92841298D01*
X125157389Y-92799000D01*
X125482611Y-92799000D01*
X125695256Y-92841298D01*
X125695256Y-92841298D01*
G37*
G36*
X52445256Y-92841298D02*
G01*
X52551579Y-92862447D01*
X52852042Y-92986903D01*
X53122451Y-93167585D01*
X53352415Y-93397549D01*
X53533097Y-93667958D01*
X53657553Y-93968421D01*
X53721000Y-94287391D01*
X53721000Y-94612609D01*
X53657553Y-94931579D01*
X53533097Y-95232042D01*
X53352415Y-95502451D01*
X53122451Y-95732415D01*
X52852042Y-95913097D01*
X52551579Y-96037553D01*
X52445256Y-96058702D01*
X52232611Y-96101000D01*
X51907389Y-96101000D01*
X51694744Y-96058702D01*
X51588421Y-96037553D01*
X51287958Y-95913097D01*
X51017549Y-95732415D01*
X50787585Y-95502451D01*
X50606903Y-95232042D01*
X50482447Y-94931579D01*
X50419000Y-94612609D01*
X50419000Y-94287391D01*
X50482447Y-93968421D01*
X50606903Y-93667958D01*
X50787585Y-93397549D01*
X51017549Y-93167585D01*
X51287958Y-92986903D01*
X51588421Y-92862447D01*
X51694744Y-92841298D01*
X51907389Y-92799000D01*
X52232611Y-92799000D01*
X52445256Y-92841298D01*
X52445256Y-92841298D01*
G37*
G36*
X107099487Y-92708996D02*
G01*
X107316775Y-92799000D01*
X107336255Y-92807069D01*
X107405343Y-92853232D01*
X107549339Y-92949447D01*
X107730553Y-93130661D01*
X107872932Y-93343747D01*
X107971004Y-93580513D01*
X108021000Y-93831861D01*
X108021000Y-94088139D01*
X107971004Y-94339487D01*
X107902362Y-94505203D01*
X107872931Y-94576255D01*
X107730553Y-94789339D01*
X107549339Y-94970553D01*
X107336255Y-95112931D01*
X107336254Y-95112932D01*
X107336253Y-95112932D01*
X107099487Y-95211004D01*
X106848139Y-95261000D01*
X106591861Y-95261000D01*
X106340513Y-95211004D01*
X106103747Y-95112932D01*
X106103746Y-95112932D01*
X106103745Y-95112931D01*
X105890661Y-94970553D01*
X105709447Y-94789339D01*
X105567069Y-94576255D01*
X105537638Y-94505203D01*
X105468996Y-94339487D01*
X105419000Y-94088139D01*
X105419000Y-93831861D01*
X105468996Y-93580513D01*
X105567068Y-93343747D01*
X105709447Y-93130661D01*
X105890661Y-92949447D01*
X106034657Y-92853232D01*
X106103745Y-92807069D01*
X106123225Y-92799000D01*
X106340513Y-92708996D01*
X106591861Y-92659000D01*
X106848139Y-92659000D01*
X107099487Y-92708996D01*
X107099487Y-92708996D01*
G37*
G36*
X114799487Y-92708996D02*
G01*
X115016775Y-92799000D01*
X115036255Y-92807069D01*
X115105343Y-92853232D01*
X115249339Y-92949447D01*
X115430553Y-93130661D01*
X115572932Y-93343747D01*
X115671004Y-93580513D01*
X115721000Y-93831861D01*
X115721000Y-94088139D01*
X115671004Y-94339487D01*
X115602362Y-94505203D01*
X115572931Y-94576255D01*
X115430553Y-94789339D01*
X115249339Y-94970553D01*
X115036255Y-95112931D01*
X115036254Y-95112932D01*
X115036253Y-95112932D01*
X114799487Y-95211004D01*
X114548139Y-95261000D01*
X114291861Y-95261000D01*
X114040513Y-95211004D01*
X113803747Y-95112932D01*
X113803746Y-95112932D01*
X113803745Y-95112931D01*
X113590661Y-94970553D01*
X113409447Y-94789339D01*
X113267069Y-94576255D01*
X113237638Y-94505203D01*
X113168996Y-94339487D01*
X113119000Y-94088139D01*
X113119000Y-93831861D01*
X113168996Y-93580513D01*
X113267068Y-93343747D01*
X113409447Y-93130661D01*
X113590661Y-92949447D01*
X113734657Y-92853232D01*
X113803745Y-92807069D01*
X113823225Y-92799000D01*
X114040513Y-92708996D01*
X114291861Y-92659000D01*
X114548139Y-92659000D01*
X114799487Y-92708996D01*
X114799487Y-92708996D01*
G37*
G36*
X96744549Y-92831116D02*
G01*
X96855734Y-92853232D01*
X97065203Y-92939997D01*
X97253720Y-93065960D01*
X97414040Y-93226280D01*
X97540003Y-93414797D01*
X97540004Y-93414799D01*
X97626768Y-93624267D01*
X97671000Y-93846635D01*
X97671000Y-94073365D01*
X97668061Y-94088139D01*
X97626768Y-94295734D01*
X97540003Y-94505203D01*
X97414040Y-94693720D01*
X97253720Y-94854040D01*
X97065203Y-94980003D01*
X96855734Y-95066768D01*
X96744549Y-95088884D01*
X96633365Y-95111000D01*
X96406635Y-95111000D01*
X96295451Y-95088884D01*
X96184266Y-95066768D01*
X95974797Y-94980003D01*
X95786280Y-94854040D01*
X95625960Y-94693720D01*
X95499997Y-94505203D01*
X95413232Y-94295734D01*
X95371939Y-94088139D01*
X95369000Y-94073365D01*
X95369000Y-93846635D01*
X95413232Y-93624267D01*
X95499996Y-93414799D01*
X95499997Y-93414797D01*
X95625960Y-93226280D01*
X95786280Y-93065960D01*
X95974797Y-92939997D01*
X96184266Y-92853232D01*
X96295451Y-92831116D01*
X96406635Y-92809000D01*
X96633365Y-92809000D01*
X96744549Y-92831116D01*
X96744549Y-92831116D01*
G37*
G36*
X79328674Y-90818465D02*
G01*
X79366367Y-90829899D01*
X79401103Y-90848466D01*
X79431548Y-90873452D01*
X79456534Y-90903897D01*
X79475101Y-90938633D01*
X79486535Y-90976326D01*
X79491000Y-91021661D01*
X79491000Y-91858339D01*
X79486535Y-91903674D01*
X79475101Y-91941367D01*
X79456534Y-91976103D01*
X79431548Y-92006548D01*
X79401103Y-92031534D01*
X79366367Y-92050101D01*
X79328674Y-92061535D01*
X79283339Y-92066000D01*
X78196661Y-92066000D01*
X78151326Y-92061535D01*
X78113633Y-92050101D01*
X78078897Y-92031534D01*
X78048452Y-92006548D01*
X78023466Y-91976103D01*
X78004899Y-91941367D01*
X77993465Y-91903674D01*
X77989000Y-91858339D01*
X77989000Y-91021661D01*
X77993465Y-90976326D01*
X78004899Y-90938633D01*
X78023466Y-90903897D01*
X78048452Y-90873452D01*
X78078897Y-90848466D01*
X78113633Y-90829899D01*
X78151326Y-90818465D01*
X78196661Y-90814000D01*
X79283339Y-90814000D01*
X79328674Y-90818465D01*
X79328674Y-90818465D01*
G37*
G36*
X74248674Y-90818465D02*
G01*
X74286367Y-90829899D01*
X74321103Y-90848466D01*
X74351548Y-90873452D01*
X74376534Y-90903897D01*
X74395101Y-90938633D01*
X74406535Y-90976326D01*
X74411000Y-91021661D01*
X74411000Y-91858339D01*
X74406535Y-91903674D01*
X74395101Y-91941367D01*
X74376534Y-91976103D01*
X74351548Y-92006548D01*
X74321103Y-92031534D01*
X74286367Y-92050101D01*
X74248674Y-92061535D01*
X74203339Y-92066000D01*
X73116661Y-92066000D01*
X73071326Y-92061535D01*
X73033633Y-92050101D01*
X72998897Y-92031534D01*
X72968452Y-92006548D01*
X72943466Y-91976103D01*
X72924899Y-91941367D01*
X72913465Y-91903674D01*
X72909000Y-91858339D01*
X72909000Y-91021661D01*
X72913465Y-90976326D01*
X72924899Y-90938633D01*
X72943466Y-90903897D01*
X72968452Y-90873452D01*
X72998897Y-90848466D01*
X73033633Y-90829899D01*
X73071326Y-90818465D01*
X73116661Y-90814000D01*
X74203339Y-90814000D01*
X74248674Y-90818465D01*
X74248674Y-90818465D01*
G37*
G36*
X92391000Y-91891000D02*
G01*
X90489000Y-91891000D01*
X90489000Y-88289000D01*
X92391000Y-88289000D01*
X92391000Y-91891000D01*
X92391000Y-91891000D01*
G37*
G36*
X79328674Y-88768465D02*
G01*
X79366367Y-88779899D01*
X79401103Y-88798466D01*
X79431548Y-88823452D01*
X79456534Y-88853897D01*
X79475101Y-88888633D01*
X79486535Y-88926326D01*
X79491000Y-88971661D01*
X79491000Y-89808339D01*
X79486535Y-89853674D01*
X79475101Y-89891367D01*
X79456534Y-89926103D01*
X79431548Y-89956548D01*
X79401103Y-89981534D01*
X79366367Y-90000101D01*
X79328674Y-90011535D01*
X79283339Y-90016000D01*
X78196661Y-90016000D01*
X78151326Y-90011535D01*
X78113633Y-90000101D01*
X78078897Y-89981534D01*
X78048452Y-89956548D01*
X78023466Y-89926103D01*
X78004899Y-89891367D01*
X77993465Y-89853674D01*
X77989000Y-89808339D01*
X77989000Y-88971661D01*
X77993465Y-88926326D01*
X78004899Y-88888633D01*
X78023466Y-88853897D01*
X78048452Y-88823452D01*
X78078897Y-88798466D01*
X78113633Y-88779899D01*
X78151326Y-88768465D01*
X78196661Y-88764000D01*
X79283339Y-88764000D01*
X79328674Y-88768465D01*
X79328674Y-88768465D01*
G37*
G36*
X74248674Y-88768465D02*
G01*
X74286367Y-88779899D01*
X74321103Y-88798466D01*
X74351548Y-88823452D01*
X74376534Y-88853897D01*
X74395101Y-88888633D01*
X74406535Y-88926326D01*
X74411000Y-88971661D01*
X74411000Y-89808339D01*
X74406535Y-89853674D01*
X74395101Y-89891367D01*
X74376534Y-89926103D01*
X74351548Y-89956548D01*
X74321103Y-89981534D01*
X74286367Y-90000101D01*
X74248674Y-90011535D01*
X74203339Y-90016000D01*
X73116661Y-90016000D01*
X73071326Y-90011535D01*
X73033633Y-90000101D01*
X72998897Y-89981534D01*
X72968452Y-89956548D01*
X72943466Y-89926103D01*
X72924899Y-89891367D01*
X72913465Y-89853674D01*
X72909000Y-89808339D01*
X72909000Y-88971661D01*
X72913465Y-88926326D01*
X72924899Y-88888633D01*
X72943466Y-88853897D01*
X72968452Y-88823452D01*
X72998897Y-88798466D01*
X73033633Y-88779899D01*
X73071326Y-88768465D01*
X73116661Y-88764000D01*
X74203339Y-88764000D01*
X74248674Y-88768465D01*
X74248674Y-88768465D01*
G37*
G36*
X86031564Y-86619389D02*
G01*
X86222833Y-86698615D01*
X86222835Y-86698616D01*
X86394973Y-86813635D01*
X86541365Y-86960027D01*
X86656385Y-87132167D01*
X86735611Y-87323436D01*
X86776000Y-87526484D01*
X86776000Y-87733516D01*
X86735611Y-87936564D01*
X86687180Y-88053486D01*
X86656384Y-88127835D01*
X86541365Y-88299973D01*
X86394973Y-88446365D01*
X86222835Y-88561384D01*
X86222834Y-88561385D01*
X86222833Y-88561385D01*
X86031564Y-88640611D01*
X85828516Y-88681000D01*
X85621484Y-88681000D01*
X85418436Y-88640611D01*
X85227167Y-88561385D01*
X85227166Y-88561385D01*
X85227165Y-88561384D01*
X85055027Y-88446365D01*
X84908635Y-88299973D01*
X84793616Y-88127835D01*
X84762820Y-88053486D01*
X84714389Y-87936564D01*
X84674000Y-87733516D01*
X84674000Y-87526484D01*
X84714389Y-87323436D01*
X84793615Y-87132167D01*
X84908635Y-86960027D01*
X85055027Y-86813635D01*
X85227165Y-86698616D01*
X85227167Y-86698615D01*
X85418436Y-86619389D01*
X85621484Y-86579000D01*
X85828516Y-86579000D01*
X86031564Y-86619389D01*
X86031564Y-86619389D01*
G37*
G36*
X125693731Y-85359136D02*
G01*
X125796644Y-85369272D01*
X125986604Y-85426896D01*
X126060737Y-85449384D01*
X126263625Y-85557830D01*
X126304120Y-85579475D01*
X126359691Y-85625082D01*
X126517450Y-85754550D01*
X126646918Y-85912309D01*
X126692525Y-85967880D01*
X126692526Y-85967882D01*
X126822616Y-86211263D01*
X126822617Y-86211267D01*
X126902728Y-86475356D01*
X126929778Y-86750000D01*
X126902728Y-87024644D01*
X126870111Y-87132167D01*
X126822616Y-87288737D01*
X126728455Y-87464899D01*
X126692525Y-87532120D01*
X126646918Y-87587691D01*
X126517450Y-87745450D01*
X126359691Y-87874918D01*
X126304120Y-87920525D01*
X126304118Y-87920526D01*
X126060737Y-88050616D01*
X125992017Y-88071462D01*
X125796644Y-88130728D01*
X125693731Y-88140864D01*
X125590820Y-88151000D01*
X124853180Y-88151000D01*
X124750269Y-88140864D01*
X124647356Y-88130728D01*
X124451983Y-88071462D01*
X124383263Y-88050616D01*
X124139882Y-87920526D01*
X124139880Y-87920525D01*
X124084309Y-87874918D01*
X123926550Y-87745450D01*
X123797082Y-87587691D01*
X123751475Y-87532120D01*
X123715545Y-87464899D01*
X123621384Y-87288737D01*
X123573889Y-87132167D01*
X123541272Y-87024644D01*
X123514222Y-86750000D01*
X123541272Y-86475356D01*
X123621383Y-86211267D01*
X123621384Y-86211263D01*
X123751474Y-85967882D01*
X123751475Y-85967880D01*
X123797082Y-85912309D01*
X123926550Y-85754550D01*
X124084309Y-85625082D01*
X124139880Y-85579475D01*
X124180375Y-85557830D01*
X124383263Y-85449384D01*
X124457396Y-85426896D01*
X124647356Y-85369272D01*
X124750269Y-85359136D01*
X124853180Y-85349000D01*
X125590820Y-85349000D01*
X125693731Y-85359136D01*
X125693731Y-85359136D01*
G37*
G36*
X121296031Y-85352621D02*
G01*
X121325486Y-85361556D01*
X121352623Y-85376062D01*
X121376414Y-85395586D01*
X121395938Y-85419377D01*
X121410444Y-85446514D01*
X121419379Y-85475969D01*
X121423000Y-85512734D01*
X121423000Y-87987266D01*
X121419379Y-88024031D01*
X121410444Y-88053486D01*
X121395938Y-88080623D01*
X121376414Y-88104414D01*
X121352623Y-88123938D01*
X121325486Y-88138444D01*
X121296031Y-88147379D01*
X121259266Y-88151000D01*
X118184734Y-88151000D01*
X118147969Y-88147379D01*
X118118514Y-88138444D01*
X118091377Y-88123938D01*
X118067586Y-88104414D01*
X118048062Y-88080623D01*
X118033556Y-88053486D01*
X118024621Y-88024031D01*
X118021000Y-87987266D01*
X118021000Y-85512734D01*
X118024621Y-85475969D01*
X118033556Y-85446514D01*
X118048062Y-85419377D01*
X118067586Y-85395586D01*
X118091377Y-85376062D01*
X118118514Y-85361556D01*
X118147969Y-85352621D01*
X118184734Y-85349000D01*
X121259266Y-85349000D01*
X121296031Y-85352621D01*
X121296031Y-85352621D01*
G37*
G36*
X97453104Y-85214792D02*
G01*
X97503748Y-85230154D01*
X97550420Y-85255101D01*
X97591327Y-85288673D01*
X97624899Y-85329580D01*
X97649846Y-85376252D01*
X97665208Y-85426896D01*
X97671000Y-85485701D01*
X97671000Y-87234299D01*
X97665208Y-87293104D01*
X97649846Y-87343748D01*
X97624899Y-87390420D01*
X97591327Y-87431327D01*
X97550420Y-87464899D01*
X97503748Y-87489846D01*
X97453104Y-87505208D01*
X97394299Y-87511000D01*
X95645701Y-87511000D01*
X95586896Y-87505208D01*
X95536252Y-87489846D01*
X95489580Y-87464899D01*
X95448673Y-87431327D01*
X95415101Y-87390420D01*
X95390154Y-87343748D01*
X95374792Y-87293104D01*
X95369000Y-87234299D01*
X95369000Y-85485701D01*
X95374792Y-85426896D01*
X95390154Y-85376252D01*
X95415101Y-85329580D01*
X95448673Y-85288673D01*
X95489580Y-85255101D01*
X95536252Y-85230154D01*
X95586896Y-85214792D01*
X95645701Y-85209000D01*
X97394299Y-85209000D01*
X97453104Y-85214792D01*
X97453104Y-85214792D01*
G37*
G36*
X92391000Y-86891000D02*
G01*
X90489000Y-86891000D01*
X90489000Y-83289000D01*
X92391000Y-83289000D01*
X92391000Y-86891000D01*
X92391000Y-86891000D01*
G37*
G36*
X79515562Y-84765681D02*
G01*
X79550481Y-84776274D01*
X79582663Y-84793476D01*
X79610873Y-84816627D01*
X79634024Y-84844837D01*
X79651226Y-84877019D01*
X79661819Y-84911938D01*
X79666000Y-84954395D01*
X79666000Y-86095605D01*
X79661819Y-86138062D01*
X79651226Y-86172981D01*
X79634024Y-86205163D01*
X79610873Y-86233373D01*
X79582663Y-86256524D01*
X79550481Y-86273726D01*
X79515562Y-86284319D01*
X79473105Y-86288500D01*
X78006895Y-86288500D01*
X77964438Y-86284319D01*
X77929519Y-86273726D01*
X77897337Y-86256524D01*
X77869127Y-86233373D01*
X77845976Y-86205163D01*
X77828774Y-86172981D01*
X77818181Y-86138062D01*
X77814000Y-86095605D01*
X77814000Y-84954395D01*
X77818181Y-84911938D01*
X77828774Y-84877019D01*
X77845976Y-84844837D01*
X77869127Y-84816627D01*
X77897337Y-84793476D01*
X77929519Y-84776274D01*
X77964438Y-84765681D01*
X78006895Y-84761500D01*
X79473105Y-84761500D01*
X79515562Y-84765681D01*
X79515562Y-84765681D01*
G37*
G36*
X74435562Y-84765681D02*
G01*
X74470481Y-84776274D01*
X74502663Y-84793476D01*
X74530873Y-84816627D01*
X74554024Y-84844837D01*
X74571226Y-84877019D01*
X74581819Y-84911938D01*
X74586000Y-84954395D01*
X74586000Y-86095605D01*
X74581819Y-86138062D01*
X74571226Y-86172981D01*
X74554024Y-86205163D01*
X74530873Y-86233373D01*
X74502663Y-86256524D01*
X74470481Y-86273726D01*
X74435562Y-86284319D01*
X74393105Y-86288500D01*
X72926895Y-86288500D01*
X72884438Y-86284319D01*
X72849519Y-86273726D01*
X72817337Y-86256524D01*
X72789127Y-86233373D01*
X72765976Y-86205163D01*
X72748774Y-86172981D01*
X72738181Y-86138062D01*
X72734000Y-86095605D01*
X72734000Y-84954395D01*
X72738181Y-84911938D01*
X72748774Y-84877019D01*
X72765976Y-84844837D01*
X72789127Y-84816627D01*
X72817337Y-84793476D01*
X72849519Y-84776274D01*
X72884438Y-84765681D01*
X72926895Y-84761500D01*
X74393105Y-84761500D01*
X74435562Y-84765681D01*
X74435562Y-84765681D01*
G37*
G36*
X125693731Y-81159136D02*
G01*
X125796644Y-81169272D01*
X125992017Y-81228538D01*
X126060737Y-81249384D01*
X126290202Y-81372036D01*
X126304120Y-81379475D01*
X126359691Y-81425082D01*
X126517450Y-81554550D01*
X126619687Y-81679127D01*
X126692525Y-81767880D01*
X126692526Y-81767882D01*
X126822616Y-82011263D01*
X126822617Y-82011267D01*
X126902728Y-82275356D01*
X126929778Y-82550000D01*
X126902728Y-82824644D01*
X126843462Y-83020017D01*
X126822616Y-83088737D01*
X126719569Y-83281524D01*
X126692525Y-83332120D01*
X126646918Y-83387691D01*
X126517450Y-83545450D01*
X126359691Y-83674918D01*
X126304120Y-83720525D01*
X126304118Y-83720526D01*
X126060737Y-83850616D01*
X125992017Y-83871462D01*
X125796644Y-83930728D01*
X125693731Y-83940864D01*
X125590820Y-83951000D01*
X124853180Y-83951000D01*
X124750269Y-83940864D01*
X124647356Y-83930728D01*
X124451983Y-83871462D01*
X124383263Y-83850616D01*
X124139882Y-83720526D01*
X124139880Y-83720525D01*
X124084309Y-83674918D01*
X123926550Y-83545450D01*
X123797082Y-83387691D01*
X123751475Y-83332120D01*
X123724431Y-83281524D01*
X123621384Y-83088737D01*
X123600538Y-83020017D01*
X123541272Y-82824644D01*
X123514222Y-82550000D01*
X123541272Y-82275356D01*
X123621383Y-82011267D01*
X123621384Y-82011263D01*
X123751474Y-81767882D01*
X123751475Y-81767880D01*
X123824313Y-81679127D01*
X123926550Y-81554550D01*
X124084309Y-81425082D01*
X124139880Y-81379475D01*
X124153798Y-81372036D01*
X124383263Y-81249384D01*
X124451983Y-81228538D01*
X124647356Y-81169272D01*
X124750269Y-81159136D01*
X124853180Y-81149000D01*
X125590820Y-81149000D01*
X125693731Y-81159136D01*
X125693731Y-81159136D01*
G37*
G36*
X120193731Y-81159136D02*
G01*
X120296644Y-81169272D01*
X120492017Y-81228538D01*
X120560737Y-81249384D01*
X120790202Y-81372036D01*
X120804120Y-81379475D01*
X120859691Y-81425082D01*
X121017450Y-81554550D01*
X121119687Y-81679127D01*
X121192525Y-81767880D01*
X121192526Y-81767882D01*
X121322616Y-82011263D01*
X121322617Y-82011267D01*
X121402728Y-82275356D01*
X121429778Y-82550000D01*
X121402728Y-82824644D01*
X121343462Y-83020017D01*
X121322616Y-83088737D01*
X121219569Y-83281524D01*
X121192525Y-83332120D01*
X121146918Y-83387691D01*
X121017450Y-83545450D01*
X120859691Y-83674918D01*
X120804120Y-83720525D01*
X120804118Y-83720526D01*
X120560737Y-83850616D01*
X120492017Y-83871462D01*
X120296644Y-83930728D01*
X120193731Y-83940864D01*
X120090820Y-83951000D01*
X119353180Y-83951000D01*
X119250269Y-83940864D01*
X119147356Y-83930728D01*
X118951983Y-83871462D01*
X118883263Y-83850616D01*
X118639882Y-83720526D01*
X118639880Y-83720525D01*
X118584309Y-83674918D01*
X118426550Y-83545450D01*
X118297082Y-83387691D01*
X118251475Y-83332120D01*
X118224431Y-83281524D01*
X118121384Y-83088737D01*
X118100538Y-83020017D01*
X118041272Y-82824644D01*
X118014222Y-82550000D01*
X118041272Y-82275356D01*
X118121383Y-82011267D01*
X118121384Y-82011263D01*
X118251474Y-81767882D01*
X118251475Y-81767880D01*
X118324313Y-81679127D01*
X118426550Y-81554550D01*
X118584309Y-81425082D01*
X118639880Y-81379475D01*
X118653798Y-81372036D01*
X118883263Y-81249384D01*
X118951983Y-81228538D01*
X119147356Y-81169272D01*
X119250269Y-81159136D01*
X119353180Y-81149000D01*
X120090820Y-81149000D01*
X120193731Y-81159136D01*
X120193731Y-81159136D01*
G37*
G36*
X56904585Y-80521802D02*
G01*
X57054410Y-80551604D01*
X57336674Y-80668521D01*
X57590705Y-80838259D01*
X57806741Y-81054295D01*
X57976479Y-81308326D01*
X58078468Y-81554551D01*
X58093396Y-81590591D01*
X58147973Y-81864965D01*
X58153000Y-81890240D01*
X58153000Y-82195760D01*
X58093396Y-82495410D01*
X57976479Y-82777674D01*
X57806741Y-83031705D01*
X57590705Y-83247741D01*
X57336674Y-83417479D01*
X57054410Y-83534396D01*
X56904585Y-83564198D01*
X56754761Y-83594000D01*
X56449239Y-83594000D01*
X56299415Y-83564198D01*
X56149590Y-83534396D01*
X55867326Y-83417479D01*
X55613295Y-83247741D01*
X55397259Y-83031705D01*
X55227521Y-82777674D01*
X55110604Y-82495410D01*
X55051000Y-82195760D01*
X55051000Y-81890240D01*
X55056028Y-81864965D01*
X55110604Y-81590591D01*
X55125532Y-81554551D01*
X55227521Y-81308326D01*
X55397259Y-81054295D01*
X55613295Y-80838259D01*
X55867326Y-80668521D01*
X56149590Y-80551604D01*
X56299415Y-80521802D01*
X56449239Y-80492000D01*
X56754761Y-80492000D01*
X56904585Y-80521802D01*
X56904585Y-80521802D01*
G37*
G36*
X82728062Y-81628181D02*
G01*
X82762981Y-81638774D01*
X82795163Y-81655976D01*
X82823373Y-81679127D01*
X82846524Y-81707337D01*
X82863726Y-81739519D01*
X82874319Y-81774438D01*
X82878500Y-81816895D01*
X82878500Y-83283105D01*
X82874319Y-83325562D01*
X82863726Y-83360481D01*
X82846524Y-83392663D01*
X82823373Y-83420873D01*
X82795163Y-83444024D01*
X82762981Y-83461226D01*
X82728062Y-83471819D01*
X82685605Y-83476000D01*
X81544395Y-83476000D01*
X81501938Y-83471819D01*
X81467019Y-83461226D01*
X81434837Y-83444024D01*
X81406627Y-83420873D01*
X81383476Y-83392663D01*
X81366274Y-83360481D01*
X81355681Y-83325562D01*
X81351500Y-83283105D01*
X81351500Y-81816895D01*
X81355681Y-81774438D01*
X81366274Y-81739519D01*
X81383476Y-81707337D01*
X81406627Y-81679127D01*
X81434837Y-81655976D01*
X81467019Y-81638774D01*
X81501938Y-81628181D01*
X81544395Y-81624000D01*
X82685605Y-81624000D01*
X82728062Y-81628181D01*
X82728062Y-81628181D01*
G37*
G36*
X85703062Y-81628181D02*
G01*
X85737981Y-81638774D01*
X85770163Y-81655976D01*
X85798373Y-81679127D01*
X85821524Y-81707337D01*
X85838726Y-81739519D01*
X85849319Y-81774438D01*
X85853500Y-81816895D01*
X85853500Y-83283105D01*
X85849319Y-83325562D01*
X85838726Y-83360481D01*
X85821524Y-83392663D01*
X85798373Y-83420873D01*
X85770163Y-83444024D01*
X85737981Y-83461226D01*
X85703062Y-83471819D01*
X85660605Y-83476000D01*
X84519395Y-83476000D01*
X84476938Y-83471819D01*
X84442019Y-83461226D01*
X84409837Y-83444024D01*
X84381627Y-83420873D01*
X84358476Y-83392663D01*
X84341274Y-83360481D01*
X84330681Y-83325562D01*
X84326500Y-83283105D01*
X84326500Y-81816895D01*
X84330681Y-81774438D01*
X84341274Y-81739519D01*
X84358476Y-81707337D01*
X84381627Y-81679127D01*
X84409837Y-81655976D01*
X84442019Y-81638774D01*
X84476938Y-81628181D01*
X84519395Y-81624000D01*
X85660605Y-81624000D01*
X85703062Y-81628181D01*
X85703062Y-81628181D01*
G37*
G36*
X79515562Y-81790681D02*
G01*
X79550481Y-81801274D01*
X79582663Y-81818476D01*
X79610873Y-81841627D01*
X79634024Y-81869837D01*
X79651226Y-81902019D01*
X79661819Y-81936938D01*
X79666000Y-81979395D01*
X79666000Y-83120605D01*
X79661819Y-83163062D01*
X79651226Y-83197981D01*
X79634024Y-83230163D01*
X79610873Y-83258373D01*
X79582663Y-83281524D01*
X79550481Y-83298726D01*
X79515562Y-83309319D01*
X79473105Y-83313500D01*
X78006895Y-83313500D01*
X77964438Y-83309319D01*
X77929519Y-83298726D01*
X77897337Y-83281524D01*
X77869127Y-83258373D01*
X77845976Y-83230163D01*
X77828774Y-83197981D01*
X77818181Y-83163062D01*
X77814000Y-83120605D01*
X77814000Y-81979395D01*
X77818181Y-81936938D01*
X77828774Y-81902019D01*
X77845976Y-81869837D01*
X77869127Y-81841627D01*
X77897337Y-81818476D01*
X77929519Y-81801274D01*
X77964438Y-81790681D01*
X78006895Y-81786500D01*
X79473105Y-81786500D01*
X79515562Y-81790681D01*
X79515562Y-81790681D01*
G37*
G36*
X74435562Y-81790681D02*
G01*
X74470481Y-81801274D01*
X74502663Y-81818476D01*
X74530873Y-81841627D01*
X74554024Y-81869837D01*
X74571226Y-81902019D01*
X74581819Y-81936938D01*
X74586000Y-81979395D01*
X74586000Y-83120605D01*
X74581819Y-83163062D01*
X74571226Y-83197981D01*
X74554024Y-83230163D01*
X74530873Y-83258373D01*
X74502663Y-83281524D01*
X74470481Y-83298726D01*
X74435562Y-83309319D01*
X74393105Y-83313500D01*
X72926895Y-83313500D01*
X72884438Y-83309319D01*
X72849519Y-83298726D01*
X72817337Y-83281524D01*
X72789127Y-83258373D01*
X72765976Y-83230163D01*
X72748774Y-83197981D01*
X72738181Y-83163062D01*
X72734000Y-83120605D01*
X72734000Y-81979395D01*
X72738181Y-81936938D01*
X72748774Y-81902019D01*
X72765976Y-81869837D01*
X72789127Y-81841627D01*
X72817337Y-81818476D01*
X72849519Y-81801274D01*
X72884438Y-81790681D01*
X72926895Y-81786500D01*
X74393105Y-81786500D01*
X74435562Y-81790681D01*
X74435562Y-81790681D01*
G37*
G36*
X80141000Y-80241000D02*
G01*
X79239000Y-80241000D01*
X79239000Y-79239000D01*
X80141000Y-79239000D01*
X80141000Y-80241000D01*
X80141000Y-80241000D01*
G37*
G36*
X78241000Y-80241000D02*
G01*
X77339000Y-80241000D01*
X77339000Y-79239000D01*
X78241000Y-79239000D01*
X78241000Y-80241000D01*
X78241000Y-80241000D01*
G37*
G36*
X83321000Y-80241000D02*
G01*
X82419000Y-80241000D01*
X82419000Y-79239000D01*
X83321000Y-79239000D01*
X83321000Y-80241000D01*
X83321000Y-80241000D01*
G37*
G36*
X85221000Y-80241000D02*
G01*
X84319000Y-80241000D01*
X84319000Y-79239000D01*
X85221000Y-79239000D01*
X85221000Y-80241000D01*
X85221000Y-80241000D01*
G37*
G36*
X124745562Y-77265681D02*
G01*
X124780481Y-77276274D01*
X124812663Y-77293476D01*
X124840873Y-77316627D01*
X124864024Y-77344837D01*
X124881226Y-77377019D01*
X124891819Y-77411938D01*
X124896000Y-77454395D01*
X124896000Y-78595605D01*
X124891819Y-78638062D01*
X124881226Y-78672981D01*
X124864024Y-78705163D01*
X124840873Y-78733373D01*
X124812663Y-78756524D01*
X124780481Y-78773726D01*
X124745562Y-78784319D01*
X124703105Y-78788500D01*
X123236895Y-78788500D01*
X123194438Y-78784319D01*
X123159519Y-78773726D01*
X123127337Y-78756524D01*
X123099127Y-78733373D01*
X123075976Y-78705163D01*
X123058774Y-78672981D01*
X123048181Y-78638062D01*
X123044000Y-78595605D01*
X123044000Y-77454395D01*
X123048181Y-77411938D01*
X123058774Y-77377019D01*
X123075976Y-77344837D01*
X123099127Y-77316627D01*
X123127337Y-77293476D01*
X123159519Y-77276274D01*
X123194438Y-77265681D01*
X123236895Y-77261500D01*
X124703105Y-77261500D01*
X124745562Y-77265681D01*
X124745562Y-77265681D01*
G37*
G36*
X57533731Y-75952136D02*
G01*
X57636644Y-75962272D01*
X57832017Y-76021538D01*
X57900737Y-76042384D01*
X58080557Y-76138500D01*
X58144120Y-76172475D01*
X58199691Y-76218082D01*
X58357450Y-76347550D01*
X58486918Y-76505309D01*
X58532525Y-76560880D01*
X58532526Y-76560882D01*
X58662616Y-76804263D01*
X58662617Y-76804267D01*
X58742728Y-77068356D01*
X58769778Y-77343000D01*
X58742728Y-77617644D01*
X58734755Y-77643926D01*
X58662616Y-77881737D01*
X58565265Y-78063867D01*
X58532525Y-78125120D01*
X58497513Y-78167782D01*
X58357450Y-78338450D01*
X58228262Y-78444471D01*
X58144120Y-78513525D01*
X58144118Y-78513526D01*
X57900737Y-78643616D01*
X57832017Y-78664462D01*
X57636644Y-78723728D01*
X57538716Y-78733373D01*
X57430820Y-78744000D01*
X56693180Y-78744000D01*
X56585284Y-78733373D01*
X56487356Y-78723728D01*
X56291983Y-78664462D01*
X56223263Y-78643616D01*
X55979882Y-78513526D01*
X55979880Y-78513525D01*
X55895738Y-78444471D01*
X55766550Y-78338450D01*
X55626487Y-78167782D01*
X55591475Y-78125120D01*
X55558735Y-78063867D01*
X55461384Y-77881737D01*
X55389245Y-77643926D01*
X55381272Y-77617644D01*
X55354222Y-77343000D01*
X55381272Y-77068356D01*
X55461383Y-76804267D01*
X55461384Y-76804263D01*
X55591474Y-76560882D01*
X55591475Y-76560880D01*
X55637082Y-76505309D01*
X55766550Y-76347550D01*
X55924309Y-76218082D01*
X55979880Y-76172475D01*
X56043443Y-76138500D01*
X56223263Y-76042384D01*
X56291983Y-76021538D01*
X56487356Y-75962272D01*
X56590269Y-75952136D01*
X56693180Y-75942000D01*
X57430820Y-75942000D01*
X57533731Y-75952136D01*
X57533731Y-75952136D01*
G37*
G36*
X53136031Y-75945621D02*
G01*
X53165486Y-75954556D01*
X53192623Y-75969062D01*
X53216414Y-75988586D01*
X53235938Y-76012377D01*
X53250444Y-76039514D01*
X53259379Y-76068969D01*
X53263000Y-76105734D01*
X53263000Y-78580266D01*
X53259379Y-78617031D01*
X53250444Y-78646486D01*
X53235938Y-78673623D01*
X53216414Y-78697414D01*
X53192623Y-78716938D01*
X53165486Y-78731444D01*
X53136031Y-78740379D01*
X53099266Y-78744000D01*
X50024734Y-78744000D01*
X49987969Y-78740379D01*
X49958514Y-78731444D01*
X49931377Y-78716938D01*
X49907586Y-78697414D01*
X49888062Y-78673623D01*
X49873556Y-78646486D01*
X49864621Y-78617031D01*
X49861000Y-78580266D01*
X49861000Y-76105734D01*
X49864621Y-76068969D01*
X49873556Y-76039514D01*
X49888062Y-76012377D01*
X49907586Y-75988586D01*
X49931377Y-75969062D01*
X49958514Y-75954556D01*
X49987969Y-75945621D01*
X50024734Y-75942000D01*
X53099266Y-75942000D01*
X53136031Y-75945621D01*
X53136031Y-75945621D01*
G37*
G36*
X109203142Y-76942242D02*
G01*
X109351101Y-77003529D01*
X109484255Y-77092499D01*
X109597501Y-77205745D01*
X109686471Y-77338899D01*
X109747758Y-77486858D01*
X109779000Y-77643925D01*
X109779000Y-77804075D01*
X109747758Y-77961142D01*
X109686471Y-78109101D01*
X109597501Y-78242255D01*
X109484255Y-78355501D01*
X109351101Y-78444471D01*
X109203142Y-78505758D01*
X109046075Y-78537000D01*
X108885925Y-78537000D01*
X108728858Y-78505758D01*
X108580899Y-78444471D01*
X108447745Y-78355501D01*
X108334499Y-78242255D01*
X108245529Y-78109101D01*
X108184242Y-77961142D01*
X108153000Y-77804075D01*
X108153000Y-77643925D01*
X108184242Y-77486858D01*
X108245529Y-77338899D01*
X108334499Y-77205745D01*
X108447745Y-77092499D01*
X108580899Y-77003529D01*
X108728858Y-76942242D01*
X108885925Y-76911000D01*
X109046075Y-76911000D01*
X109203142Y-76942242D01*
X109203142Y-76942242D01*
G37*
G36*
X114283142Y-76942242D02*
G01*
X114431101Y-77003529D01*
X114564255Y-77092499D01*
X114677501Y-77205745D01*
X114766471Y-77338899D01*
X114827758Y-77486858D01*
X114859000Y-77643925D01*
X114859000Y-77804075D01*
X114827758Y-77961142D01*
X114766471Y-78109101D01*
X114677501Y-78242255D01*
X114564255Y-78355501D01*
X114431101Y-78444471D01*
X114283142Y-78505758D01*
X114126075Y-78537000D01*
X113965925Y-78537000D01*
X113808858Y-78505758D01*
X113660899Y-78444471D01*
X113527745Y-78355501D01*
X113414499Y-78242255D01*
X113325529Y-78109101D01*
X113264242Y-77961142D01*
X113233000Y-77804075D01*
X113233000Y-77643925D01*
X113264242Y-77486858D01*
X113325529Y-77338899D01*
X113414499Y-77205745D01*
X113527745Y-77092499D01*
X113660899Y-77003529D01*
X113808858Y-76942242D01*
X113965925Y-76911000D01*
X114126075Y-76911000D01*
X114283142Y-76942242D01*
X114283142Y-76942242D01*
G37*
G36*
X111743142Y-76942242D02*
G01*
X111891101Y-77003529D01*
X112024255Y-77092499D01*
X112137501Y-77205745D01*
X112226471Y-77338899D01*
X112287758Y-77486858D01*
X112319000Y-77643925D01*
X112319000Y-77804075D01*
X112287758Y-77961142D01*
X112226471Y-78109101D01*
X112137501Y-78242255D01*
X112024255Y-78355501D01*
X111891101Y-78444471D01*
X111743142Y-78505758D01*
X111586075Y-78537000D01*
X111425925Y-78537000D01*
X111268858Y-78505758D01*
X111120899Y-78444471D01*
X110987745Y-78355501D01*
X110874499Y-78242255D01*
X110785529Y-78109101D01*
X110724242Y-77961142D01*
X110693000Y-77804075D01*
X110693000Y-77643925D01*
X110724242Y-77486858D01*
X110785529Y-77338899D01*
X110874499Y-77205745D01*
X110987745Y-77092499D01*
X111120899Y-77003529D01*
X111268858Y-76942242D01*
X111425925Y-76911000D01*
X111586075Y-76911000D01*
X111743142Y-76942242D01*
X111743142Y-76942242D01*
G37*
G36*
X101583142Y-76942242D02*
G01*
X101731101Y-77003529D01*
X101864255Y-77092499D01*
X101977501Y-77205745D01*
X102066471Y-77338899D01*
X102127758Y-77486858D01*
X102159000Y-77643925D01*
X102159000Y-77804075D01*
X102127758Y-77961142D01*
X102066471Y-78109101D01*
X101977501Y-78242255D01*
X101864255Y-78355501D01*
X101731101Y-78444471D01*
X101583142Y-78505758D01*
X101426075Y-78537000D01*
X101265925Y-78537000D01*
X101108858Y-78505758D01*
X100960899Y-78444471D01*
X100827745Y-78355501D01*
X100714499Y-78242255D01*
X100625529Y-78109101D01*
X100564242Y-77961142D01*
X100533000Y-77804075D01*
X100533000Y-77643925D01*
X100564242Y-77486858D01*
X100625529Y-77338899D01*
X100714499Y-77205745D01*
X100827745Y-77092499D01*
X100960899Y-77003529D01*
X101108858Y-76942242D01*
X101265925Y-76911000D01*
X101426075Y-76911000D01*
X101583142Y-76942242D01*
X101583142Y-76942242D01*
G37*
G36*
X99043142Y-76942242D02*
G01*
X99191101Y-77003529D01*
X99324255Y-77092499D01*
X99437501Y-77205745D01*
X99526471Y-77338899D01*
X99587758Y-77486858D01*
X99619000Y-77643925D01*
X99619000Y-77804075D01*
X99587758Y-77961142D01*
X99526471Y-78109101D01*
X99437501Y-78242255D01*
X99324255Y-78355501D01*
X99191101Y-78444471D01*
X99043142Y-78505758D01*
X98886075Y-78537000D01*
X98725925Y-78537000D01*
X98568858Y-78505758D01*
X98420899Y-78444471D01*
X98287745Y-78355501D01*
X98174499Y-78242255D01*
X98085529Y-78109101D01*
X98024242Y-77961142D01*
X97993000Y-77804075D01*
X97993000Y-77643925D01*
X98024242Y-77486858D01*
X98085529Y-77338899D01*
X98174499Y-77205745D01*
X98287745Y-77092499D01*
X98420899Y-77003529D01*
X98568858Y-76942242D01*
X98725925Y-76911000D01*
X98886075Y-76911000D01*
X99043142Y-76942242D01*
X99043142Y-76942242D01*
G37*
G36*
X96503142Y-76942242D02*
G01*
X96651101Y-77003529D01*
X96784255Y-77092499D01*
X96897501Y-77205745D01*
X96986471Y-77338899D01*
X97047758Y-77486858D01*
X97079000Y-77643925D01*
X97079000Y-77804075D01*
X97047758Y-77961142D01*
X96986471Y-78109101D01*
X96897501Y-78242255D01*
X96784255Y-78355501D01*
X96651101Y-78444471D01*
X96503142Y-78505758D01*
X96346075Y-78537000D01*
X96185925Y-78537000D01*
X96028858Y-78505758D01*
X95880899Y-78444471D01*
X95747745Y-78355501D01*
X95634499Y-78242255D01*
X95545529Y-78109101D01*
X95484242Y-77961142D01*
X95453000Y-77804075D01*
X95453000Y-77643925D01*
X95484242Y-77486858D01*
X95545529Y-77338899D01*
X95634499Y-77205745D01*
X95747745Y-77092499D01*
X95880899Y-77003529D01*
X96028858Y-76942242D01*
X96185925Y-76911000D01*
X96346075Y-76911000D01*
X96503142Y-76942242D01*
X96503142Y-76942242D01*
G37*
G36*
X104123142Y-76942242D02*
G01*
X104271101Y-77003529D01*
X104404255Y-77092499D01*
X104517501Y-77205745D01*
X104606471Y-77338899D01*
X104667758Y-77486858D01*
X104699000Y-77643925D01*
X104699000Y-77804075D01*
X104667758Y-77961142D01*
X104606471Y-78109101D01*
X104517501Y-78242255D01*
X104404255Y-78355501D01*
X104271101Y-78444471D01*
X104123142Y-78505758D01*
X103966075Y-78537000D01*
X103805925Y-78537000D01*
X103648858Y-78505758D01*
X103500899Y-78444471D01*
X103367745Y-78355501D01*
X103254499Y-78242255D01*
X103165529Y-78109101D01*
X103104242Y-77961142D01*
X103073000Y-77804075D01*
X103073000Y-77643925D01*
X103104242Y-77486858D01*
X103165529Y-77338899D01*
X103254499Y-77205745D01*
X103367745Y-77092499D01*
X103500899Y-77003529D01*
X103648858Y-76942242D01*
X103805925Y-76911000D01*
X103966075Y-76911000D01*
X104123142Y-76942242D01*
X104123142Y-76942242D01*
G37*
G36*
X84271000Y-78241000D02*
G01*
X83369000Y-78241000D01*
X83369000Y-77239000D01*
X84271000Y-77239000D01*
X84271000Y-78241000D01*
X84271000Y-78241000D01*
G37*
G36*
X79191000Y-78241000D02*
G01*
X78289000Y-78241000D01*
X78289000Y-77239000D01*
X79191000Y-77239000D01*
X79191000Y-78241000D01*
X79191000Y-78241000D01*
G37*
G36*
X121383674Y-76940965D02*
G01*
X121421367Y-76952399D01*
X121456103Y-76970966D01*
X121486548Y-76995952D01*
X121511534Y-77026397D01*
X121530101Y-77061133D01*
X121541535Y-77098826D01*
X121546000Y-77144161D01*
X121546000Y-77980839D01*
X121541535Y-78026174D01*
X121530101Y-78063867D01*
X121511534Y-78098603D01*
X121486548Y-78129048D01*
X121456103Y-78154034D01*
X121421367Y-78172601D01*
X121383674Y-78184035D01*
X121338339Y-78188500D01*
X120251661Y-78188500D01*
X120206326Y-78184035D01*
X120168633Y-78172601D01*
X120133897Y-78154034D01*
X120103452Y-78129048D01*
X120078466Y-78098603D01*
X120059899Y-78063867D01*
X120048465Y-78026174D01*
X120044000Y-77980839D01*
X120044000Y-77144161D01*
X120048465Y-77098826D01*
X120059899Y-77061133D01*
X120078466Y-77026397D01*
X120103452Y-76995952D01*
X120133897Y-76970966D01*
X120168633Y-76952399D01*
X120206326Y-76940965D01*
X120251661Y-76936500D01*
X121338339Y-76936500D01*
X121383674Y-76940965D01*
X121383674Y-76940965D01*
G37*
G36*
X121383674Y-74890965D02*
G01*
X121421367Y-74902399D01*
X121456103Y-74920966D01*
X121486548Y-74945952D01*
X121511534Y-74976397D01*
X121530101Y-75011133D01*
X121541535Y-75048826D01*
X121546000Y-75094161D01*
X121546000Y-75930839D01*
X121541535Y-75976174D01*
X121530101Y-76013867D01*
X121511534Y-76048603D01*
X121486548Y-76079048D01*
X121456103Y-76104034D01*
X121421367Y-76122601D01*
X121383674Y-76134035D01*
X121338339Y-76138500D01*
X120251661Y-76138500D01*
X120206326Y-76134035D01*
X120168633Y-76122601D01*
X120133897Y-76104034D01*
X120103452Y-76079048D01*
X120078466Y-76048603D01*
X120059899Y-76013867D01*
X120048465Y-75976174D01*
X120044000Y-75930839D01*
X120044000Y-75094161D01*
X120048465Y-75048826D01*
X120059899Y-75011133D01*
X120078466Y-74976397D01*
X120103452Y-74945952D01*
X120133897Y-74920966D01*
X120168633Y-74902399D01*
X120206326Y-74890965D01*
X120251661Y-74886500D01*
X121338339Y-74886500D01*
X121383674Y-74890965D01*
X121383674Y-74890965D01*
G37*
G36*
X124745562Y-74290681D02*
G01*
X124780481Y-74301274D01*
X124812663Y-74318476D01*
X124840873Y-74341627D01*
X124864024Y-74369837D01*
X124881226Y-74402019D01*
X124891819Y-74436938D01*
X124896000Y-74479395D01*
X124896000Y-75620605D01*
X124891819Y-75663062D01*
X124881226Y-75697981D01*
X124864024Y-75730163D01*
X124840873Y-75758373D01*
X124812663Y-75781524D01*
X124780481Y-75798726D01*
X124745562Y-75809319D01*
X124703105Y-75813500D01*
X123236895Y-75813500D01*
X123194438Y-75809319D01*
X123159519Y-75798726D01*
X123127337Y-75781524D01*
X123099127Y-75758373D01*
X123075976Y-75730163D01*
X123058774Y-75697981D01*
X123048181Y-75663062D01*
X123044000Y-75620605D01*
X123044000Y-74479395D01*
X123048181Y-74436938D01*
X123058774Y-74402019D01*
X123075976Y-74369837D01*
X123099127Y-74341627D01*
X123127337Y-74318476D01*
X123159519Y-74301274D01*
X123194438Y-74290681D01*
X123236895Y-74286500D01*
X124703105Y-74286500D01*
X124745562Y-74290681D01*
X124745562Y-74290681D01*
G37*
G36*
X56904585Y-71121802D02*
G01*
X57054410Y-71151604D01*
X57336674Y-71268521D01*
X57590705Y-71438259D01*
X57806741Y-71654295D01*
X57976479Y-71908326D01*
X58093396Y-72190590D01*
X58153000Y-72490240D01*
X58153000Y-72795760D01*
X58093396Y-73095410D01*
X57976479Y-73377674D01*
X57806741Y-73631705D01*
X57590705Y-73847741D01*
X57336674Y-74017479D01*
X57054410Y-74134396D01*
X56904585Y-74164198D01*
X56754761Y-74194000D01*
X56449239Y-74194000D01*
X56299415Y-74164198D01*
X56149590Y-74134396D01*
X55867326Y-74017479D01*
X55613295Y-73847741D01*
X55397259Y-73631705D01*
X55227521Y-73377674D01*
X55110604Y-73095410D01*
X55051000Y-72795760D01*
X55051000Y-72490240D01*
X55110604Y-72190590D01*
X55227521Y-71908326D01*
X55397259Y-71654295D01*
X55613295Y-71438259D01*
X55867326Y-71268521D01*
X56149590Y-71151604D01*
X56299415Y-71121802D01*
X56449239Y-71092000D01*
X56754761Y-71092000D01*
X56904585Y-71121802D01*
X56904585Y-71121802D01*
G37*
G36*
X96826564Y-70744389D02*
G01*
X97017833Y-70823615D01*
X97017835Y-70823616D01*
X97189973Y-70938635D01*
X97336365Y-71085027D01*
X97451385Y-71257167D01*
X97530611Y-71448436D01*
X97571000Y-71651484D01*
X97571000Y-71858516D01*
X97530611Y-72061564D01*
X97477167Y-72190590D01*
X97451384Y-72252835D01*
X97336365Y-72424973D01*
X97189973Y-72571365D01*
X97017835Y-72686384D01*
X97017834Y-72686385D01*
X97017833Y-72686385D01*
X96826564Y-72765611D01*
X96623516Y-72806000D01*
X96416484Y-72806000D01*
X96213436Y-72765611D01*
X96022167Y-72686385D01*
X96022166Y-72686385D01*
X96022165Y-72686384D01*
X95850027Y-72571365D01*
X95703635Y-72424973D01*
X95588616Y-72252835D01*
X95562833Y-72190590D01*
X95509389Y-72061564D01*
X95469000Y-71858516D01*
X95469000Y-71651484D01*
X95509389Y-71448436D01*
X95588615Y-71257167D01*
X95703635Y-71085027D01*
X95850027Y-70938635D01*
X96022165Y-70823616D01*
X96022167Y-70823615D01*
X96213436Y-70744389D01*
X96416484Y-70704000D01*
X96623516Y-70704000D01*
X96826564Y-70744389D01*
X96826564Y-70744389D01*
G37*
G36*
X101906564Y-70744389D02*
G01*
X102097833Y-70823615D01*
X102097835Y-70823616D01*
X102269973Y-70938635D01*
X102416365Y-71085027D01*
X102531385Y-71257167D01*
X102610611Y-71448436D01*
X102651000Y-71651484D01*
X102651000Y-71858516D01*
X102610611Y-72061564D01*
X102557167Y-72190590D01*
X102531384Y-72252835D01*
X102416365Y-72424973D01*
X102269973Y-72571365D01*
X102097835Y-72686384D01*
X102097834Y-72686385D01*
X102097833Y-72686385D01*
X101906564Y-72765611D01*
X101703516Y-72806000D01*
X101496484Y-72806000D01*
X101293436Y-72765611D01*
X101102167Y-72686385D01*
X101102166Y-72686385D01*
X101102165Y-72686384D01*
X100930027Y-72571365D01*
X100783635Y-72424973D01*
X100668616Y-72252835D01*
X100642833Y-72190590D01*
X100589389Y-72061564D01*
X100549000Y-71858516D01*
X100549000Y-71651484D01*
X100589389Y-71448436D01*
X100668615Y-71257167D01*
X100783635Y-71085027D01*
X100930027Y-70938635D01*
X101102165Y-70823616D01*
X101102167Y-70823615D01*
X101293436Y-70744389D01*
X101496484Y-70704000D01*
X101703516Y-70704000D01*
X101906564Y-70744389D01*
X101906564Y-70744389D01*
G37*
G36*
X56904585Y-66297802D02*
G01*
X57054410Y-66327604D01*
X57336674Y-66444521D01*
X57590705Y-66614259D01*
X57806741Y-66830295D01*
X57976479Y-67084326D01*
X58093396Y-67366590D01*
X58153000Y-67666240D01*
X58153000Y-67971760D01*
X58093396Y-68271410D01*
X57976479Y-68553674D01*
X57806741Y-68807705D01*
X57590705Y-69023741D01*
X57336674Y-69193479D01*
X57054410Y-69310396D01*
X56904585Y-69340198D01*
X56754761Y-69370000D01*
X56449239Y-69370000D01*
X56299415Y-69340198D01*
X56149590Y-69310396D01*
X55867326Y-69193479D01*
X55613295Y-69023741D01*
X55397259Y-68807705D01*
X55227521Y-68553674D01*
X55110604Y-68271410D01*
X55051000Y-67971760D01*
X55051000Y-67666240D01*
X55110604Y-67366590D01*
X55227521Y-67084326D01*
X55397259Y-66830295D01*
X55613295Y-66614259D01*
X55867326Y-66444521D01*
X56149590Y-66327604D01*
X56299415Y-66297802D01*
X56449239Y-66268000D01*
X56754761Y-66268000D01*
X56904585Y-66297802D01*
X56904585Y-66297802D01*
G37*
G36*
X73191823Y-65836313D02*
G01*
X73352242Y-65884976D01*
X73484906Y-65955886D01*
X73500078Y-65963996D01*
X73629659Y-66070341D01*
X73736004Y-66199922D01*
X73736005Y-66199924D01*
X73815024Y-66347758D01*
X73863687Y-66508177D01*
X73880117Y-66675000D01*
X73863687Y-66841823D01*
X73815024Y-67002242D01*
X73785488Y-67057500D01*
X73736004Y-67150078D01*
X73629659Y-67279659D01*
X73500078Y-67386004D01*
X73500076Y-67386005D01*
X73352242Y-67465024D01*
X73191823Y-67513687D01*
X73066804Y-67526000D01*
X72983196Y-67526000D01*
X72858177Y-67513687D01*
X72697758Y-67465024D01*
X72549924Y-67386005D01*
X72549922Y-67386004D01*
X72420341Y-67279659D01*
X72313996Y-67150078D01*
X72264512Y-67057500D01*
X72234976Y-67002242D01*
X72186313Y-66841823D01*
X72169883Y-66675000D01*
X72186313Y-66508177D01*
X72234976Y-66347758D01*
X72313995Y-66199924D01*
X72313996Y-66199922D01*
X72420341Y-66070341D01*
X72549922Y-65963996D01*
X72565094Y-65955886D01*
X72697758Y-65884976D01*
X72858177Y-65836313D01*
X72983196Y-65824000D01*
X73066804Y-65824000D01*
X73191823Y-65836313D01*
X73191823Y-65836313D01*
G37*
G36*
X97041562Y-65534681D02*
G01*
X97076481Y-65545274D01*
X97108663Y-65562476D01*
X97136873Y-65585627D01*
X97160024Y-65613837D01*
X97177226Y-65646019D01*
X97187819Y-65680938D01*
X97192000Y-65723395D01*
X97192000Y-66864605D01*
X97187819Y-66907062D01*
X97177226Y-66941981D01*
X97160024Y-66974163D01*
X97136873Y-67002373D01*
X97108663Y-67025524D01*
X97076481Y-67042726D01*
X97041562Y-67053319D01*
X96999105Y-67057500D01*
X95532895Y-67057500D01*
X95490438Y-67053319D01*
X95455519Y-67042726D01*
X95423337Y-67025524D01*
X95395127Y-67002373D01*
X95371976Y-66974163D01*
X95354774Y-66941981D01*
X95344181Y-66907062D01*
X95340000Y-66864605D01*
X95340000Y-65723395D01*
X95344181Y-65680938D01*
X95354774Y-65646019D01*
X95371976Y-65613837D01*
X95395127Y-65585627D01*
X95423337Y-65562476D01*
X95455519Y-65545274D01*
X95490438Y-65534681D01*
X95532895Y-65530500D01*
X96999105Y-65530500D01*
X97041562Y-65534681D01*
X97041562Y-65534681D01*
G37*
G36*
X99902674Y-65418465D02*
G01*
X99940367Y-65429899D01*
X99975103Y-65448466D01*
X100005548Y-65473452D01*
X100030534Y-65503897D01*
X100049101Y-65538633D01*
X100060535Y-65576326D01*
X100065000Y-65621661D01*
X100065000Y-66458339D01*
X100060535Y-66503674D01*
X100049101Y-66541367D01*
X100030534Y-66576103D01*
X100005548Y-66606548D01*
X99975103Y-66631534D01*
X99940367Y-66650101D01*
X99902674Y-66661535D01*
X99857339Y-66666000D01*
X98770661Y-66666000D01*
X98725326Y-66661535D01*
X98687633Y-66650101D01*
X98652897Y-66631534D01*
X98622452Y-66606548D01*
X98597466Y-66576103D01*
X98578899Y-66541367D01*
X98567465Y-66503674D01*
X98563000Y-66458339D01*
X98563000Y-65621661D01*
X98567465Y-65576326D01*
X98578899Y-65538633D01*
X98597466Y-65503897D01*
X98622452Y-65473452D01*
X98652897Y-65448466D01*
X98687633Y-65429899D01*
X98725326Y-65418465D01*
X98770661Y-65414000D01*
X99857339Y-65414000D01*
X99902674Y-65418465D01*
X99902674Y-65418465D01*
G37*
G36*
X81586564Y-62997389D02*
G01*
X81777833Y-63076615D01*
X81777835Y-63076616D01*
X81949973Y-63191635D01*
X82096365Y-63338027D01*
X82197799Y-63489833D01*
X82211385Y-63510167D01*
X82290611Y-63701436D01*
X82331000Y-63904484D01*
X82331000Y-64111516D01*
X82290611Y-64314564D01*
X82245908Y-64422486D01*
X82211384Y-64505835D01*
X82096365Y-64677973D01*
X81949973Y-64824365D01*
X81777835Y-64939384D01*
X81777834Y-64939385D01*
X81777833Y-64939385D01*
X81586564Y-65018611D01*
X81383516Y-65059000D01*
X81176484Y-65059000D01*
X80973436Y-65018611D01*
X80782167Y-64939385D01*
X80782166Y-64939385D01*
X80782165Y-64939384D01*
X80610027Y-64824365D01*
X80463635Y-64677973D01*
X80348616Y-64505835D01*
X80314092Y-64422486D01*
X80269389Y-64314564D01*
X80229000Y-64111516D01*
X80229000Y-63904484D01*
X80269389Y-63701436D01*
X80348615Y-63510167D01*
X80362202Y-63489833D01*
X80463635Y-63338027D01*
X80610027Y-63191635D01*
X80782165Y-63076616D01*
X80782167Y-63076615D01*
X80973436Y-62997389D01*
X81176484Y-62957000D01*
X81383516Y-62957000D01*
X81586564Y-62997389D01*
X81586564Y-62997389D01*
G37*
G36*
X99902674Y-63368465D02*
G01*
X99940367Y-63379899D01*
X99975103Y-63398466D01*
X100005548Y-63423452D01*
X100030534Y-63453897D01*
X100049101Y-63488633D01*
X100060535Y-63526326D01*
X100065000Y-63571661D01*
X100065000Y-64408339D01*
X100060535Y-64453674D01*
X100049101Y-64491367D01*
X100030534Y-64526103D01*
X100005548Y-64556548D01*
X99975103Y-64581534D01*
X99940367Y-64600101D01*
X99902674Y-64611535D01*
X99857339Y-64616000D01*
X98770661Y-64616000D01*
X98725326Y-64611535D01*
X98687633Y-64600101D01*
X98652897Y-64581534D01*
X98622452Y-64556548D01*
X98597466Y-64526103D01*
X98578899Y-64491367D01*
X98567465Y-64453674D01*
X98563000Y-64408339D01*
X98563000Y-63571661D01*
X98567465Y-63526326D01*
X98578899Y-63488633D01*
X98597466Y-63453897D01*
X98622452Y-63423452D01*
X98652897Y-63398466D01*
X98687633Y-63379899D01*
X98725326Y-63368465D01*
X98770661Y-63364000D01*
X99857339Y-63364000D01*
X99902674Y-63368465D01*
X99902674Y-63368465D01*
G37*
G36*
X57533731Y-61728136D02*
G01*
X57636644Y-61738272D01*
X57832017Y-61797538D01*
X57900737Y-61818384D01*
X58103625Y-61926830D01*
X58144120Y-61948475D01*
X58184227Y-61981390D01*
X58357450Y-62123550D01*
X58486918Y-62281309D01*
X58532525Y-62336880D01*
X58532526Y-62336882D01*
X58662616Y-62580263D01*
X58662617Y-62580267D01*
X58742728Y-62844356D01*
X58769778Y-63119000D01*
X58742728Y-63393644D01*
X58707381Y-63510167D01*
X58662616Y-63657737D01*
X58578768Y-63814605D01*
X58532525Y-63901120D01*
X58514253Y-63923384D01*
X58357450Y-64114450D01*
X58199691Y-64243918D01*
X58144120Y-64289525D01*
X58144118Y-64289526D01*
X57900737Y-64419616D01*
X57832017Y-64440462D01*
X57636644Y-64499728D01*
X57533731Y-64509864D01*
X57430820Y-64520000D01*
X56693180Y-64520000D01*
X56590269Y-64509864D01*
X56487356Y-64499728D01*
X56291983Y-64440462D01*
X56223263Y-64419616D01*
X55979882Y-64289526D01*
X55979880Y-64289525D01*
X55924309Y-64243918D01*
X55766550Y-64114450D01*
X55609747Y-63923384D01*
X55591475Y-63901120D01*
X55545232Y-63814605D01*
X55461384Y-63657737D01*
X55416619Y-63510167D01*
X55381272Y-63393644D01*
X55354222Y-63119000D01*
X55381272Y-62844356D01*
X55461383Y-62580267D01*
X55461384Y-62580263D01*
X55591474Y-62336882D01*
X55591475Y-62336880D01*
X55637082Y-62281309D01*
X55766550Y-62123550D01*
X55939773Y-61981390D01*
X55979880Y-61948475D01*
X56020375Y-61926830D01*
X56223263Y-61818384D01*
X56291983Y-61797538D01*
X56487356Y-61738272D01*
X56590269Y-61728136D01*
X56693180Y-61718000D01*
X57430820Y-61718000D01*
X57533731Y-61728136D01*
X57533731Y-61728136D01*
G37*
G36*
X53136031Y-61721621D02*
G01*
X53165486Y-61730556D01*
X53192623Y-61745062D01*
X53216414Y-61764586D01*
X53235938Y-61788377D01*
X53250444Y-61815514D01*
X53259379Y-61844969D01*
X53263000Y-61881734D01*
X53263000Y-64356266D01*
X53259379Y-64393031D01*
X53250444Y-64422486D01*
X53235938Y-64449623D01*
X53216414Y-64473414D01*
X53192623Y-64492938D01*
X53165486Y-64507444D01*
X53136031Y-64516379D01*
X53099266Y-64520000D01*
X50024734Y-64520000D01*
X49987969Y-64516379D01*
X49958514Y-64507444D01*
X49931377Y-64492938D01*
X49907586Y-64473414D01*
X49888062Y-64449623D01*
X49873556Y-64422486D01*
X49864621Y-64393031D01*
X49861000Y-64356266D01*
X49861000Y-61881734D01*
X49864621Y-61844969D01*
X49873556Y-61815514D01*
X49888062Y-61788377D01*
X49907586Y-61764586D01*
X49931377Y-61745062D01*
X49958514Y-61730556D01*
X49987969Y-61721621D01*
X50024734Y-61718000D01*
X53099266Y-61718000D01*
X53136031Y-61721621D01*
X53136031Y-61721621D01*
G37*
G36*
X97041562Y-62559681D02*
G01*
X97076481Y-62570274D01*
X97108663Y-62587476D01*
X97136873Y-62610627D01*
X97160024Y-62638837D01*
X97177226Y-62671019D01*
X97187819Y-62705938D01*
X97192000Y-62748395D01*
X97192000Y-63889605D01*
X97187819Y-63932062D01*
X97177226Y-63966981D01*
X97160024Y-63999163D01*
X97136873Y-64027373D01*
X97108663Y-64050524D01*
X97076481Y-64067726D01*
X97041562Y-64078319D01*
X96999105Y-64082500D01*
X95532895Y-64082500D01*
X95490438Y-64078319D01*
X95455519Y-64067726D01*
X95423337Y-64050524D01*
X95395127Y-64027373D01*
X95371976Y-63999163D01*
X95354774Y-63966981D01*
X95344181Y-63932062D01*
X95340000Y-63889605D01*
X95340000Y-62748395D01*
X95344181Y-62705938D01*
X95354774Y-62671019D01*
X95371976Y-62638837D01*
X95395127Y-62610627D01*
X95423337Y-62587476D01*
X95455519Y-62570274D01*
X95490438Y-62559681D01*
X95532895Y-62555500D01*
X96999105Y-62555500D01*
X97041562Y-62559681D01*
X97041562Y-62559681D01*
G37*
G36*
X87174564Y-61981389D02*
G01*
X87365833Y-62060615D01*
X87365835Y-62060616D01*
X87460022Y-62123550D01*
X87537973Y-62175635D01*
X87684365Y-62322027D01*
X87799385Y-62494167D01*
X87878611Y-62685436D01*
X87919000Y-62888484D01*
X87919000Y-63095516D01*
X87878611Y-63298564D01*
X87799882Y-63488633D01*
X87799384Y-63489835D01*
X87684365Y-63661973D01*
X87537973Y-63808365D01*
X87365835Y-63923384D01*
X87365834Y-63923385D01*
X87365833Y-63923385D01*
X87174564Y-64002611D01*
X86971516Y-64043000D01*
X86764484Y-64043000D01*
X86561436Y-64002611D01*
X86370167Y-63923385D01*
X86370166Y-63923385D01*
X86370165Y-63923384D01*
X86198027Y-63808365D01*
X86051635Y-63661973D01*
X85936616Y-63489835D01*
X85936118Y-63488633D01*
X85857389Y-63298564D01*
X85817000Y-63095516D01*
X85817000Y-62888484D01*
X85857389Y-62685436D01*
X85936615Y-62494167D01*
X86051635Y-62322027D01*
X86198027Y-62175635D01*
X86275978Y-62123550D01*
X86370165Y-62060616D01*
X86370167Y-62060615D01*
X86561436Y-61981389D01*
X86764484Y-61941000D01*
X86971516Y-61941000D01*
X87174564Y-61981389D01*
X87174564Y-61981389D01*
G37*
G36*
X82147062Y-58768181D02*
G01*
X82181981Y-58778774D01*
X82214163Y-58795976D01*
X82242373Y-58819127D01*
X82265524Y-58847337D01*
X82282726Y-58879519D01*
X82293319Y-58914438D01*
X82297500Y-58956895D01*
X82297500Y-60423105D01*
X82293319Y-60465562D01*
X82282726Y-60500481D01*
X82265524Y-60532663D01*
X82242373Y-60560873D01*
X82214163Y-60584024D01*
X82181981Y-60601226D01*
X82147062Y-60611819D01*
X82104605Y-60616000D01*
X80963395Y-60616000D01*
X80920938Y-60611819D01*
X80886019Y-60601226D01*
X80853837Y-60584024D01*
X80825627Y-60560873D01*
X80802476Y-60532663D01*
X80785274Y-60500481D01*
X80774681Y-60465562D01*
X80770500Y-60423105D01*
X80770500Y-58956895D01*
X80774681Y-58914438D01*
X80785274Y-58879519D01*
X80802476Y-58847337D01*
X80825627Y-58819127D01*
X80853837Y-58795976D01*
X80886019Y-58778774D01*
X80920938Y-58768181D01*
X80963395Y-58764000D01*
X82104605Y-58764000D01*
X82147062Y-58768181D01*
X82147062Y-58768181D01*
G37*
G36*
X79172062Y-58768181D02*
G01*
X79206981Y-58778774D01*
X79239163Y-58795976D01*
X79267373Y-58819127D01*
X79290524Y-58847337D01*
X79307726Y-58879519D01*
X79318319Y-58914438D01*
X79322500Y-58956895D01*
X79322500Y-60423105D01*
X79318319Y-60465562D01*
X79307726Y-60500481D01*
X79290524Y-60532663D01*
X79267373Y-60560873D01*
X79239163Y-60584024D01*
X79206981Y-60601226D01*
X79172062Y-60611819D01*
X79129605Y-60616000D01*
X77988395Y-60616000D01*
X77945938Y-60611819D01*
X77911019Y-60601226D01*
X77878837Y-60584024D01*
X77850627Y-60560873D01*
X77827476Y-60532663D01*
X77810274Y-60500481D01*
X77799681Y-60465562D01*
X77795500Y-60423105D01*
X77795500Y-58956895D01*
X77799681Y-58914438D01*
X77810274Y-58879519D01*
X77827476Y-58847337D01*
X77850627Y-58819127D01*
X77878837Y-58795976D01*
X77911019Y-58778774D01*
X77945938Y-58768181D01*
X77988395Y-58764000D01*
X79129605Y-58764000D01*
X79172062Y-58768181D01*
X79172062Y-58768181D01*
G37*
G36*
X108816000Y-60456000D02*
G01*
X107814000Y-60456000D01*
X107814000Y-59554000D01*
X108816000Y-59554000D01*
X108816000Y-60456000D01*
X108816000Y-60456000D01*
G37*
G36*
X94784928Y-59341764D02*
G01*
X94806009Y-59348160D01*
X94825445Y-59358548D01*
X94842476Y-59372524D01*
X94856452Y-59389555D01*
X94866840Y-59408991D01*
X94873236Y-59430072D01*
X94876000Y-59458140D01*
X94876000Y-59921860D01*
X94873236Y-59949928D01*
X94866840Y-59971009D01*
X94856452Y-59990445D01*
X94842476Y-60007476D01*
X94825445Y-60021452D01*
X94806009Y-60031840D01*
X94784928Y-60038236D01*
X94756860Y-60041000D01*
X92943140Y-60041000D01*
X92915072Y-60038236D01*
X92893991Y-60031840D01*
X92874555Y-60021452D01*
X92857524Y-60007476D01*
X92843548Y-59990445D01*
X92833160Y-59971009D01*
X92826764Y-59949928D01*
X92824000Y-59921860D01*
X92824000Y-59458140D01*
X92826764Y-59430072D01*
X92833160Y-59408991D01*
X92843548Y-59389555D01*
X92857524Y-59372524D01*
X92874555Y-59358548D01*
X92893991Y-59348160D01*
X92915072Y-59341764D01*
X92943140Y-59339000D01*
X94756860Y-59339000D01*
X94784928Y-59341764D01*
X94784928Y-59341764D01*
G37*
G36*
X89834928Y-59341764D02*
G01*
X89856009Y-59348160D01*
X89875445Y-59358548D01*
X89892476Y-59372524D01*
X89906452Y-59389555D01*
X89916840Y-59408991D01*
X89923236Y-59430072D01*
X89926000Y-59458140D01*
X89926000Y-59921860D01*
X89923236Y-59949928D01*
X89916840Y-59971009D01*
X89906452Y-59990445D01*
X89892476Y-60007476D01*
X89875445Y-60021452D01*
X89856009Y-60031840D01*
X89834928Y-60038236D01*
X89806860Y-60041000D01*
X87993140Y-60041000D01*
X87965072Y-60038236D01*
X87943991Y-60031840D01*
X87924555Y-60021452D01*
X87907524Y-60007476D01*
X87893548Y-59990445D01*
X87883160Y-59971009D01*
X87876764Y-59949928D01*
X87874000Y-59921860D01*
X87874000Y-59458140D01*
X87876764Y-59430072D01*
X87883160Y-59408991D01*
X87893548Y-59389555D01*
X87907524Y-59372524D01*
X87924555Y-59358548D01*
X87943991Y-59348160D01*
X87965072Y-59341764D01*
X87993140Y-59339000D01*
X89806860Y-59339000D01*
X89834928Y-59341764D01*
X89834928Y-59341764D01*
G37*
G36*
X56865724Y-56890072D02*
G01*
X57054410Y-56927604D01*
X57336674Y-57044521D01*
X57590705Y-57214259D01*
X57806741Y-57430295D01*
X57976479Y-57684326D01*
X58075918Y-57924395D01*
X58093396Y-57966591D01*
X58153000Y-58266239D01*
X58153000Y-58571761D01*
X58129203Y-58691397D01*
X58093396Y-58871410D01*
X57976479Y-59153674D01*
X57806741Y-59407705D01*
X57590705Y-59623741D01*
X57336674Y-59793479D01*
X57054410Y-59910396D01*
X56996776Y-59921860D01*
X56754761Y-59970000D01*
X56449239Y-59970000D01*
X56207224Y-59921860D01*
X56149590Y-59910396D01*
X55867326Y-59793479D01*
X55613295Y-59623741D01*
X55397259Y-59407705D01*
X55227521Y-59153674D01*
X55110604Y-58871410D01*
X55074797Y-58691397D01*
X55051000Y-58571761D01*
X55051000Y-58266239D01*
X55110604Y-57966591D01*
X55128082Y-57924395D01*
X55227521Y-57684326D01*
X55397259Y-57430295D01*
X55613295Y-57214259D01*
X55867326Y-57044521D01*
X56149590Y-56927604D01*
X56338276Y-56890072D01*
X56449239Y-56868000D01*
X56754761Y-56868000D01*
X56865724Y-56890072D01*
X56865724Y-56890072D01*
G37*
G36*
X73876000Y-59906000D02*
G01*
X72174000Y-59906000D01*
X72174000Y-58204000D01*
X73876000Y-58204000D01*
X73876000Y-59906000D01*
X73876000Y-59906000D01*
G37*
G36*
X84408674Y-58605965D02*
G01*
X84446367Y-58617399D01*
X84481103Y-58635966D01*
X84511548Y-58660952D01*
X84536534Y-58691397D01*
X84555101Y-58726133D01*
X84566535Y-58763826D01*
X84571000Y-58809161D01*
X84571000Y-59645839D01*
X84566535Y-59691174D01*
X84555101Y-59728867D01*
X84536534Y-59763603D01*
X84511548Y-59794048D01*
X84481103Y-59819034D01*
X84446367Y-59837601D01*
X84408674Y-59849035D01*
X84363339Y-59853500D01*
X83276661Y-59853500D01*
X83231326Y-59849035D01*
X83193633Y-59837601D01*
X83158897Y-59819034D01*
X83128452Y-59794048D01*
X83103466Y-59763603D01*
X83084899Y-59728867D01*
X83073465Y-59691174D01*
X83069000Y-59645839D01*
X83069000Y-58809161D01*
X83073465Y-58763826D01*
X83084899Y-58726133D01*
X83103466Y-58691397D01*
X83128452Y-58660952D01*
X83158897Y-58635966D01*
X83193633Y-58617399D01*
X83231326Y-58605965D01*
X83276661Y-58601500D01*
X84363339Y-58601500D01*
X84408674Y-58605965D01*
X84408674Y-58605965D01*
G37*
G36*
X106816000Y-59506000D02*
G01*
X105814000Y-59506000D01*
X105814000Y-58604000D01*
X106816000Y-58604000D01*
X106816000Y-59506000D01*
X106816000Y-59506000D01*
G37*
G36*
X98819562Y-57660681D02*
G01*
X98854481Y-57671274D01*
X98886663Y-57688476D01*
X98914873Y-57711627D01*
X98938024Y-57739837D01*
X98955226Y-57772019D01*
X98965819Y-57806938D01*
X98970000Y-57849395D01*
X98970000Y-58990605D01*
X98965819Y-59033062D01*
X98955226Y-59067981D01*
X98938024Y-59100163D01*
X98914873Y-59128373D01*
X98886663Y-59151524D01*
X98854481Y-59168726D01*
X98819562Y-59179319D01*
X98777105Y-59183500D01*
X97310895Y-59183500D01*
X97268438Y-59179319D01*
X97233519Y-59168726D01*
X97201337Y-59151524D01*
X97173127Y-59128373D01*
X97149976Y-59100163D01*
X97132774Y-59067981D01*
X97122181Y-59033062D01*
X97118000Y-58990605D01*
X97118000Y-57849395D01*
X97122181Y-57806938D01*
X97132774Y-57772019D01*
X97149976Y-57739837D01*
X97173127Y-57711627D01*
X97201337Y-57688476D01*
X97233519Y-57671274D01*
X97268438Y-57660681D01*
X97310895Y-57656500D01*
X98777105Y-57656500D01*
X98819562Y-57660681D01*
X98819562Y-57660681D01*
G37*
G36*
X94784928Y-58071764D02*
G01*
X94806009Y-58078160D01*
X94825445Y-58088548D01*
X94842476Y-58102524D01*
X94856452Y-58119555D01*
X94866840Y-58138991D01*
X94873236Y-58160072D01*
X94876000Y-58188140D01*
X94876000Y-58651860D01*
X94873236Y-58679928D01*
X94866840Y-58701009D01*
X94856452Y-58720445D01*
X94842476Y-58737476D01*
X94825445Y-58751452D01*
X94806009Y-58761840D01*
X94784928Y-58768236D01*
X94756860Y-58771000D01*
X92943140Y-58771000D01*
X92915072Y-58768236D01*
X92893991Y-58761840D01*
X92874555Y-58751452D01*
X92857524Y-58737476D01*
X92843548Y-58720445D01*
X92833160Y-58701009D01*
X92826764Y-58679928D01*
X92824000Y-58651860D01*
X92824000Y-58188140D01*
X92826764Y-58160072D01*
X92833160Y-58138991D01*
X92843548Y-58119555D01*
X92857524Y-58102524D01*
X92874555Y-58088548D01*
X92893991Y-58078160D01*
X92915072Y-58071764D01*
X92943140Y-58069000D01*
X94756860Y-58069000D01*
X94784928Y-58071764D01*
X94784928Y-58071764D01*
G37*
G36*
X89834928Y-58071764D02*
G01*
X89856009Y-58078160D01*
X89875445Y-58088548D01*
X89892476Y-58102524D01*
X89906452Y-58119555D01*
X89916840Y-58138991D01*
X89923236Y-58160072D01*
X89926000Y-58188140D01*
X89926000Y-58651860D01*
X89923236Y-58679928D01*
X89916840Y-58701009D01*
X89906452Y-58720445D01*
X89892476Y-58737476D01*
X89875445Y-58751452D01*
X89856009Y-58761840D01*
X89834928Y-58768236D01*
X89806860Y-58771000D01*
X87993140Y-58771000D01*
X87965072Y-58768236D01*
X87943991Y-58761840D01*
X87924555Y-58751452D01*
X87907524Y-58737476D01*
X87893548Y-58720445D01*
X87883160Y-58701009D01*
X87876764Y-58679928D01*
X87874000Y-58651860D01*
X87874000Y-58188140D01*
X87876764Y-58160072D01*
X87883160Y-58138991D01*
X87893548Y-58119555D01*
X87907524Y-58102524D01*
X87924555Y-58088548D01*
X87943991Y-58078160D01*
X87965072Y-58071764D01*
X87993140Y-58069000D01*
X89806860Y-58069000D01*
X89834928Y-58071764D01*
X89834928Y-58071764D01*
G37*
G36*
X108816000Y-58556000D02*
G01*
X107814000Y-58556000D01*
X107814000Y-57654000D01*
X108816000Y-57654000D01*
X108816000Y-58556000D01*
X108816000Y-58556000D01*
G37*
G36*
X82147062Y-55974181D02*
G01*
X82181981Y-55984774D01*
X82214163Y-56001976D01*
X82242373Y-56025127D01*
X82265524Y-56053337D01*
X82282726Y-56085519D01*
X82293319Y-56120438D01*
X82297500Y-56162895D01*
X82297500Y-57629105D01*
X82293319Y-57671562D01*
X82282726Y-57706481D01*
X82265524Y-57738663D01*
X82242373Y-57766873D01*
X82214163Y-57790024D01*
X82181981Y-57807226D01*
X82147062Y-57817819D01*
X82104605Y-57822000D01*
X80963395Y-57822000D01*
X80920938Y-57817819D01*
X80886019Y-57807226D01*
X80853837Y-57790024D01*
X80825627Y-57766873D01*
X80802476Y-57738663D01*
X80785274Y-57706481D01*
X80774681Y-57671562D01*
X80770500Y-57629105D01*
X80770500Y-56162895D01*
X80774681Y-56120438D01*
X80785274Y-56085519D01*
X80802476Y-56053337D01*
X80825627Y-56025127D01*
X80853837Y-56001976D01*
X80886019Y-55984774D01*
X80920938Y-55974181D01*
X80963395Y-55970000D01*
X82104605Y-55970000D01*
X82147062Y-55974181D01*
X82147062Y-55974181D01*
G37*
G36*
X79172062Y-55974181D02*
G01*
X79206981Y-55984774D01*
X79239163Y-56001976D01*
X79267373Y-56025127D01*
X79290524Y-56053337D01*
X79307726Y-56085519D01*
X79318319Y-56120438D01*
X79322500Y-56162895D01*
X79322500Y-57629105D01*
X79318319Y-57671562D01*
X79307726Y-57706481D01*
X79290524Y-57738663D01*
X79267373Y-57766873D01*
X79239163Y-57790024D01*
X79206981Y-57807226D01*
X79172062Y-57817819D01*
X79129605Y-57822000D01*
X77988395Y-57822000D01*
X77945938Y-57817819D01*
X77911019Y-57807226D01*
X77878837Y-57790024D01*
X77850627Y-57766873D01*
X77827476Y-57738663D01*
X77810274Y-57706481D01*
X77799681Y-57671562D01*
X77795500Y-57629105D01*
X77795500Y-56162895D01*
X77799681Y-56120438D01*
X77810274Y-56085519D01*
X77827476Y-56053337D01*
X77850627Y-56025127D01*
X77878837Y-56001976D01*
X77911019Y-55984774D01*
X77945938Y-55974181D01*
X77988395Y-55970000D01*
X79129605Y-55970000D01*
X79172062Y-55974181D01*
X79172062Y-55974181D01*
G37*
G36*
X84408674Y-56555965D02*
G01*
X84446367Y-56567399D01*
X84481103Y-56585966D01*
X84511548Y-56610952D01*
X84536534Y-56641397D01*
X84555101Y-56676133D01*
X84566535Y-56713826D01*
X84571000Y-56759161D01*
X84571000Y-57595839D01*
X84566535Y-57641174D01*
X84555101Y-57678867D01*
X84536534Y-57713603D01*
X84511548Y-57744048D01*
X84481103Y-57769034D01*
X84446367Y-57787601D01*
X84408674Y-57799035D01*
X84363339Y-57803500D01*
X83276661Y-57803500D01*
X83231326Y-57799035D01*
X83193633Y-57787601D01*
X83158897Y-57769034D01*
X83128452Y-57744048D01*
X83103466Y-57713603D01*
X83084899Y-57678867D01*
X83073465Y-57641174D01*
X83069000Y-57595839D01*
X83069000Y-56759161D01*
X83073465Y-56713826D01*
X83084899Y-56676133D01*
X83103466Y-56641397D01*
X83128452Y-56610952D01*
X83158897Y-56585966D01*
X83193633Y-56567399D01*
X83231326Y-56555965D01*
X83276661Y-56551500D01*
X84363339Y-56551500D01*
X84408674Y-56555965D01*
X84408674Y-56555965D01*
G37*
G36*
X94784928Y-56801764D02*
G01*
X94806009Y-56808160D01*
X94825445Y-56818548D01*
X94842476Y-56832524D01*
X94856452Y-56849555D01*
X94866840Y-56868991D01*
X94873236Y-56890072D01*
X94876000Y-56918140D01*
X94876000Y-57381860D01*
X94873236Y-57409928D01*
X94866840Y-57431009D01*
X94856452Y-57450445D01*
X94842476Y-57467476D01*
X94825445Y-57481452D01*
X94806009Y-57491840D01*
X94784928Y-57498236D01*
X94756860Y-57501000D01*
X92943140Y-57501000D01*
X92915072Y-57498236D01*
X92893991Y-57491840D01*
X92874555Y-57481452D01*
X92857524Y-57467476D01*
X92843548Y-57450445D01*
X92833160Y-57431009D01*
X92826764Y-57409928D01*
X92824000Y-57381860D01*
X92824000Y-56918140D01*
X92826764Y-56890072D01*
X92833160Y-56868991D01*
X92843548Y-56849555D01*
X92857524Y-56832524D01*
X92874555Y-56818548D01*
X92893991Y-56808160D01*
X92915072Y-56801764D01*
X92943140Y-56799000D01*
X94756860Y-56799000D01*
X94784928Y-56801764D01*
X94784928Y-56801764D01*
G37*
G36*
X89834928Y-56801764D02*
G01*
X89856009Y-56808160D01*
X89875445Y-56818548D01*
X89892476Y-56832524D01*
X89906452Y-56849555D01*
X89916840Y-56868991D01*
X89923236Y-56890072D01*
X89926000Y-56918140D01*
X89926000Y-57381860D01*
X89923236Y-57409928D01*
X89916840Y-57431009D01*
X89906452Y-57450445D01*
X89892476Y-57467476D01*
X89875445Y-57481452D01*
X89856009Y-57491840D01*
X89834928Y-57498236D01*
X89806860Y-57501000D01*
X87993140Y-57501000D01*
X87965072Y-57498236D01*
X87943991Y-57491840D01*
X87924555Y-57481452D01*
X87907524Y-57467476D01*
X87893548Y-57450445D01*
X87883160Y-57431009D01*
X87876764Y-57409928D01*
X87874000Y-57381860D01*
X87874000Y-56918140D01*
X87876764Y-56890072D01*
X87883160Y-56868991D01*
X87893548Y-56849555D01*
X87907524Y-56832524D01*
X87924555Y-56818548D01*
X87943991Y-56808160D01*
X87965072Y-56801764D01*
X87993140Y-56799000D01*
X89806860Y-56799000D01*
X89834928Y-56801764D01*
X89834928Y-56801764D01*
G37*
G36*
X94784928Y-55531764D02*
G01*
X94806009Y-55538160D01*
X94825445Y-55548548D01*
X94842476Y-55562524D01*
X94856452Y-55579555D01*
X94866840Y-55598991D01*
X94873236Y-55620072D01*
X94876000Y-55648140D01*
X94876000Y-56111860D01*
X94873236Y-56139928D01*
X94866840Y-56161009D01*
X94856452Y-56180445D01*
X94842476Y-56197476D01*
X94825445Y-56211452D01*
X94806009Y-56221840D01*
X94784928Y-56228236D01*
X94756860Y-56231000D01*
X92943140Y-56231000D01*
X92915072Y-56228236D01*
X92893991Y-56221840D01*
X92874555Y-56211452D01*
X92857524Y-56197476D01*
X92843548Y-56180445D01*
X92833160Y-56161009D01*
X92826764Y-56139928D01*
X92824000Y-56111860D01*
X92824000Y-55648140D01*
X92826764Y-55620072D01*
X92833160Y-55598991D01*
X92843548Y-55579555D01*
X92857524Y-55562524D01*
X92874555Y-55548548D01*
X92893991Y-55538160D01*
X92915072Y-55531764D01*
X92943140Y-55529000D01*
X94756860Y-55529000D01*
X94784928Y-55531764D01*
X94784928Y-55531764D01*
G37*
G36*
X89834928Y-55531764D02*
G01*
X89856009Y-55538160D01*
X89875445Y-55548548D01*
X89892476Y-55562524D01*
X89906452Y-55579555D01*
X89916840Y-55598991D01*
X89923236Y-55620072D01*
X89926000Y-55648140D01*
X89926000Y-56111860D01*
X89923236Y-56139928D01*
X89916840Y-56161009D01*
X89906452Y-56180445D01*
X89892476Y-56197476D01*
X89875445Y-56211452D01*
X89856009Y-56221840D01*
X89834928Y-56228236D01*
X89806860Y-56231000D01*
X87993140Y-56231000D01*
X87965072Y-56228236D01*
X87943991Y-56221840D01*
X87924555Y-56211452D01*
X87907524Y-56197476D01*
X87893548Y-56180445D01*
X87883160Y-56161009D01*
X87876764Y-56139928D01*
X87874000Y-56111860D01*
X87874000Y-55648140D01*
X87876764Y-55620072D01*
X87883160Y-55598991D01*
X87893548Y-55579555D01*
X87907524Y-55562524D01*
X87924555Y-55548548D01*
X87943991Y-55538160D01*
X87965072Y-55531764D01*
X87993140Y-55529000D01*
X89806860Y-55529000D01*
X89834928Y-55531764D01*
X89834928Y-55531764D01*
G37*
G36*
X98819562Y-54685681D02*
G01*
X98854481Y-54696274D01*
X98886663Y-54713476D01*
X98914873Y-54736627D01*
X98938024Y-54764837D01*
X98955226Y-54797019D01*
X98965819Y-54831938D01*
X98970000Y-54874395D01*
X98970000Y-56015605D01*
X98965819Y-56058062D01*
X98955226Y-56092981D01*
X98938024Y-56125163D01*
X98914873Y-56153373D01*
X98886663Y-56176524D01*
X98854481Y-56193726D01*
X98819562Y-56204319D01*
X98777105Y-56208500D01*
X97310895Y-56208500D01*
X97268438Y-56204319D01*
X97233519Y-56193726D01*
X97201337Y-56176524D01*
X97173127Y-56153373D01*
X97149976Y-56125163D01*
X97132774Y-56092981D01*
X97122181Y-56058062D01*
X97118000Y-56015605D01*
X97118000Y-54874395D01*
X97122181Y-54831938D01*
X97132774Y-54797019D01*
X97149976Y-54764837D01*
X97173127Y-54736627D01*
X97201337Y-54713476D01*
X97233519Y-54696274D01*
X97268438Y-54685681D01*
X97310895Y-54681500D01*
X98777105Y-54681500D01*
X98819562Y-54685681D01*
X98819562Y-54685681D01*
G37*
G36*
X114156000Y-55561000D02*
G01*
X110554000Y-55561000D01*
X110554000Y-53659000D01*
X114156000Y-53659000D01*
X114156000Y-55561000D01*
X114156000Y-55561000D01*
G37*
G36*
X109156000Y-55561000D02*
G01*
X105554000Y-55561000D01*
X105554000Y-53659000D01*
X109156000Y-53659000D01*
X109156000Y-55561000D01*
X109156000Y-55561000D01*
G37*
G36*
X84380564Y-52075389D02*
G01*
X84492202Y-52121631D01*
X84571835Y-52154616D01*
X84600688Y-52173895D01*
X84743973Y-52269635D01*
X84890365Y-52416027D01*
X85005385Y-52588167D01*
X85084611Y-52779436D01*
X85125000Y-52982484D01*
X85125000Y-53189516D01*
X85084611Y-53392564D01*
X85044208Y-53490105D01*
X85005384Y-53583835D01*
X84890365Y-53755973D01*
X84743973Y-53902365D01*
X84571835Y-54017384D01*
X84571834Y-54017385D01*
X84571833Y-54017385D01*
X84380564Y-54096611D01*
X84177516Y-54137000D01*
X83970484Y-54137000D01*
X83767436Y-54096611D01*
X83576167Y-54017385D01*
X83576166Y-54017385D01*
X83576165Y-54017384D01*
X83404027Y-53902365D01*
X83257635Y-53755973D01*
X83142616Y-53583835D01*
X83103792Y-53490105D01*
X83063389Y-53392564D01*
X83023000Y-53189516D01*
X83023000Y-52982484D01*
X83063389Y-52779436D01*
X83142615Y-52588167D01*
X83257635Y-52416027D01*
X83404027Y-52269635D01*
X83547312Y-52173895D01*
X83576165Y-52154616D01*
X83655798Y-52121631D01*
X83767436Y-52075389D01*
X83970484Y-52035000D01*
X84177516Y-52035000D01*
X84380564Y-52075389D01*
X84380564Y-52075389D01*
G37*
G36*
X90878674Y-52593465D02*
G01*
X90916367Y-52604899D01*
X90951103Y-52623466D01*
X90981548Y-52648452D01*
X91006534Y-52678897D01*
X91025101Y-52713633D01*
X91036535Y-52751326D01*
X91041000Y-52796661D01*
X91041000Y-53883339D01*
X91036535Y-53928674D01*
X91025101Y-53966367D01*
X91006534Y-54001103D01*
X90981548Y-54031548D01*
X90951103Y-54056534D01*
X90916367Y-54075101D01*
X90878674Y-54086535D01*
X90833339Y-54091000D01*
X89996661Y-54091000D01*
X89951326Y-54086535D01*
X89913633Y-54075101D01*
X89878897Y-54056534D01*
X89848452Y-54031548D01*
X89823466Y-54001103D01*
X89804899Y-53966367D01*
X89793465Y-53928674D01*
X89789000Y-53883339D01*
X89789000Y-52796661D01*
X89793465Y-52751326D01*
X89804899Y-52713633D01*
X89823466Y-52678897D01*
X89848452Y-52648452D01*
X89878897Y-52623466D01*
X89913633Y-52604899D01*
X89951326Y-52593465D01*
X89996661Y-52589000D01*
X90833339Y-52589000D01*
X90878674Y-52593465D01*
X90878674Y-52593465D01*
G37*
G36*
X92928674Y-52593465D02*
G01*
X92966367Y-52604899D01*
X93001103Y-52623466D01*
X93031548Y-52648452D01*
X93056534Y-52678897D01*
X93075101Y-52713633D01*
X93086535Y-52751326D01*
X93091000Y-52796661D01*
X93091000Y-53883339D01*
X93086535Y-53928674D01*
X93075101Y-53966367D01*
X93056534Y-54001103D01*
X93031548Y-54031548D01*
X93001103Y-54056534D01*
X92966367Y-54075101D01*
X92928674Y-54086535D01*
X92883339Y-54091000D01*
X92046661Y-54091000D01*
X92001326Y-54086535D01*
X91963633Y-54075101D01*
X91928897Y-54056534D01*
X91898452Y-54031548D01*
X91873466Y-54001103D01*
X91854899Y-53966367D01*
X91843465Y-53928674D01*
X91839000Y-53883339D01*
X91839000Y-52796661D01*
X91843465Y-52751326D01*
X91854899Y-52713633D01*
X91873466Y-52678897D01*
X91898452Y-52648452D01*
X91928897Y-52623466D01*
X91963633Y-52604899D01*
X92001326Y-52593465D01*
X92046661Y-52589000D01*
X92883339Y-52589000D01*
X92928674Y-52593465D01*
X92928674Y-52593465D01*
G37*
G36*
X58852062Y-51910181D02*
G01*
X58886981Y-51920774D01*
X58919163Y-51937976D01*
X58947373Y-51961127D01*
X58970524Y-51989337D01*
X58987726Y-52021519D01*
X58998319Y-52056438D01*
X59002500Y-52098895D01*
X59002500Y-53565105D01*
X58998319Y-53607562D01*
X58987726Y-53642481D01*
X58970524Y-53674663D01*
X58947373Y-53702873D01*
X58919163Y-53726024D01*
X58886981Y-53743226D01*
X58852062Y-53753819D01*
X58809605Y-53758000D01*
X57668395Y-53758000D01*
X57625938Y-53753819D01*
X57591019Y-53743226D01*
X57558837Y-53726024D01*
X57530627Y-53702873D01*
X57507476Y-53674663D01*
X57490274Y-53642481D01*
X57479681Y-53607562D01*
X57475500Y-53565105D01*
X57475500Y-52098895D01*
X57479681Y-52056438D01*
X57490274Y-52021519D01*
X57507476Y-51989337D01*
X57530627Y-51961127D01*
X57558837Y-51937976D01*
X57591019Y-51920774D01*
X57625938Y-51910181D01*
X57668395Y-51906000D01*
X58809605Y-51906000D01*
X58852062Y-51910181D01*
X58852062Y-51910181D01*
G37*
G36*
X61827062Y-51910181D02*
G01*
X61861981Y-51920774D01*
X61894163Y-51937976D01*
X61922373Y-51961127D01*
X61945524Y-51989337D01*
X61962726Y-52021519D01*
X61973319Y-52056438D01*
X61977500Y-52098895D01*
X61977500Y-53565105D01*
X61973319Y-53607562D01*
X61962726Y-53642481D01*
X61945524Y-53674663D01*
X61922373Y-53702873D01*
X61894163Y-53726024D01*
X61861981Y-53743226D01*
X61827062Y-53753819D01*
X61784605Y-53758000D01*
X60643395Y-53758000D01*
X60600938Y-53753819D01*
X60566019Y-53743226D01*
X60533837Y-53726024D01*
X60505627Y-53702873D01*
X60482476Y-53674663D01*
X60465274Y-53642481D01*
X60454681Y-53607562D01*
X60450500Y-53565105D01*
X60450500Y-52098895D01*
X60454681Y-52056438D01*
X60465274Y-52021519D01*
X60482476Y-51989337D01*
X60505627Y-51961127D01*
X60533837Y-51937976D01*
X60566019Y-51920774D01*
X60600938Y-51910181D01*
X60643395Y-51906000D01*
X61784605Y-51906000D01*
X61827062Y-51910181D01*
X61827062Y-51910181D01*
G37*
G36*
X68177062Y-51910181D02*
G01*
X68211981Y-51920774D01*
X68244163Y-51937976D01*
X68272373Y-51961127D01*
X68295524Y-51989337D01*
X68312726Y-52021519D01*
X68323319Y-52056438D01*
X68327500Y-52098895D01*
X68327500Y-53565105D01*
X68323319Y-53607562D01*
X68312726Y-53642481D01*
X68295524Y-53674663D01*
X68272373Y-53702873D01*
X68244163Y-53726024D01*
X68211981Y-53743226D01*
X68177062Y-53753819D01*
X68134605Y-53758000D01*
X66993395Y-53758000D01*
X66950938Y-53753819D01*
X66916019Y-53743226D01*
X66883837Y-53726024D01*
X66855627Y-53702873D01*
X66832476Y-53674663D01*
X66815274Y-53642481D01*
X66804681Y-53607562D01*
X66800500Y-53565105D01*
X66800500Y-52098895D01*
X66804681Y-52056438D01*
X66815274Y-52021519D01*
X66832476Y-51989337D01*
X66855627Y-51961127D01*
X66883837Y-51937976D01*
X66916019Y-51920774D01*
X66950938Y-51910181D01*
X66993395Y-51906000D01*
X68134605Y-51906000D01*
X68177062Y-51910181D01*
X68177062Y-51910181D01*
G37*
G36*
X65202062Y-51910181D02*
G01*
X65236981Y-51920774D01*
X65269163Y-51937976D01*
X65297373Y-51961127D01*
X65320524Y-51989337D01*
X65337726Y-52021519D01*
X65348319Y-52056438D01*
X65352500Y-52098895D01*
X65352500Y-53565105D01*
X65348319Y-53607562D01*
X65337726Y-53642481D01*
X65320524Y-53674663D01*
X65297373Y-53702873D01*
X65269163Y-53726024D01*
X65236981Y-53743226D01*
X65202062Y-53753819D01*
X65159605Y-53758000D01*
X64018395Y-53758000D01*
X63975938Y-53753819D01*
X63941019Y-53743226D01*
X63908837Y-53726024D01*
X63880627Y-53702873D01*
X63857476Y-53674663D01*
X63840274Y-53642481D01*
X63829681Y-53607562D01*
X63825500Y-53565105D01*
X63825500Y-52098895D01*
X63829681Y-52056438D01*
X63840274Y-52021519D01*
X63857476Y-51989337D01*
X63880627Y-51961127D01*
X63908837Y-51937976D01*
X63941019Y-51920774D01*
X63975938Y-51910181D01*
X64018395Y-51906000D01*
X65159605Y-51906000D01*
X65202062Y-51910181D01*
X65202062Y-51910181D01*
G37*
G36*
X55731062Y-51910181D02*
G01*
X55765981Y-51920774D01*
X55798163Y-51937976D01*
X55826373Y-51961127D01*
X55849524Y-51989337D01*
X55866726Y-52021519D01*
X55877319Y-52056438D01*
X55881500Y-52098895D01*
X55881500Y-53565105D01*
X55877319Y-53607562D01*
X55866726Y-53642481D01*
X55849524Y-53674663D01*
X55826373Y-53702873D01*
X55798163Y-53726024D01*
X55765981Y-53743226D01*
X55731062Y-53753819D01*
X55688605Y-53758000D01*
X54547395Y-53758000D01*
X54504938Y-53753819D01*
X54470019Y-53743226D01*
X54437837Y-53726024D01*
X54409627Y-53702873D01*
X54386476Y-53674663D01*
X54369274Y-53642481D01*
X54358681Y-53607562D01*
X54354500Y-53565105D01*
X54354500Y-52098895D01*
X54358681Y-52056438D01*
X54369274Y-52021519D01*
X54386476Y-51989337D01*
X54409627Y-51961127D01*
X54437837Y-51937976D01*
X54470019Y-51920774D01*
X54504938Y-51910181D01*
X54547395Y-51906000D01*
X55688605Y-51906000D01*
X55731062Y-51910181D01*
X55731062Y-51910181D01*
G37*
G36*
X52756062Y-51910181D02*
G01*
X52790981Y-51920774D01*
X52823163Y-51937976D01*
X52851373Y-51961127D01*
X52874524Y-51989337D01*
X52891726Y-52021519D01*
X52902319Y-52056438D01*
X52906500Y-52098895D01*
X52906500Y-53565105D01*
X52902319Y-53607562D01*
X52891726Y-53642481D01*
X52874524Y-53674663D01*
X52851373Y-53702873D01*
X52823163Y-53726024D01*
X52790981Y-53743226D01*
X52756062Y-53753819D01*
X52713605Y-53758000D01*
X51572395Y-53758000D01*
X51529938Y-53753819D01*
X51495019Y-53743226D01*
X51462837Y-53726024D01*
X51434627Y-53702873D01*
X51411476Y-53674663D01*
X51394274Y-53642481D01*
X51383681Y-53607562D01*
X51379500Y-53565105D01*
X51379500Y-52098895D01*
X51383681Y-52056438D01*
X51394274Y-52021519D01*
X51411476Y-51989337D01*
X51434627Y-51961127D01*
X51462837Y-51937976D01*
X51495019Y-51920774D01*
X51529938Y-51910181D01*
X51572395Y-51906000D01*
X52713605Y-51906000D01*
X52756062Y-51910181D01*
X52756062Y-51910181D01*
G37*
G36*
X73546562Y-51691681D02*
G01*
X73581481Y-51702274D01*
X73613663Y-51719476D01*
X73641873Y-51742627D01*
X73665024Y-51770837D01*
X73682226Y-51803019D01*
X73692819Y-51837938D01*
X73697000Y-51880395D01*
X73697000Y-53021605D01*
X73692819Y-53064062D01*
X73682226Y-53098981D01*
X73665024Y-53131163D01*
X73641873Y-53159373D01*
X73613663Y-53182524D01*
X73581481Y-53199726D01*
X73546562Y-53210319D01*
X73504105Y-53214500D01*
X72037895Y-53214500D01*
X71995438Y-53210319D01*
X71960519Y-53199726D01*
X71928337Y-53182524D01*
X71900127Y-53159373D01*
X71876976Y-53131163D01*
X71859774Y-53098981D01*
X71849181Y-53064062D01*
X71845000Y-53021605D01*
X71845000Y-51880395D01*
X71849181Y-51837938D01*
X71859774Y-51803019D01*
X71876976Y-51770837D01*
X71900127Y-51742627D01*
X71928337Y-51719476D01*
X71960519Y-51702274D01*
X71995438Y-51691681D01*
X72037895Y-51687500D01*
X73504105Y-51687500D01*
X73546562Y-51691681D01*
X73546562Y-51691681D01*
G37*
G36*
X100090562Y-49243181D02*
G01*
X100125481Y-49253774D01*
X100157663Y-49270976D01*
X100185873Y-49294127D01*
X100209024Y-49322337D01*
X100226226Y-49354519D01*
X100236819Y-49389438D01*
X100241000Y-49431895D01*
X100241000Y-50898105D01*
X100236819Y-50940562D01*
X100226226Y-50975481D01*
X100209024Y-51007663D01*
X100185873Y-51035873D01*
X100157663Y-51059024D01*
X100125481Y-51076226D01*
X100090562Y-51086819D01*
X100048105Y-51091000D01*
X98906895Y-51091000D01*
X98864438Y-51086819D01*
X98829519Y-51076226D01*
X98797337Y-51059024D01*
X98769127Y-51035873D01*
X98745976Y-51007663D01*
X98728774Y-50975481D01*
X98718181Y-50940562D01*
X98714000Y-50898105D01*
X98714000Y-49431895D01*
X98718181Y-49389438D01*
X98728774Y-49354519D01*
X98745976Y-49322337D01*
X98769127Y-49294127D01*
X98797337Y-49270976D01*
X98829519Y-49253774D01*
X98864438Y-49243181D01*
X98906895Y-49239000D01*
X100048105Y-49239000D01*
X100090562Y-49243181D01*
X100090562Y-49243181D01*
G37*
G36*
X103065562Y-49243181D02*
G01*
X103100481Y-49253774D01*
X103132663Y-49270976D01*
X103160873Y-49294127D01*
X103184024Y-49322337D01*
X103201226Y-49354519D01*
X103211819Y-49389438D01*
X103216000Y-49431895D01*
X103216000Y-50898105D01*
X103211819Y-50940562D01*
X103201226Y-50975481D01*
X103184024Y-51007663D01*
X103160873Y-51035873D01*
X103132663Y-51059024D01*
X103100481Y-51076226D01*
X103065562Y-51086819D01*
X103023105Y-51091000D01*
X101881895Y-51091000D01*
X101839438Y-51086819D01*
X101804519Y-51076226D01*
X101772337Y-51059024D01*
X101744127Y-51035873D01*
X101720976Y-51007663D01*
X101703774Y-50975481D01*
X101693181Y-50940562D01*
X101689000Y-50898105D01*
X101689000Y-49431895D01*
X101693181Y-49389438D01*
X101703774Y-49354519D01*
X101720976Y-49322337D01*
X101744127Y-49294127D01*
X101772337Y-49270976D01*
X101804519Y-49253774D01*
X101839438Y-49243181D01*
X101881895Y-49239000D01*
X103023105Y-49239000D01*
X103065562Y-49243181D01*
X103065562Y-49243181D01*
G37*
G36*
X85703062Y-48862181D02*
G01*
X85737981Y-48872774D01*
X85770163Y-48889976D01*
X85798373Y-48913127D01*
X85821524Y-48941337D01*
X85838726Y-48973519D01*
X85849319Y-49008438D01*
X85853500Y-49050895D01*
X85853500Y-50517105D01*
X85849319Y-50559562D01*
X85838726Y-50594481D01*
X85821524Y-50626663D01*
X85798373Y-50654873D01*
X85770163Y-50678024D01*
X85737981Y-50695226D01*
X85703062Y-50705819D01*
X85660605Y-50710000D01*
X84519395Y-50710000D01*
X84476938Y-50705819D01*
X84442019Y-50695226D01*
X84409837Y-50678024D01*
X84381627Y-50654873D01*
X84358476Y-50626663D01*
X84341274Y-50594481D01*
X84330681Y-50559562D01*
X84326500Y-50517105D01*
X84326500Y-49050895D01*
X84330681Y-49008438D01*
X84341274Y-48973519D01*
X84358476Y-48941337D01*
X84381627Y-48913127D01*
X84409837Y-48889976D01*
X84442019Y-48872774D01*
X84476938Y-48862181D01*
X84519395Y-48858000D01*
X85660605Y-48858000D01*
X85703062Y-48862181D01*
X85703062Y-48862181D01*
G37*
G36*
X82728062Y-48862181D02*
G01*
X82762981Y-48872774D01*
X82795163Y-48889976D01*
X82823373Y-48913127D01*
X82846524Y-48941337D01*
X82863726Y-48973519D01*
X82874319Y-49008438D01*
X82878500Y-49050895D01*
X82878500Y-50517105D01*
X82874319Y-50559562D01*
X82863726Y-50594481D01*
X82846524Y-50626663D01*
X82823373Y-50654873D01*
X82795163Y-50678024D01*
X82762981Y-50695226D01*
X82728062Y-50705819D01*
X82685605Y-50710000D01*
X81544395Y-50710000D01*
X81501938Y-50705819D01*
X81467019Y-50695226D01*
X81434837Y-50678024D01*
X81406627Y-50654873D01*
X81383476Y-50626663D01*
X81366274Y-50594481D01*
X81355681Y-50559562D01*
X81351500Y-50517105D01*
X81351500Y-49050895D01*
X81355681Y-49008438D01*
X81366274Y-48973519D01*
X81383476Y-48941337D01*
X81406627Y-48913127D01*
X81434837Y-48889976D01*
X81467019Y-48872774D01*
X81501938Y-48862181D01*
X81544395Y-48858000D01*
X82685605Y-48858000D01*
X82728062Y-48862181D01*
X82728062Y-48862181D01*
G37*
G36*
X73546562Y-48716681D02*
G01*
X73581481Y-48727274D01*
X73613663Y-48744476D01*
X73641873Y-48767627D01*
X73665024Y-48795837D01*
X73682226Y-48828019D01*
X73692819Y-48862938D01*
X73697000Y-48905395D01*
X73697000Y-50046605D01*
X73692819Y-50089062D01*
X73682226Y-50123981D01*
X73665024Y-50156163D01*
X73641873Y-50184373D01*
X73613663Y-50207524D01*
X73581481Y-50224726D01*
X73546562Y-50235319D01*
X73504105Y-50239500D01*
X72037895Y-50239500D01*
X71995438Y-50235319D01*
X71960519Y-50224726D01*
X71928337Y-50207524D01*
X71900127Y-50184373D01*
X71876976Y-50156163D01*
X71859774Y-50123981D01*
X71849181Y-50089062D01*
X71845000Y-50046605D01*
X71845000Y-48905395D01*
X71849181Y-48862938D01*
X71859774Y-48828019D01*
X71876976Y-48795837D01*
X71900127Y-48767627D01*
X71928337Y-48744476D01*
X71960519Y-48727274D01*
X71995438Y-48716681D01*
X72037895Y-48712500D01*
X73504105Y-48712500D01*
X73546562Y-48716681D01*
X73546562Y-48716681D01*
G37*
G36*
X85703062Y-46322181D02*
G01*
X85737981Y-46332774D01*
X85770163Y-46349976D01*
X85798373Y-46373127D01*
X85821524Y-46401337D01*
X85838726Y-46433519D01*
X85849319Y-46468438D01*
X85853500Y-46510895D01*
X85853500Y-47977105D01*
X85849319Y-48019562D01*
X85838726Y-48054481D01*
X85821524Y-48086663D01*
X85798373Y-48114873D01*
X85770163Y-48138024D01*
X85737981Y-48155226D01*
X85703062Y-48165819D01*
X85660605Y-48170000D01*
X84519395Y-48170000D01*
X84476938Y-48165819D01*
X84442019Y-48155226D01*
X84409837Y-48138024D01*
X84381627Y-48114873D01*
X84358476Y-48086663D01*
X84341274Y-48054481D01*
X84330681Y-48019562D01*
X84326500Y-47977105D01*
X84326500Y-46510895D01*
X84330681Y-46468438D01*
X84341274Y-46433519D01*
X84358476Y-46401337D01*
X84381627Y-46373127D01*
X84409837Y-46349976D01*
X84442019Y-46332774D01*
X84476938Y-46322181D01*
X84519395Y-46318000D01*
X85660605Y-46318000D01*
X85703062Y-46322181D01*
X85703062Y-46322181D01*
G37*
G36*
X93758062Y-46322181D02*
G01*
X93792981Y-46332774D01*
X93825163Y-46349976D01*
X93853373Y-46373127D01*
X93876524Y-46401337D01*
X93893726Y-46433519D01*
X93904319Y-46468438D01*
X93908500Y-46510895D01*
X93908500Y-47977105D01*
X93904319Y-48019562D01*
X93893726Y-48054481D01*
X93876524Y-48086663D01*
X93853373Y-48114873D01*
X93825163Y-48138024D01*
X93792981Y-48155226D01*
X93758062Y-48165819D01*
X93715605Y-48170000D01*
X92574395Y-48170000D01*
X92531938Y-48165819D01*
X92497019Y-48155226D01*
X92464837Y-48138024D01*
X92436627Y-48114873D01*
X92413476Y-48086663D01*
X92396274Y-48054481D01*
X92385681Y-48019562D01*
X92381500Y-47977105D01*
X92381500Y-46510895D01*
X92385681Y-46468438D01*
X92396274Y-46433519D01*
X92413476Y-46401337D01*
X92436627Y-46373127D01*
X92464837Y-46349976D01*
X92497019Y-46332774D01*
X92531938Y-46322181D01*
X92574395Y-46318000D01*
X93715605Y-46318000D01*
X93758062Y-46322181D01*
X93758062Y-46322181D01*
G37*
G36*
X90783062Y-46322181D02*
G01*
X90817981Y-46332774D01*
X90850163Y-46349976D01*
X90878373Y-46373127D01*
X90901524Y-46401337D01*
X90918726Y-46433519D01*
X90929319Y-46468438D01*
X90933500Y-46510895D01*
X90933500Y-47977105D01*
X90929319Y-48019562D01*
X90918726Y-48054481D01*
X90901524Y-48086663D01*
X90878373Y-48114873D01*
X90850163Y-48138024D01*
X90817981Y-48155226D01*
X90783062Y-48165819D01*
X90740605Y-48170000D01*
X89599395Y-48170000D01*
X89556938Y-48165819D01*
X89522019Y-48155226D01*
X89489837Y-48138024D01*
X89461627Y-48114873D01*
X89438476Y-48086663D01*
X89421274Y-48054481D01*
X89410681Y-48019562D01*
X89406500Y-47977105D01*
X89406500Y-46510895D01*
X89410681Y-46468438D01*
X89421274Y-46433519D01*
X89438476Y-46401337D01*
X89461627Y-46373127D01*
X89489837Y-46349976D01*
X89522019Y-46332774D01*
X89556938Y-46322181D01*
X89599395Y-46318000D01*
X90740605Y-46318000D01*
X90783062Y-46322181D01*
X90783062Y-46322181D01*
G37*
G36*
X82728062Y-46322181D02*
G01*
X82762981Y-46332774D01*
X82795163Y-46349976D01*
X82823373Y-46373127D01*
X82846524Y-46401337D01*
X82863726Y-46433519D01*
X82874319Y-46468438D01*
X82878500Y-46510895D01*
X82878500Y-47977105D01*
X82874319Y-48019562D01*
X82863726Y-48054481D01*
X82846524Y-48086663D01*
X82823373Y-48114873D01*
X82795163Y-48138024D01*
X82762981Y-48155226D01*
X82728062Y-48165819D01*
X82685605Y-48170000D01*
X81544395Y-48170000D01*
X81501938Y-48165819D01*
X81467019Y-48155226D01*
X81434837Y-48138024D01*
X81406627Y-48114873D01*
X81383476Y-48086663D01*
X81366274Y-48054481D01*
X81355681Y-48019562D01*
X81351500Y-47977105D01*
X81351500Y-46510895D01*
X81355681Y-46468438D01*
X81366274Y-46433519D01*
X81383476Y-46401337D01*
X81406627Y-46373127D01*
X81434837Y-46349976D01*
X81467019Y-46332774D01*
X81501938Y-46322181D01*
X81544395Y-46318000D01*
X82685605Y-46318000D01*
X82728062Y-46322181D01*
X82728062Y-46322181D01*
G37*
G36*
X73546562Y-46611681D02*
G01*
X73581481Y-46622274D01*
X73613663Y-46639476D01*
X73641873Y-46662627D01*
X73665024Y-46690837D01*
X73682226Y-46723019D01*
X73692819Y-46757938D01*
X73697000Y-46800395D01*
X73697000Y-47941605D01*
X73692819Y-47984062D01*
X73682226Y-48018981D01*
X73665024Y-48051163D01*
X73641873Y-48079373D01*
X73613663Y-48102524D01*
X73581481Y-48119726D01*
X73546562Y-48130319D01*
X73504105Y-48134500D01*
X72037895Y-48134500D01*
X71995438Y-48130319D01*
X71960519Y-48119726D01*
X71928337Y-48102524D01*
X71900127Y-48079373D01*
X71876976Y-48051163D01*
X71859774Y-48018981D01*
X71849181Y-47984062D01*
X71845000Y-47941605D01*
X71845000Y-46800395D01*
X71849181Y-46757938D01*
X71859774Y-46723019D01*
X71876976Y-46690837D01*
X71900127Y-46662627D01*
X71928337Y-46639476D01*
X71960519Y-46622274D01*
X71995438Y-46611681D01*
X72037895Y-46607500D01*
X73504105Y-46607500D01*
X73546562Y-46611681D01*
X73546562Y-46611681D01*
G37*
G36*
X106183031Y-43560621D02*
G01*
X106212486Y-43569556D01*
X106239623Y-43584062D01*
X106263414Y-43603586D01*
X106282938Y-43627377D01*
X106297444Y-43654514D01*
X106306379Y-43683969D01*
X106310000Y-43720734D01*
X106310000Y-46195266D01*
X106306379Y-46232031D01*
X106297444Y-46261486D01*
X106282938Y-46288623D01*
X106263414Y-46312414D01*
X106239623Y-46331938D01*
X106212486Y-46346444D01*
X106183031Y-46355379D01*
X106146266Y-46359000D01*
X103071734Y-46359000D01*
X103034969Y-46355379D01*
X103005514Y-46346444D01*
X102978377Y-46331938D01*
X102954586Y-46312414D01*
X102935062Y-46288623D01*
X102920556Y-46261486D01*
X102911621Y-46232031D01*
X102908000Y-46195266D01*
X102908000Y-43720734D01*
X102911621Y-43683969D01*
X102920556Y-43654514D01*
X102935062Y-43627377D01*
X102954586Y-43603586D01*
X102978377Y-43584062D01*
X103005514Y-43569556D01*
X103034969Y-43560621D01*
X103071734Y-43557000D01*
X106146266Y-43557000D01*
X106183031Y-43560621D01*
X106183031Y-43560621D01*
G37*
G36*
X110580731Y-43567136D02*
G01*
X110683644Y-43577272D01*
X110869447Y-43633635D01*
X110947737Y-43657384D01*
X111150625Y-43765830D01*
X111191120Y-43787475D01*
X111234587Y-43823148D01*
X111404450Y-43962550D01*
X111533918Y-44120309D01*
X111579525Y-44175880D01*
X111579526Y-44175882D01*
X111709616Y-44419263D01*
X111709617Y-44419267D01*
X111789728Y-44683356D01*
X111816778Y-44958000D01*
X111789728Y-45232644D01*
X111734602Y-45414369D01*
X111709616Y-45496737D01*
X111649285Y-45609608D01*
X111579525Y-45740120D01*
X111533918Y-45795691D01*
X111404450Y-45953450D01*
X111246691Y-46082918D01*
X111191120Y-46128525D01*
X111191118Y-46128526D01*
X110947737Y-46258616D01*
X110879017Y-46279462D01*
X110683644Y-46338728D01*
X110580731Y-46348864D01*
X110477820Y-46359000D01*
X109740180Y-46359000D01*
X109637269Y-46348864D01*
X109534356Y-46338728D01*
X109338983Y-46279462D01*
X109270263Y-46258616D01*
X109026882Y-46128526D01*
X109026880Y-46128525D01*
X108971309Y-46082918D01*
X108813550Y-45953450D01*
X108684082Y-45795691D01*
X108638475Y-45740120D01*
X108568715Y-45609608D01*
X108508384Y-45496737D01*
X108483398Y-45414369D01*
X108428272Y-45232644D01*
X108401222Y-44958000D01*
X108428272Y-44683356D01*
X108508383Y-44419267D01*
X108508384Y-44419263D01*
X108638474Y-44175882D01*
X108638475Y-44175880D01*
X108684082Y-44120309D01*
X108813550Y-43962550D01*
X108983413Y-43823148D01*
X109026880Y-43787475D01*
X109067375Y-43765830D01*
X109270263Y-43657384D01*
X109348553Y-43633635D01*
X109534356Y-43577272D01*
X109637269Y-43567136D01*
X109740180Y-43557000D01*
X110477820Y-43557000D01*
X110580731Y-43567136D01*
X110580731Y-43567136D01*
G37*
G36*
X52445256Y-42841298D02*
G01*
X52551579Y-42862447D01*
X52852042Y-42986903D01*
X53122451Y-43167585D01*
X53352415Y-43397549D01*
X53533097Y-43667958D01*
X53657553Y-43968421D01*
X53678702Y-44074744D01*
X53721000Y-44287389D01*
X53721000Y-44612611D01*
X53678702Y-44825256D01*
X53657553Y-44931579D01*
X53533097Y-45232042D01*
X53352415Y-45502451D01*
X53122451Y-45732415D01*
X52852042Y-45913097D01*
X52551579Y-46037553D01*
X52445256Y-46058702D01*
X52232611Y-46101000D01*
X51907389Y-46101000D01*
X51694744Y-46058702D01*
X51588421Y-46037553D01*
X51287958Y-45913097D01*
X51017549Y-45732415D01*
X50787585Y-45502451D01*
X50606903Y-45232042D01*
X50482447Y-44931579D01*
X50461298Y-44825256D01*
X50419000Y-44612611D01*
X50419000Y-44287389D01*
X50461298Y-44074744D01*
X50482447Y-43968421D01*
X50606903Y-43667958D01*
X50787585Y-43397549D01*
X51017549Y-43167585D01*
X51287958Y-42986903D01*
X51588421Y-42862447D01*
X51694744Y-42841298D01*
X51907389Y-42799000D01*
X52232611Y-42799000D01*
X52445256Y-42841298D01*
X52445256Y-42841298D01*
G37*
G36*
X125695256Y-42841298D02*
G01*
X125801579Y-42862447D01*
X126102042Y-42986903D01*
X126372451Y-43167585D01*
X126602415Y-43397549D01*
X126783097Y-43667958D01*
X126907553Y-43968421D01*
X126928702Y-44074744D01*
X126971000Y-44287389D01*
X126971000Y-44612611D01*
X126928702Y-44825256D01*
X126907553Y-44931579D01*
X126783097Y-45232042D01*
X126602415Y-45502451D01*
X126372451Y-45732415D01*
X126102042Y-45913097D01*
X125801579Y-46037553D01*
X125695256Y-46058702D01*
X125482611Y-46101000D01*
X125157389Y-46101000D01*
X124944744Y-46058702D01*
X124838421Y-46037553D01*
X124537958Y-45913097D01*
X124267549Y-45732415D01*
X124037585Y-45502451D01*
X123856903Y-45232042D01*
X123732447Y-44931579D01*
X123711298Y-44825256D01*
X123669000Y-44612611D01*
X123669000Y-44287389D01*
X123711298Y-44074744D01*
X123732447Y-43968421D01*
X123856903Y-43667958D01*
X124037585Y-43397549D01*
X124267549Y-43167585D01*
X124537958Y-42986903D01*
X124838421Y-42862447D01*
X124944744Y-42841298D01*
X125157389Y-42799000D01*
X125482611Y-42799000D01*
X125695256Y-42841298D01*
X125695256Y-42841298D01*
G37*
G36*
X85703062Y-43782181D02*
G01*
X85737981Y-43792774D01*
X85770163Y-43809976D01*
X85798373Y-43833127D01*
X85821524Y-43861337D01*
X85838726Y-43893519D01*
X85849319Y-43928438D01*
X85853500Y-43970895D01*
X85853500Y-45437105D01*
X85849319Y-45479562D01*
X85838726Y-45514481D01*
X85821524Y-45546663D01*
X85798373Y-45574873D01*
X85770163Y-45598024D01*
X85737981Y-45615226D01*
X85703062Y-45625819D01*
X85660605Y-45630000D01*
X84519395Y-45630000D01*
X84476938Y-45625819D01*
X84442019Y-45615226D01*
X84409837Y-45598024D01*
X84381627Y-45574873D01*
X84358476Y-45546663D01*
X84341274Y-45514481D01*
X84330681Y-45479562D01*
X84326500Y-45437105D01*
X84326500Y-43970895D01*
X84330681Y-43928438D01*
X84341274Y-43893519D01*
X84358476Y-43861337D01*
X84381627Y-43833127D01*
X84409837Y-43809976D01*
X84442019Y-43792774D01*
X84476938Y-43782181D01*
X84519395Y-43778000D01*
X85660605Y-43778000D01*
X85703062Y-43782181D01*
X85703062Y-43782181D01*
G37*
G36*
X82728062Y-43782181D02*
G01*
X82762981Y-43792774D01*
X82795163Y-43809976D01*
X82823373Y-43833127D01*
X82846524Y-43861337D01*
X82863726Y-43893519D01*
X82874319Y-43928438D01*
X82878500Y-43970895D01*
X82878500Y-45437105D01*
X82874319Y-45479562D01*
X82863726Y-45514481D01*
X82846524Y-45546663D01*
X82823373Y-45574873D01*
X82795163Y-45598024D01*
X82762981Y-45615226D01*
X82728062Y-45625819D01*
X82685605Y-45630000D01*
X81544395Y-45630000D01*
X81501938Y-45625819D01*
X81467019Y-45615226D01*
X81434837Y-45598024D01*
X81406627Y-45574873D01*
X81383476Y-45546663D01*
X81366274Y-45514481D01*
X81355681Y-45479562D01*
X81351500Y-45437105D01*
X81351500Y-43970895D01*
X81355681Y-43928438D01*
X81366274Y-43893519D01*
X81383476Y-43861337D01*
X81406627Y-43833127D01*
X81434837Y-43809976D01*
X81467019Y-43792774D01*
X81501938Y-43782181D01*
X81544395Y-43778000D01*
X82685605Y-43778000D01*
X82728062Y-43782181D01*
X82728062Y-43782181D01*
G37*
G36*
X78411564Y-43439389D02*
G01*
X78602833Y-43518615D01*
X78602835Y-43518616D01*
X78774973Y-43633635D01*
X78921365Y-43780027D01*
X78999565Y-43897061D01*
X79036385Y-43952167D01*
X79115611Y-44143436D01*
X79156000Y-44346484D01*
X79156000Y-44553516D01*
X79115611Y-44756564D01*
X79038027Y-44943869D01*
X79036384Y-44947835D01*
X78921365Y-45119973D01*
X78774973Y-45266365D01*
X78602835Y-45381384D01*
X78602834Y-45381385D01*
X78602833Y-45381385D01*
X78411564Y-45460611D01*
X78208516Y-45501000D01*
X78001484Y-45501000D01*
X77798436Y-45460611D01*
X77607167Y-45381385D01*
X77607166Y-45381385D01*
X77607165Y-45381384D01*
X77435027Y-45266365D01*
X77288635Y-45119973D01*
X77173616Y-44947835D01*
X77171973Y-44943869D01*
X77094389Y-44756564D01*
X77054000Y-44553516D01*
X77054000Y-44346484D01*
X77094389Y-44143436D01*
X77173615Y-43952167D01*
X77210436Y-43897061D01*
X77288635Y-43780027D01*
X77435027Y-43633635D01*
X77607165Y-43518616D01*
X77607167Y-43518615D01*
X77798436Y-43439389D01*
X78001484Y-43399000D01*
X78208516Y-43399000D01*
X78411564Y-43439389D01*
X78411564Y-43439389D01*
G37*
G36*
X73546562Y-43636681D02*
G01*
X73581481Y-43647274D01*
X73613663Y-43664476D01*
X73641873Y-43687627D01*
X73665024Y-43715837D01*
X73682226Y-43748019D01*
X73692819Y-43782938D01*
X73697000Y-43825395D01*
X73697000Y-44966605D01*
X73692819Y-45009062D01*
X73682226Y-45043981D01*
X73665024Y-45076163D01*
X73641873Y-45104373D01*
X73613663Y-45127524D01*
X73581481Y-45144726D01*
X73546562Y-45155319D01*
X73504105Y-45159500D01*
X72037895Y-45159500D01*
X71995438Y-45155319D01*
X71960519Y-45144726D01*
X71928337Y-45127524D01*
X71900127Y-45104373D01*
X71876976Y-45076163D01*
X71859774Y-45043981D01*
X71849181Y-45009062D01*
X71845000Y-44966605D01*
X71845000Y-43825395D01*
X71849181Y-43782938D01*
X71859774Y-43748019D01*
X71876976Y-43715837D01*
X71900127Y-43687627D01*
X71928337Y-43664476D01*
X71960519Y-43647274D01*
X71995438Y-43636681D01*
X72037895Y-43632500D01*
X73504105Y-43632500D01*
X73546562Y-43636681D01*
X73546562Y-43636681D01*
G37*
M02*
