G04 #@! TF.GenerationSoftware,KiCad,Pcbnew,(5.1.2)-2*
G04 #@! TF.CreationDate,2019-08-12T14:05:45+10:00*
G04 #@! TF.ProjectId,TSAL-HVM,5453414c-2d48-4564-9d2e-6b696361645f,rev?*
G04 #@! TF.SameCoordinates,Original*
G04 #@! TF.FileFunction,Copper,L2,Bot*
G04 #@! TF.FilePolarity,Positive*
%FSLAX46Y46*%
G04 Gerber Fmt 4.6, Leading zero omitted, Abs format (unit mm)*
G04 Created by KiCad (PCBNEW (5.1.2)-2) date 2019-08-12 14:05:45*
%MOMM*%
%LPD*%
G04 APERTURE LIST*
%ADD10O,3.300000X2.700000*%
%ADD11C,0.100000*%
%ADD12C,2.700000*%
%ADD13C,1.524000*%
%ADD14C,2.000000*%
%ADD15R,1.600000X1.600000*%
%ADD16O,1.600000X1.600000*%
%ADD17C,2.500000*%
%ADD18C,2.200000*%
%ADD19C,0.800000*%
%ADD20C,0.250000*%
%ADD21C,0.254000*%
G04 APERTURE END LIST*
D10*
X57062000Y-77343000D03*
D11*
G36*
X52986503Y-75994204D02*
G01*
X53010772Y-75997804D01*
X53034570Y-76003765D01*
X53057670Y-76012030D01*
X53079849Y-76022520D01*
X53100892Y-76035133D01*
X53120598Y-76049748D01*
X53138776Y-76066224D01*
X53155252Y-76084402D01*
X53169867Y-76104108D01*
X53182480Y-76125151D01*
X53192970Y-76147330D01*
X53201235Y-76170430D01*
X53207196Y-76194228D01*
X53210796Y-76218497D01*
X53212000Y-76243001D01*
X53212000Y-78442999D01*
X53210796Y-78467503D01*
X53207196Y-78491772D01*
X53201235Y-78515570D01*
X53192970Y-78538670D01*
X53182480Y-78560849D01*
X53169867Y-78581892D01*
X53155252Y-78601598D01*
X53138776Y-78619776D01*
X53120598Y-78636252D01*
X53100892Y-78650867D01*
X53079849Y-78663480D01*
X53057670Y-78673970D01*
X53034570Y-78682235D01*
X53010772Y-78688196D01*
X52986503Y-78691796D01*
X52961999Y-78693000D01*
X50162001Y-78693000D01*
X50137497Y-78691796D01*
X50113228Y-78688196D01*
X50089430Y-78682235D01*
X50066330Y-78673970D01*
X50044151Y-78663480D01*
X50023108Y-78650867D01*
X50003402Y-78636252D01*
X49985224Y-78619776D01*
X49968748Y-78601598D01*
X49954133Y-78581892D01*
X49941520Y-78560849D01*
X49931030Y-78538670D01*
X49922765Y-78515570D01*
X49916804Y-78491772D01*
X49913204Y-78467503D01*
X49912000Y-78442999D01*
X49912000Y-76243001D01*
X49913204Y-76218497D01*
X49916804Y-76194228D01*
X49922765Y-76170430D01*
X49931030Y-76147330D01*
X49941520Y-76125151D01*
X49954133Y-76104108D01*
X49968748Y-76084402D01*
X49985224Y-76066224D01*
X50003402Y-76049748D01*
X50023108Y-76035133D01*
X50044151Y-76022520D01*
X50066330Y-76012030D01*
X50089430Y-76003765D01*
X50113228Y-75997804D01*
X50137497Y-75994204D01*
X50162001Y-75993000D01*
X52961999Y-75993000D01*
X52986503Y-75994204D01*
X52986503Y-75994204D01*
G37*
D12*
X51562000Y-77343000D03*
D10*
X57062000Y-63119000D03*
D11*
G36*
X52986503Y-61770204D02*
G01*
X53010772Y-61773804D01*
X53034570Y-61779765D01*
X53057670Y-61788030D01*
X53079849Y-61798520D01*
X53100892Y-61811133D01*
X53120598Y-61825748D01*
X53138776Y-61842224D01*
X53155252Y-61860402D01*
X53169867Y-61880108D01*
X53182480Y-61901151D01*
X53192970Y-61923330D01*
X53201235Y-61946430D01*
X53207196Y-61970228D01*
X53210796Y-61994497D01*
X53212000Y-62019001D01*
X53212000Y-64218999D01*
X53210796Y-64243503D01*
X53207196Y-64267772D01*
X53201235Y-64291570D01*
X53192970Y-64314670D01*
X53182480Y-64336849D01*
X53169867Y-64357892D01*
X53155252Y-64377598D01*
X53138776Y-64395776D01*
X53120598Y-64412252D01*
X53100892Y-64426867D01*
X53079849Y-64439480D01*
X53057670Y-64449970D01*
X53034570Y-64458235D01*
X53010772Y-64464196D01*
X52986503Y-64467796D01*
X52961999Y-64469000D01*
X50162001Y-64469000D01*
X50137497Y-64467796D01*
X50113228Y-64464196D01*
X50089430Y-64458235D01*
X50066330Y-64449970D01*
X50044151Y-64439480D01*
X50023108Y-64426867D01*
X50003402Y-64412252D01*
X49985224Y-64395776D01*
X49968748Y-64377598D01*
X49954133Y-64357892D01*
X49941520Y-64336849D01*
X49931030Y-64314670D01*
X49922765Y-64291570D01*
X49916804Y-64267772D01*
X49913204Y-64243503D01*
X49912000Y-64218999D01*
X49912000Y-62019001D01*
X49913204Y-61994497D01*
X49916804Y-61970228D01*
X49922765Y-61946430D01*
X49931030Y-61923330D01*
X49941520Y-61901151D01*
X49954133Y-61880108D01*
X49968748Y-61860402D01*
X49985224Y-61842224D01*
X50003402Y-61825748D01*
X50023108Y-61811133D01*
X50044151Y-61798520D01*
X50066330Y-61788030D01*
X50089430Y-61779765D01*
X50113228Y-61773804D01*
X50137497Y-61770204D01*
X50162001Y-61769000D01*
X52961999Y-61769000D01*
X52986503Y-61770204D01*
X52986503Y-61770204D01*
G37*
D12*
X51562000Y-63119000D03*
D10*
X110109000Y-44958000D03*
D11*
G36*
X106033503Y-43609204D02*
G01*
X106057772Y-43612804D01*
X106081570Y-43618765D01*
X106104670Y-43627030D01*
X106126849Y-43637520D01*
X106147892Y-43650133D01*
X106167598Y-43664748D01*
X106185776Y-43681224D01*
X106202252Y-43699402D01*
X106216867Y-43719108D01*
X106229480Y-43740151D01*
X106239970Y-43762330D01*
X106248235Y-43785430D01*
X106254196Y-43809228D01*
X106257796Y-43833497D01*
X106259000Y-43858001D01*
X106259000Y-46057999D01*
X106257796Y-46082503D01*
X106254196Y-46106772D01*
X106248235Y-46130570D01*
X106239970Y-46153670D01*
X106229480Y-46175849D01*
X106216867Y-46196892D01*
X106202252Y-46216598D01*
X106185776Y-46234776D01*
X106167598Y-46251252D01*
X106147892Y-46265867D01*
X106126849Y-46278480D01*
X106104670Y-46288970D01*
X106081570Y-46297235D01*
X106057772Y-46303196D01*
X106033503Y-46306796D01*
X106008999Y-46308000D01*
X103209001Y-46308000D01*
X103184497Y-46306796D01*
X103160228Y-46303196D01*
X103136430Y-46297235D01*
X103113330Y-46288970D01*
X103091151Y-46278480D01*
X103070108Y-46265867D01*
X103050402Y-46251252D01*
X103032224Y-46234776D01*
X103015748Y-46216598D01*
X103001133Y-46196892D01*
X102988520Y-46175849D01*
X102978030Y-46153670D01*
X102969765Y-46130570D01*
X102963804Y-46106772D01*
X102960204Y-46082503D01*
X102959000Y-46057999D01*
X102959000Y-43858001D01*
X102960204Y-43833497D01*
X102963804Y-43809228D01*
X102969765Y-43785430D01*
X102978030Y-43762330D01*
X102988520Y-43740151D01*
X103001133Y-43719108D01*
X103015748Y-43699402D01*
X103032224Y-43681224D01*
X103050402Y-43664748D01*
X103070108Y-43650133D01*
X103091151Y-43637520D01*
X103113330Y-43627030D01*
X103136430Y-43618765D01*
X103160228Y-43612804D01*
X103184497Y-43609204D01*
X103209001Y-43608000D01*
X106008999Y-43608000D01*
X106033503Y-43609204D01*
X106033503Y-43609204D01*
G37*
D12*
X104609000Y-44958000D03*
D10*
X125222000Y-82550000D03*
X125222000Y-86750000D03*
X119722000Y-82550000D03*
D11*
G36*
X121146503Y-85401204D02*
G01*
X121170772Y-85404804D01*
X121194570Y-85410765D01*
X121217670Y-85419030D01*
X121239849Y-85429520D01*
X121260892Y-85442133D01*
X121280598Y-85456748D01*
X121298776Y-85473224D01*
X121315252Y-85491402D01*
X121329867Y-85511108D01*
X121342480Y-85532151D01*
X121352970Y-85554330D01*
X121361235Y-85577430D01*
X121367196Y-85601228D01*
X121370796Y-85625497D01*
X121372000Y-85650001D01*
X121372000Y-87849999D01*
X121370796Y-87874503D01*
X121367196Y-87898772D01*
X121361235Y-87922570D01*
X121352970Y-87945670D01*
X121342480Y-87967849D01*
X121329867Y-87988892D01*
X121315252Y-88008598D01*
X121298776Y-88026776D01*
X121280598Y-88043252D01*
X121260892Y-88057867D01*
X121239849Y-88070480D01*
X121217670Y-88080970D01*
X121194570Y-88089235D01*
X121170772Y-88095196D01*
X121146503Y-88098796D01*
X121121999Y-88100000D01*
X118322001Y-88100000D01*
X118297497Y-88098796D01*
X118273228Y-88095196D01*
X118249430Y-88089235D01*
X118226330Y-88080970D01*
X118204151Y-88070480D01*
X118183108Y-88057867D01*
X118163402Y-88043252D01*
X118145224Y-88026776D01*
X118128748Y-88008598D01*
X118114133Y-87988892D01*
X118101520Y-87967849D01*
X118091030Y-87945670D01*
X118082765Y-87922570D01*
X118076804Y-87898772D01*
X118073204Y-87874503D01*
X118072000Y-87849999D01*
X118072000Y-85650001D01*
X118073204Y-85625497D01*
X118076804Y-85601228D01*
X118082765Y-85577430D01*
X118091030Y-85554330D01*
X118101520Y-85532151D01*
X118114133Y-85511108D01*
X118128748Y-85491402D01*
X118145224Y-85473224D01*
X118163402Y-85456748D01*
X118183108Y-85442133D01*
X118204151Y-85429520D01*
X118226330Y-85419030D01*
X118249430Y-85410765D01*
X118273228Y-85404804D01*
X118297497Y-85401204D01*
X118322001Y-85400000D01*
X121121999Y-85400000D01*
X121146503Y-85401204D01*
X121146503Y-85401204D01*
G37*
D12*
X119722000Y-86750000D03*
D13*
X114046000Y-77724000D03*
X111506000Y-77724000D03*
X108966000Y-77724000D03*
X103886000Y-77724000D03*
X101346000Y-77724000D03*
X98806000Y-77724000D03*
X96266000Y-77724000D03*
D14*
X84074000Y-53086000D03*
D15*
X73025000Y-59055000D03*
D16*
X73025000Y-66675000D03*
D17*
X106720000Y-93960000D03*
D11*
G36*
X97312424Y-85261642D02*
G01*
X97345526Y-85266552D01*
X97377987Y-85274683D01*
X97409495Y-85285957D01*
X97439746Y-85300265D01*
X97468449Y-85317469D01*
X97495328Y-85337403D01*
X97520123Y-85359877D01*
X97542597Y-85384672D01*
X97562531Y-85411551D01*
X97579735Y-85440254D01*
X97594043Y-85470505D01*
X97605317Y-85502013D01*
X97613448Y-85534474D01*
X97618358Y-85567576D01*
X97620000Y-85601000D01*
X97620000Y-87119000D01*
X97618358Y-87152424D01*
X97613448Y-87185526D01*
X97605317Y-87217987D01*
X97594043Y-87249495D01*
X97579735Y-87279746D01*
X97562531Y-87308449D01*
X97542597Y-87335328D01*
X97520123Y-87360123D01*
X97495328Y-87382597D01*
X97468449Y-87402531D01*
X97439746Y-87419735D01*
X97409495Y-87434043D01*
X97377987Y-87445317D01*
X97345526Y-87453448D01*
X97312424Y-87458358D01*
X97279000Y-87460000D01*
X95761000Y-87460000D01*
X95727576Y-87458358D01*
X95694474Y-87453448D01*
X95662013Y-87445317D01*
X95630505Y-87434043D01*
X95600254Y-87419735D01*
X95571551Y-87402531D01*
X95544672Y-87382597D01*
X95519877Y-87360123D01*
X95497403Y-87335328D01*
X95477469Y-87308449D01*
X95460265Y-87279746D01*
X95445957Y-87249495D01*
X95434683Y-87217987D01*
X95426552Y-87185526D01*
X95421642Y-87152424D01*
X95420000Y-87119000D01*
X95420000Y-85601000D01*
X95421642Y-85567576D01*
X95426552Y-85534474D01*
X95434683Y-85502013D01*
X95445957Y-85470505D01*
X95460265Y-85440254D01*
X95477469Y-85411551D01*
X95497403Y-85384672D01*
X95519877Y-85359877D01*
X95544672Y-85337403D01*
X95571551Y-85317469D01*
X95600254Y-85300265D01*
X95630505Y-85285957D01*
X95662013Y-85274683D01*
X95694474Y-85266552D01*
X95727576Y-85261642D01*
X95761000Y-85260000D01*
X97279000Y-85260000D01*
X97312424Y-85261642D01*
X97312424Y-85261642D01*
G37*
D18*
X96520000Y-86360000D03*
X96520000Y-93960000D03*
D17*
X114420000Y-93960000D03*
D14*
X81280000Y-64008000D03*
X101600000Y-71755000D03*
X78105000Y-44450000D03*
X96520000Y-71755000D03*
X86868000Y-62992000D03*
X85725000Y-87630000D03*
D19*
X92710000Y-51054000D03*
X94742000Y-53086000D03*
X89154000Y-71882000D03*
X88138000Y-72898000D03*
X87122000Y-73914000D03*
X86106000Y-74930000D03*
X103378000Y-62230000D03*
D20*
X96520000Y-92404366D02*
X98806000Y-90118366D01*
X96520000Y-93960000D02*
X96520000Y-92404366D01*
X98806000Y-80264000D02*
X101346000Y-77724000D01*
X98806000Y-90118366D02*
X98806000Y-80264000D01*
X102978001Y-62629999D02*
X101454001Y-62629999D01*
X103378000Y-62230000D02*
X102978001Y-62629999D01*
X101454001Y-62629999D02*
X92456000Y-71628000D01*
X92456000Y-82296000D02*
X96520000Y-86360000D01*
X92456000Y-71628000D02*
X92456000Y-82296000D01*
D21*
G36*
X115443000Y-60071000D02*
G01*
X112522000Y-60071000D01*
X112497224Y-60073440D01*
X112473399Y-60080667D01*
X112451443Y-60092403D01*
X112432197Y-60108197D01*
X112416403Y-60127443D01*
X112404667Y-60149399D01*
X112397440Y-60173224D01*
X112395000Y-60198000D01*
X112395000Y-62611000D01*
X104340461Y-62611000D01*
X104373226Y-62531898D01*
X104413000Y-62331939D01*
X104413000Y-62128061D01*
X104373226Y-61928102D01*
X104295205Y-61739744D01*
X104181937Y-61570226D01*
X104037774Y-61426063D01*
X103868256Y-61312795D01*
X103679898Y-61234774D01*
X103479939Y-61195000D01*
X103276061Y-61195000D01*
X103076102Y-61234774D01*
X102887744Y-61312795D01*
X102718226Y-61426063D01*
X102574063Y-61570226D01*
X102460795Y-61739744D01*
X102406841Y-61869999D01*
X101491323Y-61869999D01*
X101454000Y-61866323D01*
X101416677Y-61869999D01*
X101416668Y-61869999D01*
X101305015Y-61880996D01*
X101161754Y-61924453D01*
X101029724Y-61995025D01*
X100946084Y-62063667D01*
X100914000Y-62089998D01*
X100890202Y-62118996D01*
X91945003Y-71064196D01*
X91915999Y-71087999D01*
X91860871Y-71155174D01*
X91821026Y-71203724D01*
X91779177Y-71282017D01*
X91750454Y-71335754D01*
X91706997Y-71479015D01*
X91696000Y-71590668D01*
X91696000Y-71590678D01*
X91692324Y-71628000D01*
X91696000Y-71665322D01*
X91696001Y-82258668D01*
X91692324Y-82296000D01*
X91706998Y-82444985D01*
X91750454Y-82588246D01*
X91821026Y-82720276D01*
X91881511Y-82793976D01*
X91916000Y-82836001D01*
X91944998Y-82859799D01*
X94781928Y-85696730D01*
X94781928Y-87119000D01*
X94800741Y-87310007D01*
X94856455Y-87493675D01*
X94946931Y-87662943D01*
X95068692Y-87811308D01*
X95217057Y-87933069D01*
X95386325Y-88023545D01*
X95569993Y-88079259D01*
X95761000Y-88098072D01*
X97279000Y-88098072D01*
X97470007Y-88079259D01*
X97653675Y-88023545D01*
X97822943Y-87933069D01*
X97971308Y-87811308D01*
X98046000Y-87720296D01*
X98046000Y-89803564D01*
X96008998Y-91840567D01*
X95980000Y-91864365D01*
X95956202Y-91893363D01*
X95956201Y-91893364D01*
X95885026Y-91980090D01*
X95814454Y-92112120D01*
X95770998Y-92255381D01*
X95756939Y-92398120D01*
X95698169Y-92422463D01*
X95414002Y-92612337D01*
X95172337Y-92854002D01*
X94982463Y-93138169D01*
X94851675Y-93453919D01*
X94785000Y-93789117D01*
X94785000Y-94130883D01*
X94851675Y-94466081D01*
X94982463Y-94781831D01*
X95172337Y-95065998D01*
X95414002Y-95307663D01*
X95698169Y-95497537D01*
X96013919Y-95628325D01*
X96349117Y-95695000D01*
X96690883Y-95695000D01*
X97026081Y-95628325D01*
X97341831Y-95497537D01*
X97625998Y-95307663D01*
X97867663Y-95065998D01*
X98057537Y-94781831D01*
X98188325Y-94466081D01*
X98255000Y-94130883D01*
X98255000Y-93789117D01*
X98188325Y-93453919D01*
X98057537Y-93138169D01*
X97867663Y-92854002D01*
X97625998Y-92612337D01*
X97482627Y-92516540D01*
X99317004Y-90682164D01*
X99346001Y-90658367D01*
X99440974Y-90542642D01*
X99511546Y-90410613D01*
X99555003Y-90267352D01*
X99566000Y-90155699D01*
X99566000Y-90155690D01*
X99569676Y-90118367D01*
X99566000Y-90081044D01*
X99566000Y-80578801D01*
X101054430Y-79090372D01*
X101208408Y-79121000D01*
X101483592Y-79121000D01*
X101753490Y-79067314D01*
X102007727Y-78962005D01*
X102236535Y-78809120D01*
X102362000Y-78683655D01*
X102362000Y-82423000D01*
X99822000Y-82423000D01*
X99797224Y-82425440D01*
X99773399Y-82432667D01*
X99751443Y-82444403D01*
X99732197Y-82460197D01*
X99716403Y-82479443D01*
X99704667Y-82501399D01*
X99697440Y-82525224D01*
X99695000Y-82550000D01*
X99695000Y-84216722D01*
X99686206Y-84258095D01*
X99685244Y-84267253D01*
X99685244Y-84267254D01*
X99685243Y-84267259D01*
X99673150Y-84390598D01*
X99673150Y-84390608D01*
X99670001Y-84422581D01*
X99670000Y-95282418D01*
X99673274Y-95315660D01*
X99673274Y-95332137D01*
X99674237Y-95341302D01*
X99695000Y-95526407D01*
X99695000Y-97627457D01*
X52023024Y-97520073D01*
X51378779Y-97456904D01*
X50790836Y-97279394D01*
X50248564Y-96991063D01*
X49772636Y-96602906D01*
X49381155Y-96129686D01*
X49089050Y-95589449D01*
X48907437Y-95002756D01*
X48840000Y-94361130D01*
X48840000Y-94229872D01*
X49835000Y-94229872D01*
X49835000Y-94670128D01*
X49920890Y-95101925D01*
X50089369Y-95508669D01*
X50333962Y-95874729D01*
X50645271Y-96186038D01*
X51011331Y-96430631D01*
X51418075Y-96599110D01*
X51849872Y-96685000D01*
X52290128Y-96685000D01*
X52721925Y-96599110D01*
X53128669Y-96430631D01*
X53494729Y-96186038D01*
X53806038Y-95874729D01*
X54050631Y-95508669D01*
X54219110Y-95101925D01*
X54305000Y-94670128D01*
X54305000Y-94229872D01*
X54219110Y-93798075D01*
X54050631Y-93391331D01*
X53806038Y-93025271D01*
X53494729Y-92713962D01*
X53128669Y-92469369D01*
X52721925Y-92300890D01*
X52290128Y-92215000D01*
X51849872Y-92215000D01*
X51418075Y-92300890D01*
X51011331Y-92469369D01*
X50645271Y-92713962D01*
X50333962Y-93025271D01*
X50089369Y-93391331D01*
X49920890Y-93798075D01*
X49835000Y-94229872D01*
X48840000Y-94229872D01*
X48840000Y-87468967D01*
X84090000Y-87468967D01*
X84090000Y-87791033D01*
X84152832Y-88106912D01*
X84276082Y-88404463D01*
X84455013Y-88672252D01*
X84682748Y-88899987D01*
X84950537Y-89078918D01*
X85248088Y-89202168D01*
X85563967Y-89265000D01*
X85886033Y-89265000D01*
X86201912Y-89202168D01*
X86499463Y-89078918D01*
X86767252Y-88899987D01*
X86994987Y-88672252D01*
X87173918Y-88404463D01*
X87297168Y-88106912D01*
X87360000Y-87791033D01*
X87360000Y-87468967D01*
X87297168Y-87153088D01*
X87173918Y-86855537D01*
X86994987Y-86587748D01*
X86767252Y-86360013D01*
X86499463Y-86181082D01*
X86201912Y-86057832D01*
X85886033Y-85995000D01*
X85563967Y-85995000D01*
X85248088Y-86057832D01*
X84950537Y-86181082D01*
X84682748Y-86360013D01*
X84455013Y-86587748D01*
X84276082Y-86855537D01*
X84152832Y-87153088D01*
X84090000Y-87468967D01*
X48840000Y-87468967D01*
X48840000Y-84582000D01*
X62357000Y-84582000D01*
X62381776Y-84579560D01*
X62405601Y-84572333D01*
X62427557Y-84560597D01*
X62446803Y-84544803D01*
X62462597Y-84525557D01*
X62474333Y-84503601D01*
X62481560Y-84479776D01*
X62484000Y-84455000D01*
X62484000Y-67024040D01*
X71633091Y-67024040D01*
X71727930Y-67288881D01*
X71872615Y-67530131D01*
X72061586Y-67738519D01*
X72287580Y-67906037D01*
X72541913Y-68026246D01*
X72675961Y-68066904D01*
X72898000Y-67944915D01*
X72898000Y-66802000D01*
X73152000Y-66802000D01*
X73152000Y-67944915D01*
X73374039Y-68066904D01*
X73508087Y-68026246D01*
X73762420Y-67906037D01*
X73988414Y-67738519D01*
X74177385Y-67530131D01*
X74322070Y-67288881D01*
X74416909Y-67024040D01*
X74295624Y-66802000D01*
X73152000Y-66802000D01*
X72898000Y-66802000D01*
X71754376Y-66802000D01*
X71633091Y-67024040D01*
X62484000Y-67024040D01*
X62484000Y-66325960D01*
X71633091Y-66325960D01*
X71754376Y-66548000D01*
X72898000Y-66548000D01*
X72898000Y-65405085D01*
X73152000Y-65405085D01*
X73152000Y-66548000D01*
X74295624Y-66548000D01*
X74416909Y-66325960D01*
X74322070Y-66061119D01*
X74177385Y-65819869D01*
X73988414Y-65611481D01*
X73762420Y-65443963D01*
X73508087Y-65323754D01*
X73374039Y-65283096D01*
X73152000Y-65405085D01*
X72898000Y-65405085D01*
X72675961Y-65283096D01*
X72541913Y-65323754D01*
X72287580Y-65443963D01*
X72061586Y-65611481D01*
X71872615Y-65819869D01*
X71727930Y-66061119D01*
X71633091Y-66325960D01*
X62484000Y-66325960D01*
X62484000Y-63846967D01*
X79645000Y-63846967D01*
X79645000Y-64169033D01*
X79707832Y-64484912D01*
X79831082Y-64782463D01*
X80010013Y-65050252D01*
X80237748Y-65277987D01*
X80505537Y-65456918D01*
X80803088Y-65580168D01*
X81118967Y-65643000D01*
X81441033Y-65643000D01*
X81756912Y-65580168D01*
X82054463Y-65456918D01*
X82322252Y-65277987D01*
X82549987Y-65050252D01*
X82728918Y-64782463D01*
X82852168Y-64484912D01*
X82915000Y-64169033D01*
X82915000Y-63846967D01*
X82852168Y-63531088D01*
X82728918Y-63233537D01*
X82549987Y-62965748D01*
X82415206Y-62830967D01*
X85233000Y-62830967D01*
X85233000Y-63153033D01*
X85295832Y-63468912D01*
X85419082Y-63766463D01*
X85598013Y-64034252D01*
X85825748Y-64261987D01*
X86093537Y-64440918D01*
X86391088Y-64564168D01*
X86706967Y-64627000D01*
X87029033Y-64627000D01*
X87344912Y-64564168D01*
X87642463Y-64440918D01*
X87910252Y-64261987D01*
X88137987Y-64034252D01*
X88316918Y-63766463D01*
X88440168Y-63468912D01*
X88503000Y-63153033D01*
X88503000Y-62830967D01*
X88440168Y-62515088D01*
X88316918Y-62217537D01*
X88137987Y-61949748D01*
X87910252Y-61722013D01*
X87642463Y-61543082D01*
X87344912Y-61419832D01*
X87029033Y-61357000D01*
X86706967Y-61357000D01*
X86391088Y-61419832D01*
X86093537Y-61543082D01*
X85825748Y-61722013D01*
X85598013Y-61949748D01*
X85419082Y-62217537D01*
X85295832Y-62515088D01*
X85233000Y-62830967D01*
X82415206Y-62830967D01*
X82322252Y-62738013D01*
X82054463Y-62559082D01*
X81756912Y-62435832D01*
X81441033Y-62373000D01*
X81118967Y-62373000D01*
X80803088Y-62435832D01*
X80505537Y-62559082D01*
X80237748Y-62738013D01*
X80010013Y-62965748D01*
X79831082Y-63233537D01*
X79707832Y-63531088D01*
X79645000Y-63846967D01*
X62484000Y-63846967D01*
X62484000Y-58255000D01*
X71586928Y-58255000D01*
X71586928Y-59855000D01*
X71599188Y-59979482D01*
X71635498Y-60099180D01*
X71694463Y-60209494D01*
X71773815Y-60306185D01*
X71870506Y-60385537D01*
X71980820Y-60444502D01*
X72100518Y-60480812D01*
X72225000Y-60493072D01*
X73825000Y-60493072D01*
X73949482Y-60480812D01*
X74069180Y-60444502D01*
X74179494Y-60385537D01*
X74276185Y-60306185D01*
X74355537Y-60209494D01*
X74414502Y-60099180D01*
X74450812Y-59979482D01*
X74463072Y-59855000D01*
X74463072Y-58255000D01*
X74450812Y-58130518D01*
X74414502Y-58010820D01*
X74355537Y-57900506D01*
X74276185Y-57803815D01*
X74179494Y-57724463D01*
X74069180Y-57665498D01*
X73949482Y-57629188D01*
X73825000Y-57616928D01*
X72225000Y-57616928D01*
X72100518Y-57629188D01*
X71980820Y-57665498D01*
X71870506Y-57724463D01*
X71773815Y-57803815D01*
X71694463Y-57900506D01*
X71635498Y-58010820D01*
X71599188Y-58130518D01*
X71586928Y-58255000D01*
X62484000Y-58255000D01*
X62484000Y-55880000D01*
X62481560Y-55855224D01*
X62474333Y-55831399D01*
X62462597Y-55809443D01*
X62446803Y-55790197D01*
X62427557Y-55774403D01*
X62405601Y-55762667D01*
X62381776Y-55755440D01*
X62357000Y-55753000D01*
X48840000Y-55753000D01*
X48840000Y-52924967D01*
X82439000Y-52924967D01*
X82439000Y-53247033D01*
X82501832Y-53562912D01*
X82625082Y-53860463D01*
X82804013Y-54128252D01*
X83031748Y-54355987D01*
X83299537Y-54534918D01*
X83597088Y-54658168D01*
X83912967Y-54721000D01*
X84235033Y-54721000D01*
X84550912Y-54658168D01*
X84848463Y-54534918D01*
X85116252Y-54355987D01*
X85343987Y-54128252D01*
X85522918Y-53860463D01*
X85646168Y-53562912D01*
X85709000Y-53247033D01*
X85709000Y-52924967D01*
X85646168Y-52609088D01*
X85522918Y-52311537D01*
X85343987Y-52043748D01*
X85116252Y-51816013D01*
X84848463Y-51637082D01*
X84550912Y-51513832D01*
X84235033Y-51451000D01*
X83912967Y-51451000D01*
X83597088Y-51513832D01*
X83299537Y-51637082D01*
X83031748Y-51816013D01*
X82804013Y-52043748D01*
X82625082Y-52311537D01*
X82501832Y-52609088D01*
X82439000Y-52924967D01*
X48840000Y-52924967D01*
X48840000Y-44402279D01*
X48856904Y-44229872D01*
X49835000Y-44229872D01*
X49835000Y-44670128D01*
X49920890Y-45101925D01*
X50089369Y-45508669D01*
X50333962Y-45874729D01*
X50645271Y-46186038D01*
X51011331Y-46430631D01*
X51418075Y-46599110D01*
X51849872Y-46685000D01*
X52290128Y-46685000D01*
X52721925Y-46599110D01*
X53128669Y-46430631D01*
X53494729Y-46186038D01*
X53806038Y-45874729D01*
X54050631Y-45508669D01*
X54219110Y-45101925D01*
X54305000Y-44670128D01*
X54305000Y-44288967D01*
X76470000Y-44288967D01*
X76470000Y-44611033D01*
X76532832Y-44926912D01*
X76656082Y-45224463D01*
X76835013Y-45492252D01*
X77062748Y-45719987D01*
X77330537Y-45898918D01*
X77628088Y-46022168D01*
X77943967Y-46085000D01*
X78266033Y-46085000D01*
X78581912Y-46022168D01*
X78879463Y-45898918D01*
X79147252Y-45719987D01*
X79374987Y-45492252D01*
X79553918Y-45224463D01*
X79677168Y-44926912D01*
X79740000Y-44611033D01*
X79740000Y-44288967D01*
X79677168Y-43973088D01*
X79629498Y-43858001D01*
X102320928Y-43858001D01*
X102320928Y-46057999D01*
X102337992Y-46231253D01*
X102388529Y-46397850D01*
X102470595Y-46551386D01*
X102581039Y-46685961D01*
X102715614Y-46796405D01*
X102869150Y-46878471D01*
X103035747Y-46929008D01*
X103209001Y-46946072D01*
X106008999Y-46946072D01*
X106182253Y-46929008D01*
X106348850Y-46878471D01*
X106502386Y-46796405D01*
X106636961Y-46685961D01*
X106747405Y-46551386D01*
X106829471Y-46397850D01*
X106880008Y-46231253D01*
X106897072Y-46057999D01*
X106897072Y-44958000D01*
X107814396Y-44958000D01*
X107852722Y-45347128D01*
X107966226Y-45721302D01*
X108150547Y-46066143D01*
X108398602Y-46368398D01*
X108700857Y-46616453D01*
X109045698Y-46800774D01*
X109419872Y-46914278D01*
X109711490Y-46943000D01*
X110506510Y-46943000D01*
X110798128Y-46914278D01*
X111172302Y-46800774D01*
X111517143Y-46616453D01*
X111819398Y-46368398D01*
X112067453Y-46066143D01*
X112251774Y-45721302D01*
X112365278Y-45347128D01*
X112403604Y-44958000D01*
X112365278Y-44568872D01*
X112251774Y-44194698D01*
X112067453Y-43849857D01*
X111819398Y-43547602D01*
X111517143Y-43299547D01*
X111172302Y-43115226D01*
X110798128Y-43001722D01*
X110506510Y-42973000D01*
X109711490Y-42973000D01*
X109419872Y-43001722D01*
X109045698Y-43115226D01*
X108700857Y-43299547D01*
X108398602Y-43547602D01*
X108150547Y-43849857D01*
X107966226Y-44194698D01*
X107852722Y-44568872D01*
X107814396Y-44958000D01*
X106897072Y-44958000D01*
X106897072Y-43858001D01*
X106880008Y-43684747D01*
X106829471Y-43518150D01*
X106747405Y-43364614D01*
X106636961Y-43230039D01*
X106502386Y-43119595D01*
X106348850Y-43037529D01*
X106182253Y-42986992D01*
X106008999Y-42969928D01*
X103209001Y-42969928D01*
X103035747Y-42986992D01*
X102869150Y-43037529D01*
X102715614Y-43119595D01*
X102581039Y-43230039D01*
X102470595Y-43364614D01*
X102388529Y-43518150D01*
X102337992Y-43684747D01*
X102320928Y-43858001D01*
X79629498Y-43858001D01*
X79553918Y-43675537D01*
X79374987Y-43407748D01*
X79147252Y-43180013D01*
X78879463Y-43001082D01*
X78581912Y-42877832D01*
X78266033Y-42815000D01*
X77943967Y-42815000D01*
X77628088Y-42877832D01*
X77330537Y-43001082D01*
X77062748Y-43180013D01*
X76835013Y-43407748D01*
X76656082Y-43675537D01*
X76532832Y-43973088D01*
X76470000Y-44288967D01*
X54305000Y-44288967D01*
X54305000Y-44229872D01*
X54219110Y-43798075D01*
X54050631Y-43391331D01*
X53806038Y-43025271D01*
X53494729Y-42713962D01*
X53128669Y-42469369D01*
X52721925Y-42300890D01*
X52290128Y-42215000D01*
X51849872Y-42215000D01*
X51418075Y-42300890D01*
X51011331Y-42469369D01*
X50645271Y-42713962D01*
X50333962Y-43025271D01*
X50089369Y-43391331D01*
X49920890Y-43798075D01*
X49835000Y-44229872D01*
X48856904Y-44229872D01*
X48903096Y-43758778D01*
X49080606Y-43170836D01*
X49368937Y-42628564D01*
X49757094Y-42152636D01*
X50230314Y-41761155D01*
X50770552Y-41469049D01*
X51357244Y-41287437D01*
X51998879Y-41220000D01*
X115443000Y-41220000D01*
X115443000Y-60071000D01*
X115443000Y-60071000D01*
G37*
X115443000Y-60071000D02*
X112522000Y-60071000D01*
X112497224Y-60073440D01*
X112473399Y-60080667D01*
X112451443Y-60092403D01*
X112432197Y-60108197D01*
X112416403Y-60127443D01*
X112404667Y-60149399D01*
X112397440Y-60173224D01*
X112395000Y-60198000D01*
X112395000Y-62611000D01*
X104340461Y-62611000D01*
X104373226Y-62531898D01*
X104413000Y-62331939D01*
X104413000Y-62128061D01*
X104373226Y-61928102D01*
X104295205Y-61739744D01*
X104181937Y-61570226D01*
X104037774Y-61426063D01*
X103868256Y-61312795D01*
X103679898Y-61234774D01*
X103479939Y-61195000D01*
X103276061Y-61195000D01*
X103076102Y-61234774D01*
X102887744Y-61312795D01*
X102718226Y-61426063D01*
X102574063Y-61570226D01*
X102460795Y-61739744D01*
X102406841Y-61869999D01*
X101491323Y-61869999D01*
X101454000Y-61866323D01*
X101416677Y-61869999D01*
X101416668Y-61869999D01*
X101305015Y-61880996D01*
X101161754Y-61924453D01*
X101029724Y-61995025D01*
X100946084Y-62063667D01*
X100914000Y-62089998D01*
X100890202Y-62118996D01*
X91945003Y-71064196D01*
X91915999Y-71087999D01*
X91860871Y-71155174D01*
X91821026Y-71203724D01*
X91779177Y-71282017D01*
X91750454Y-71335754D01*
X91706997Y-71479015D01*
X91696000Y-71590668D01*
X91696000Y-71590678D01*
X91692324Y-71628000D01*
X91696000Y-71665322D01*
X91696001Y-82258668D01*
X91692324Y-82296000D01*
X91706998Y-82444985D01*
X91750454Y-82588246D01*
X91821026Y-82720276D01*
X91881511Y-82793976D01*
X91916000Y-82836001D01*
X91944998Y-82859799D01*
X94781928Y-85696730D01*
X94781928Y-87119000D01*
X94800741Y-87310007D01*
X94856455Y-87493675D01*
X94946931Y-87662943D01*
X95068692Y-87811308D01*
X95217057Y-87933069D01*
X95386325Y-88023545D01*
X95569993Y-88079259D01*
X95761000Y-88098072D01*
X97279000Y-88098072D01*
X97470007Y-88079259D01*
X97653675Y-88023545D01*
X97822943Y-87933069D01*
X97971308Y-87811308D01*
X98046000Y-87720296D01*
X98046000Y-89803564D01*
X96008998Y-91840567D01*
X95980000Y-91864365D01*
X95956202Y-91893363D01*
X95956201Y-91893364D01*
X95885026Y-91980090D01*
X95814454Y-92112120D01*
X95770998Y-92255381D01*
X95756939Y-92398120D01*
X95698169Y-92422463D01*
X95414002Y-92612337D01*
X95172337Y-92854002D01*
X94982463Y-93138169D01*
X94851675Y-93453919D01*
X94785000Y-93789117D01*
X94785000Y-94130883D01*
X94851675Y-94466081D01*
X94982463Y-94781831D01*
X95172337Y-95065998D01*
X95414002Y-95307663D01*
X95698169Y-95497537D01*
X96013919Y-95628325D01*
X96349117Y-95695000D01*
X96690883Y-95695000D01*
X97026081Y-95628325D01*
X97341831Y-95497537D01*
X97625998Y-95307663D01*
X97867663Y-95065998D01*
X98057537Y-94781831D01*
X98188325Y-94466081D01*
X98255000Y-94130883D01*
X98255000Y-93789117D01*
X98188325Y-93453919D01*
X98057537Y-93138169D01*
X97867663Y-92854002D01*
X97625998Y-92612337D01*
X97482627Y-92516540D01*
X99317004Y-90682164D01*
X99346001Y-90658367D01*
X99440974Y-90542642D01*
X99511546Y-90410613D01*
X99555003Y-90267352D01*
X99566000Y-90155699D01*
X99566000Y-90155690D01*
X99569676Y-90118367D01*
X99566000Y-90081044D01*
X99566000Y-80578801D01*
X101054430Y-79090372D01*
X101208408Y-79121000D01*
X101483592Y-79121000D01*
X101753490Y-79067314D01*
X102007727Y-78962005D01*
X102236535Y-78809120D01*
X102362000Y-78683655D01*
X102362000Y-82423000D01*
X99822000Y-82423000D01*
X99797224Y-82425440D01*
X99773399Y-82432667D01*
X99751443Y-82444403D01*
X99732197Y-82460197D01*
X99716403Y-82479443D01*
X99704667Y-82501399D01*
X99697440Y-82525224D01*
X99695000Y-82550000D01*
X99695000Y-84216722D01*
X99686206Y-84258095D01*
X99685244Y-84267253D01*
X99685244Y-84267254D01*
X99685243Y-84267259D01*
X99673150Y-84390598D01*
X99673150Y-84390608D01*
X99670001Y-84422581D01*
X99670000Y-95282418D01*
X99673274Y-95315660D01*
X99673274Y-95332137D01*
X99674237Y-95341302D01*
X99695000Y-95526407D01*
X99695000Y-97627457D01*
X52023024Y-97520073D01*
X51378779Y-97456904D01*
X50790836Y-97279394D01*
X50248564Y-96991063D01*
X49772636Y-96602906D01*
X49381155Y-96129686D01*
X49089050Y-95589449D01*
X48907437Y-95002756D01*
X48840000Y-94361130D01*
X48840000Y-94229872D01*
X49835000Y-94229872D01*
X49835000Y-94670128D01*
X49920890Y-95101925D01*
X50089369Y-95508669D01*
X50333962Y-95874729D01*
X50645271Y-96186038D01*
X51011331Y-96430631D01*
X51418075Y-96599110D01*
X51849872Y-96685000D01*
X52290128Y-96685000D01*
X52721925Y-96599110D01*
X53128669Y-96430631D01*
X53494729Y-96186038D01*
X53806038Y-95874729D01*
X54050631Y-95508669D01*
X54219110Y-95101925D01*
X54305000Y-94670128D01*
X54305000Y-94229872D01*
X54219110Y-93798075D01*
X54050631Y-93391331D01*
X53806038Y-93025271D01*
X53494729Y-92713962D01*
X53128669Y-92469369D01*
X52721925Y-92300890D01*
X52290128Y-92215000D01*
X51849872Y-92215000D01*
X51418075Y-92300890D01*
X51011331Y-92469369D01*
X50645271Y-92713962D01*
X50333962Y-93025271D01*
X50089369Y-93391331D01*
X49920890Y-93798075D01*
X49835000Y-94229872D01*
X48840000Y-94229872D01*
X48840000Y-87468967D01*
X84090000Y-87468967D01*
X84090000Y-87791033D01*
X84152832Y-88106912D01*
X84276082Y-88404463D01*
X84455013Y-88672252D01*
X84682748Y-88899987D01*
X84950537Y-89078918D01*
X85248088Y-89202168D01*
X85563967Y-89265000D01*
X85886033Y-89265000D01*
X86201912Y-89202168D01*
X86499463Y-89078918D01*
X86767252Y-88899987D01*
X86994987Y-88672252D01*
X87173918Y-88404463D01*
X87297168Y-88106912D01*
X87360000Y-87791033D01*
X87360000Y-87468967D01*
X87297168Y-87153088D01*
X87173918Y-86855537D01*
X86994987Y-86587748D01*
X86767252Y-86360013D01*
X86499463Y-86181082D01*
X86201912Y-86057832D01*
X85886033Y-85995000D01*
X85563967Y-85995000D01*
X85248088Y-86057832D01*
X84950537Y-86181082D01*
X84682748Y-86360013D01*
X84455013Y-86587748D01*
X84276082Y-86855537D01*
X84152832Y-87153088D01*
X84090000Y-87468967D01*
X48840000Y-87468967D01*
X48840000Y-84582000D01*
X62357000Y-84582000D01*
X62381776Y-84579560D01*
X62405601Y-84572333D01*
X62427557Y-84560597D01*
X62446803Y-84544803D01*
X62462597Y-84525557D01*
X62474333Y-84503601D01*
X62481560Y-84479776D01*
X62484000Y-84455000D01*
X62484000Y-67024040D01*
X71633091Y-67024040D01*
X71727930Y-67288881D01*
X71872615Y-67530131D01*
X72061586Y-67738519D01*
X72287580Y-67906037D01*
X72541913Y-68026246D01*
X72675961Y-68066904D01*
X72898000Y-67944915D01*
X72898000Y-66802000D01*
X73152000Y-66802000D01*
X73152000Y-67944915D01*
X73374039Y-68066904D01*
X73508087Y-68026246D01*
X73762420Y-67906037D01*
X73988414Y-67738519D01*
X74177385Y-67530131D01*
X74322070Y-67288881D01*
X74416909Y-67024040D01*
X74295624Y-66802000D01*
X73152000Y-66802000D01*
X72898000Y-66802000D01*
X71754376Y-66802000D01*
X71633091Y-67024040D01*
X62484000Y-67024040D01*
X62484000Y-66325960D01*
X71633091Y-66325960D01*
X71754376Y-66548000D01*
X72898000Y-66548000D01*
X72898000Y-65405085D01*
X73152000Y-65405085D01*
X73152000Y-66548000D01*
X74295624Y-66548000D01*
X74416909Y-66325960D01*
X74322070Y-66061119D01*
X74177385Y-65819869D01*
X73988414Y-65611481D01*
X73762420Y-65443963D01*
X73508087Y-65323754D01*
X73374039Y-65283096D01*
X73152000Y-65405085D01*
X72898000Y-65405085D01*
X72675961Y-65283096D01*
X72541913Y-65323754D01*
X72287580Y-65443963D01*
X72061586Y-65611481D01*
X71872615Y-65819869D01*
X71727930Y-66061119D01*
X71633091Y-66325960D01*
X62484000Y-66325960D01*
X62484000Y-63846967D01*
X79645000Y-63846967D01*
X79645000Y-64169033D01*
X79707832Y-64484912D01*
X79831082Y-64782463D01*
X80010013Y-65050252D01*
X80237748Y-65277987D01*
X80505537Y-65456918D01*
X80803088Y-65580168D01*
X81118967Y-65643000D01*
X81441033Y-65643000D01*
X81756912Y-65580168D01*
X82054463Y-65456918D01*
X82322252Y-65277987D01*
X82549987Y-65050252D01*
X82728918Y-64782463D01*
X82852168Y-64484912D01*
X82915000Y-64169033D01*
X82915000Y-63846967D01*
X82852168Y-63531088D01*
X82728918Y-63233537D01*
X82549987Y-62965748D01*
X82415206Y-62830967D01*
X85233000Y-62830967D01*
X85233000Y-63153033D01*
X85295832Y-63468912D01*
X85419082Y-63766463D01*
X85598013Y-64034252D01*
X85825748Y-64261987D01*
X86093537Y-64440918D01*
X86391088Y-64564168D01*
X86706967Y-64627000D01*
X87029033Y-64627000D01*
X87344912Y-64564168D01*
X87642463Y-64440918D01*
X87910252Y-64261987D01*
X88137987Y-64034252D01*
X88316918Y-63766463D01*
X88440168Y-63468912D01*
X88503000Y-63153033D01*
X88503000Y-62830967D01*
X88440168Y-62515088D01*
X88316918Y-62217537D01*
X88137987Y-61949748D01*
X87910252Y-61722013D01*
X87642463Y-61543082D01*
X87344912Y-61419832D01*
X87029033Y-61357000D01*
X86706967Y-61357000D01*
X86391088Y-61419832D01*
X86093537Y-61543082D01*
X85825748Y-61722013D01*
X85598013Y-61949748D01*
X85419082Y-62217537D01*
X85295832Y-62515088D01*
X85233000Y-62830967D01*
X82415206Y-62830967D01*
X82322252Y-62738013D01*
X82054463Y-62559082D01*
X81756912Y-62435832D01*
X81441033Y-62373000D01*
X81118967Y-62373000D01*
X80803088Y-62435832D01*
X80505537Y-62559082D01*
X80237748Y-62738013D01*
X80010013Y-62965748D01*
X79831082Y-63233537D01*
X79707832Y-63531088D01*
X79645000Y-63846967D01*
X62484000Y-63846967D01*
X62484000Y-58255000D01*
X71586928Y-58255000D01*
X71586928Y-59855000D01*
X71599188Y-59979482D01*
X71635498Y-60099180D01*
X71694463Y-60209494D01*
X71773815Y-60306185D01*
X71870506Y-60385537D01*
X71980820Y-60444502D01*
X72100518Y-60480812D01*
X72225000Y-60493072D01*
X73825000Y-60493072D01*
X73949482Y-60480812D01*
X74069180Y-60444502D01*
X74179494Y-60385537D01*
X74276185Y-60306185D01*
X74355537Y-60209494D01*
X74414502Y-60099180D01*
X74450812Y-59979482D01*
X74463072Y-59855000D01*
X74463072Y-58255000D01*
X74450812Y-58130518D01*
X74414502Y-58010820D01*
X74355537Y-57900506D01*
X74276185Y-57803815D01*
X74179494Y-57724463D01*
X74069180Y-57665498D01*
X73949482Y-57629188D01*
X73825000Y-57616928D01*
X72225000Y-57616928D01*
X72100518Y-57629188D01*
X71980820Y-57665498D01*
X71870506Y-57724463D01*
X71773815Y-57803815D01*
X71694463Y-57900506D01*
X71635498Y-58010820D01*
X71599188Y-58130518D01*
X71586928Y-58255000D01*
X62484000Y-58255000D01*
X62484000Y-55880000D01*
X62481560Y-55855224D01*
X62474333Y-55831399D01*
X62462597Y-55809443D01*
X62446803Y-55790197D01*
X62427557Y-55774403D01*
X62405601Y-55762667D01*
X62381776Y-55755440D01*
X62357000Y-55753000D01*
X48840000Y-55753000D01*
X48840000Y-52924967D01*
X82439000Y-52924967D01*
X82439000Y-53247033D01*
X82501832Y-53562912D01*
X82625082Y-53860463D01*
X82804013Y-54128252D01*
X83031748Y-54355987D01*
X83299537Y-54534918D01*
X83597088Y-54658168D01*
X83912967Y-54721000D01*
X84235033Y-54721000D01*
X84550912Y-54658168D01*
X84848463Y-54534918D01*
X85116252Y-54355987D01*
X85343987Y-54128252D01*
X85522918Y-53860463D01*
X85646168Y-53562912D01*
X85709000Y-53247033D01*
X85709000Y-52924967D01*
X85646168Y-52609088D01*
X85522918Y-52311537D01*
X85343987Y-52043748D01*
X85116252Y-51816013D01*
X84848463Y-51637082D01*
X84550912Y-51513832D01*
X84235033Y-51451000D01*
X83912967Y-51451000D01*
X83597088Y-51513832D01*
X83299537Y-51637082D01*
X83031748Y-51816013D01*
X82804013Y-52043748D01*
X82625082Y-52311537D01*
X82501832Y-52609088D01*
X82439000Y-52924967D01*
X48840000Y-52924967D01*
X48840000Y-44402279D01*
X48856904Y-44229872D01*
X49835000Y-44229872D01*
X49835000Y-44670128D01*
X49920890Y-45101925D01*
X50089369Y-45508669D01*
X50333962Y-45874729D01*
X50645271Y-46186038D01*
X51011331Y-46430631D01*
X51418075Y-46599110D01*
X51849872Y-46685000D01*
X52290128Y-46685000D01*
X52721925Y-46599110D01*
X53128669Y-46430631D01*
X53494729Y-46186038D01*
X53806038Y-45874729D01*
X54050631Y-45508669D01*
X54219110Y-45101925D01*
X54305000Y-44670128D01*
X54305000Y-44288967D01*
X76470000Y-44288967D01*
X76470000Y-44611033D01*
X76532832Y-44926912D01*
X76656082Y-45224463D01*
X76835013Y-45492252D01*
X77062748Y-45719987D01*
X77330537Y-45898918D01*
X77628088Y-46022168D01*
X77943967Y-46085000D01*
X78266033Y-46085000D01*
X78581912Y-46022168D01*
X78879463Y-45898918D01*
X79147252Y-45719987D01*
X79374987Y-45492252D01*
X79553918Y-45224463D01*
X79677168Y-44926912D01*
X79740000Y-44611033D01*
X79740000Y-44288967D01*
X79677168Y-43973088D01*
X79629498Y-43858001D01*
X102320928Y-43858001D01*
X102320928Y-46057999D01*
X102337992Y-46231253D01*
X102388529Y-46397850D01*
X102470595Y-46551386D01*
X102581039Y-46685961D01*
X102715614Y-46796405D01*
X102869150Y-46878471D01*
X103035747Y-46929008D01*
X103209001Y-46946072D01*
X106008999Y-46946072D01*
X106182253Y-46929008D01*
X106348850Y-46878471D01*
X106502386Y-46796405D01*
X106636961Y-46685961D01*
X106747405Y-46551386D01*
X106829471Y-46397850D01*
X106880008Y-46231253D01*
X106897072Y-46057999D01*
X106897072Y-44958000D01*
X107814396Y-44958000D01*
X107852722Y-45347128D01*
X107966226Y-45721302D01*
X108150547Y-46066143D01*
X108398602Y-46368398D01*
X108700857Y-46616453D01*
X109045698Y-46800774D01*
X109419872Y-46914278D01*
X109711490Y-46943000D01*
X110506510Y-46943000D01*
X110798128Y-46914278D01*
X111172302Y-46800774D01*
X111517143Y-46616453D01*
X111819398Y-46368398D01*
X112067453Y-46066143D01*
X112251774Y-45721302D01*
X112365278Y-45347128D01*
X112403604Y-44958000D01*
X112365278Y-44568872D01*
X112251774Y-44194698D01*
X112067453Y-43849857D01*
X111819398Y-43547602D01*
X111517143Y-43299547D01*
X111172302Y-43115226D01*
X110798128Y-43001722D01*
X110506510Y-42973000D01*
X109711490Y-42973000D01*
X109419872Y-43001722D01*
X109045698Y-43115226D01*
X108700857Y-43299547D01*
X108398602Y-43547602D01*
X108150547Y-43849857D01*
X107966226Y-44194698D01*
X107852722Y-44568872D01*
X107814396Y-44958000D01*
X106897072Y-44958000D01*
X106897072Y-43858001D01*
X106880008Y-43684747D01*
X106829471Y-43518150D01*
X106747405Y-43364614D01*
X106636961Y-43230039D01*
X106502386Y-43119595D01*
X106348850Y-43037529D01*
X106182253Y-42986992D01*
X106008999Y-42969928D01*
X103209001Y-42969928D01*
X103035747Y-42986992D01*
X102869150Y-43037529D01*
X102715614Y-43119595D01*
X102581039Y-43230039D01*
X102470595Y-43364614D01*
X102388529Y-43518150D01*
X102337992Y-43684747D01*
X102320928Y-43858001D01*
X79629498Y-43858001D01*
X79553918Y-43675537D01*
X79374987Y-43407748D01*
X79147252Y-43180013D01*
X78879463Y-43001082D01*
X78581912Y-42877832D01*
X78266033Y-42815000D01*
X77943967Y-42815000D01*
X77628088Y-42877832D01*
X77330537Y-43001082D01*
X77062748Y-43180013D01*
X76835013Y-43407748D01*
X76656082Y-43675537D01*
X76532832Y-43973088D01*
X76470000Y-44288967D01*
X54305000Y-44288967D01*
X54305000Y-44229872D01*
X54219110Y-43798075D01*
X54050631Y-43391331D01*
X53806038Y-43025271D01*
X53494729Y-42713962D01*
X53128669Y-42469369D01*
X52721925Y-42300890D01*
X52290128Y-42215000D01*
X51849872Y-42215000D01*
X51418075Y-42300890D01*
X51011331Y-42469369D01*
X50645271Y-42713962D01*
X50333962Y-43025271D01*
X50089369Y-43391331D01*
X49920890Y-43798075D01*
X49835000Y-44229872D01*
X48856904Y-44229872D01*
X48903096Y-43758778D01*
X49080606Y-43170836D01*
X49368937Y-42628564D01*
X49757094Y-42152636D01*
X50230314Y-41761155D01*
X50770552Y-41469049D01*
X51357244Y-41287437D01*
X51998879Y-41220000D01*
X115443000Y-41220000D01*
X115443000Y-60071000D01*
G36*
X103632000Y-74168000D02*
G01*
X102489000Y-74168000D01*
X102464224Y-74170440D01*
X102440399Y-74177667D01*
X102418443Y-74189403D01*
X102399197Y-74205197D01*
X102383403Y-74224443D01*
X102371667Y-74246399D01*
X102364440Y-74270224D01*
X102362000Y-74295000D01*
X102362000Y-76764345D01*
X102236535Y-76638880D01*
X102007727Y-76485995D01*
X101753490Y-76380686D01*
X101483592Y-76327000D01*
X101208408Y-76327000D01*
X100938510Y-76380686D01*
X100684273Y-76485995D01*
X100455465Y-76638880D01*
X100260880Y-76833465D01*
X100107995Y-77062273D01*
X100078308Y-77133943D01*
X100073636Y-77120977D01*
X100011656Y-77005020D01*
X99771565Y-76938040D01*
X98985605Y-77724000D01*
X98999748Y-77738143D01*
X98820143Y-77917748D01*
X98806000Y-77903605D01*
X98020040Y-78689565D01*
X98087020Y-78929656D01*
X98336048Y-79046756D01*
X98603135Y-79113023D01*
X98869679Y-79125519D01*
X98294998Y-79700201D01*
X98266000Y-79723999D01*
X98242202Y-79752997D01*
X98242201Y-79752998D01*
X98171026Y-79839724D01*
X98100454Y-79971754D01*
X98056998Y-80115015D01*
X98042324Y-80264000D01*
X98046001Y-80301332D01*
X98046001Y-84999704D01*
X97971308Y-84908692D01*
X97822943Y-84786931D01*
X97653675Y-84696455D01*
X97470007Y-84640741D01*
X97279000Y-84621928D01*
X95856730Y-84621928D01*
X93216000Y-81981199D01*
X93216000Y-77586408D01*
X94869000Y-77586408D01*
X94869000Y-77861592D01*
X94922686Y-78131490D01*
X95027995Y-78385727D01*
X95180880Y-78614535D01*
X95375465Y-78809120D01*
X95604273Y-78962005D01*
X95858510Y-79067314D01*
X96128408Y-79121000D01*
X96403592Y-79121000D01*
X96673490Y-79067314D01*
X96927727Y-78962005D01*
X97156535Y-78809120D01*
X97351120Y-78614535D01*
X97504005Y-78385727D01*
X97533692Y-78314057D01*
X97538364Y-78327023D01*
X97600344Y-78442980D01*
X97840435Y-78509960D01*
X98626395Y-77724000D01*
X97840435Y-76938040D01*
X97600344Y-77005020D01*
X97536515Y-77140760D01*
X97504005Y-77062273D01*
X97351120Y-76833465D01*
X97276090Y-76758435D01*
X98020040Y-76758435D01*
X98806000Y-77544395D01*
X99591960Y-76758435D01*
X99524980Y-76518344D01*
X99275952Y-76401244D01*
X99008865Y-76334977D01*
X98733983Y-76322090D01*
X98461867Y-76363078D01*
X98202977Y-76456364D01*
X98087020Y-76518344D01*
X98020040Y-76758435D01*
X97276090Y-76758435D01*
X97156535Y-76638880D01*
X96927727Y-76485995D01*
X96673490Y-76380686D01*
X96403592Y-76327000D01*
X96128408Y-76327000D01*
X95858510Y-76380686D01*
X95604273Y-76485995D01*
X95375465Y-76638880D01*
X95180880Y-76833465D01*
X95027995Y-77062273D01*
X94922686Y-77316510D01*
X94869000Y-77586408D01*
X93216000Y-77586408D01*
X93216000Y-72890413D01*
X95564192Y-72890413D01*
X95659956Y-73154814D01*
X95949571Y-73295704D01*
X96261108Y-73377384D01*
X96582595Y-73396718D01*
X96901675Y-73352961D01*
X97206088Y-73247795D01*
X97380044Y-73154814D01*
X97475808Y-72890413D01*
X96520000Y-71934605D01*
X95564192Y-72890413D01*
X93216000Y-72890413D01*
X93216000Y-71942801D01*
X93341206Y-71817595D01*
X94878282Y-71817595D01*
X94922039Y-72136675D01*
X95027205Y-72441088D01*
X95120186Y-72615044D01*
X95384587Y-72710808D01*
X96340395Y-71755000D01*
X96699605Y-71755000D01*
X97655413Y-72710808D01*
X97919814Y-72615044D01*
X98060704Y-72325429D01*
X98142384Y-72013892D01*
X98161718Y-71692405D01*
X98148219Y-71593967D01*
X99965000Y-71593967D01*
X99965000Y-71916033D01*
X100027832Y-72231912D01*
X100151082Y-72529463D01*
X100330013Y-72797252D01*
X100557748Y-73024987D01*
X100825537Y-73203918D01*
X101123088Y-73327168D01*
X101438967Y-73390000D01*
X101761033Y-73390000D01*
X102076912Y-73327168D01*
X102374463Y-73203918D01*
X102642252Y-73024987D01*
X102869987Y-72797252D01*
X103048918Y-72529463D01*
X103172168Y-72231912D01*
X103235000Y-71916033D01*
X103235000Y-71593967D01*
X103172168Y-71278088D01*
X103048918Y-70980537D01*
X102869987Y-70712748D01*
X102642252Y-70485013D01*
X102374463Y-70306082D01*
X102076912Y-70182832D01*
X101761033Y-70120000D01*
X101438967Y-70120000D01*
X101123088Y-70182832D01*
X100825537Y-70306082D01*
X100557748Y-70485013D01*
X100330013Y-70712748D01*
X100151082Y-70980537D01*
X100027832Y-71278088D01*
X99965000Y-71593967D01*
X98148219Y-71593967D01*
X98117961Y-71373325D01*
X98012795Y-71068912D01*
X97919814Y-70894956D01*
X97655413Y-70799192D01*
X96699605Y-71755000D01*
X96340395Y-71755000D01*
X95384587Y-70799192D01*
X95120186Y-70894956D01*
X94979296Y-71184571D01*
X94897616Y-71496108D01*
X94878282Y-71817595D01*
X93341206Y-71817595D01*
X94539214Y-70619587D01*
X95564192Y-70619587D01*
X96520000Y-71575395D01*
X97475808Y-70619587D01*
X97380044Y-70355186D01*
X97090429Y-70214296D01*
X96778892Y-70132616D01*
X96457405Y-70113282D01*
X96138325Y-70157039D01*
X95833912Y-70262205D01*
X95659956Y-70355186D01*
X95564192Y-70619587D01*
X94539214Y-70619587D01*
X101768803Y-63389999D01*
X102940679Y-63389999D01*
X102978001Y-63393675D01*
X103015323Y-63389999D01*
X103015334Y-63389999D01*
X103126987Y-63379002D01*
X103270248Y-63335545D01*
X103402226Y-63265000D01*
X103479939Y-63265000D01*
X103632000Y-63234753D01*
X103632000Y-74168000D01*
X103632000Y-74168000D01*
G37*
X103632000Y-74168000D02*
X102489000Y-74168000D01*
X102464224Y-74170440D01*
X102440399Y-74177667D01*
X102418443Y-74189403D01*
X102399197Y-74205197D01*
X102383403Y-74224443D01*
X102371667Y-74246399D01*
X102364440Y-74270224D01*
X102362000Y-74295000D01*
X102362000Y-76764345D01*
X102236535Y-76638880D01*
X102007727Y-76485995D01*
X101753490Y-76380686D01*
X101483592Y-76327000D01*
X101208408Y-76327000D01*
X100938510Y-76380686D01*
X100684273Y-76485995D01*
X100455465Y-76638880D01*
X100260880Y-76833465D01*
X100107995Y-77062273D01*
X100078308Y-77133943D01*
X100073636Y-77120977D01*
X100011656Y-77005020D01*
X99771565Y-76938040D01*
X98985605Y-77724000D01*
X98999748Y-77738143D01*
X98820143Y-77917748D01*
X98806000Y-77903605D01*
X98020040Y-78689565D01*
X98087020Y-78929656D01*
X98336048Y-79046756D01*
X98603135Y-79113023D01*
X98869679Y-79125519D01*
X98294998Y-79700201D01*
X98266000Y-79723999D01*
X98242202Y-79752997D01*
X98242201Y-79752998D01*
X98171026Y-79839724D01*
X98100454Y-79971754D01*
X98056998Y-80115015D01*
X98042324Y-80264000D01*
X98046001Y-80301332D01*
X98046001Y-84999704D01*
X97971308Y-84908692D01*
X97822943Y-84786931D01*
X97653675Y-84696455D01*
X97470007Y-84640741D01*
X97279000Y-84621928D01*
X95856730Y-84621928D01*
X93216000Y-81981199D01*
X93216000Y-77586408D01*
X94869000Y-77586408D01*
X94869000Y-77861592D01*
X94922686Y-78131490D01*
X95027995Y-78385727D01*
X95180880Y-78614535D01*
X95375465Y-78809120D01*
X95604273Y-78962005D01*
X95858510Y-79067314D01*
X96128408Y-79121000D01*
X96403592Y-79121000D01*
X96673490Y-79067314D01*
X96927727Y-78962005D01*
X97156535Y-78809120D01*
X97351120Y-78614535D01*
X97504005Y-78385727D01*
X97533692Y-78314057D01*
X97538364Y-78327023D01*
X97600344Y-78442980D01*
X97840435Y-78509960D01*
X98626395Y-77724000D01*
X97840435Y-76938040D01*
X97600344Y-77005020D01*
X97536515Y-77140760D01*
X97504005Y-77062273D01*
X97351120Y-76833465D01*
X97276090Y-76758435D01*
X98020040Y-76758435D01*
X98806000Y-77544395D01*
X99591960Y-76758435D01*
X99524980Y-76518344D01*
X99275952Y-76401244D01*
X99008865Y-76334977D01*
X98733983Y-76322090D01*
X98461867Y-76363078D01*
X98202977Y-76456364D01*
X98087020Y-76518344D01*
X98020040Y-76758435D01*
X97276090Y-76758435D01*
X97156535Y-76638880D01*
X96927727Y-76485995D01*
X96673490Y-76380686D01*
X96403592Y-76327000D01*
X96128408Y-76327000D01*
X95858510Y-76380686D01*
X95604273Y-76485995D01*
X95375465Y-76638880D01*
X95180880Y-76833465D01*
X95027995Y-77062273D01*
X94922686Y-77316510D01*
X94869000Y-77586408D01*
X93216000Y-77586408D01*
X93216000Y-72890413D01*
X95564192Y-72890413D01*
X95659956Y-73154814D01*
X95949571Y-73295704D01*
X96261108Y-73377384D01*
X96582595Y-73396718D01*
X96901675Y-73352961D01*
X97206088Y-73247795D01*
X97380044Y-73154814D01*
X97475808Y-72890413D01*
X96520000Y-71934605D01*
X95564192Y-72890413D01*
X93216000Y-72890413D01*
X93216000Y-71942801D01*
X93341206Y-71817595D01*
X94878282Y-71817595D01*
X94922039Y-72136675D01*
X95027205Y-72441088D01*
X95120186Y-72615044D01*
X95384587Y-72710808D01*
X96340395Y-71755000D01*
X96699605Y-71755000D01*
X97655413Y-72710808D01*
X97919814Y-72615044D01*
X98060704Y-72325429D01*
X98142384Y-72013892D01*
X98161718Y-71692405D01*
X98148219Y-71593967D01*
X99965000Y-71593967D01*
X99965000Y-71916033D01*
X100027832Y-72231912D01*
X100151082Y-72529463D01*
X100330013Y-72797252D01*
X100557748Y-73024987D01*
X100825537Y-73203918D01*
X101123088Y-73327168D01*
X101438967Y-73390000D01*
X101761033Y-73390000D01*
X102076912Y-73327168D01*
X102374463Y-73203918D01*
X102642252Y-73024987D01*
X102869987Y-72797252D01*
X103048918Y-72529463D01*
X103172168Y-72231912D01*
X103235000Y-71916033D01*
X103235000Y-71593967D01*
X103172168Y-71278088D01*
X103048918Y-70980537D01*
X102869987Y-70712748D01*
X102642252Y-70485013D01*
X102374463Y-70306082D01*
X102076912Y-70182832D01*
X101761033Y-70120000D01*
X101438967Y-70120000D01*
X101123088Y-70182832D01*
X100825537Y-70306082D01*
X100557748Y-70485013D01*
X100330013Y-70712748D01*
X100151082Y-70980537D01*
X100027832Y-71278088D01*
X99965000Y-71593967D01*
X98148219Y-71593967D01*
X98117961Y-71373325D01*
X98012795Y-71068912D01*
X97919814Y-70894956D01*
X97655413Y-70799192D01*
X96699605Y-71755000D01*
X96340395Y-71755000D01*
X95384587Y-70799192D01*
X95120186Y-70894956D01*
X94979296Y-71184571D01*
X94897616Y-71496108D01*
X94878282Y-71817595D01*
X93341206Y-71817595D01*
X94539214Y-70619587D01*
X95564192Y-70619587D01*
X96520000Y-71575395D01*
X97475808Y-70619587D01*
X97380044Y-70355186D01*
X97090429Y-70214296D01*
X96778892Y-70132616D01*
X96457405Y-70113282D01*
X96138325Y-70157039D01*
X95833912Y-70262205D01*
X95659956Y-70355186D01*
X95564192Y-70619587D01*
X94539214Y-70619587D01*
X101768803Y-63389999D01*
X102940679Y-63389999D01*
X102978001Y-63393675D01*
X103015323Y-63389999D01*
X103015334Y-63389999D01*
X103126987Y-63379002D01*
X103270248Y-63335545D01*
X103402226Y-63265000D01*
X103479939Y-63265000D01*
X103632000Y-63234753D01*
X103632000Y-74168000D01*
M02*
