G04 #@! TF.GenerationSoftware,KiCad,Pcbnew,(5.1.2)-2*
G04 #@! TF.CreationDate,2019-08-12T14:05:45+10:00*
G04 #@! TF.ProjectId,TSAL-HVM,5453414c-2d48-4564-9d2e-6b696361645f,rev?*
G04 #@! TF.SameCoordinates,Original*
G04 #@! TF.FileFunction,Profile,NP*
%FSLAX46Y46*%
G04 Gerber Fmt 4.6, Leading zero omitted, Abs format (unit mm)*
G04 Created by KiCad (PCBNEW (5.1.2)-2) date 2019-08-12 14:05:45*
%MOMM*%
%LPD*%
G04 APERTURE LIST*
%ADD10C,0.050000*%
G04 APERTURE END LIST*
D10*
X105410000Y-83185000D02*
G75*
G02X104775000Y-83820000I-635000J0D01*
G01*
X100330000Y-84455000D02*
G75*
G02X100965000Y-83820000I635000J0D01*
G01*
X107950000Y-85725000D02*
G75*
G02X107315000Y-86360000I-635000J0D01*
G01*
X102870000Y-86995000D02*
G75*
G02X103505000Y-86360000I635000J0D01*
G01*
X102870000Y-95250000D02*
G75*
G02X100330000Y-95250000I-1270000J0D01*
G01*
X105410000Y-73660000D02*
G75*
G02X107950000Y-73660000I1270000J0D01*
G01*
X103505000Y-86360000D02*
X107315000Y-86360000D01*
X105410000Y-83185000D02*
X105410000Y-78740000D01*
X100965000Y-83820000D02*
X104775000Y-83820000D01*
X125240000Y-98345000D02*
X51990000Y-98180000D01*
X129050000Y-94535000D02*
X129050000Y-75485000D01*
X125240000Y-62150000D02*
X125240000Y-71675000D01*
X127145000Y-73580000D02*
G75*
G02X129050000Y-75485000I0J-1905000D01*
G01*
X127145000Y-73580000D02*
G75*
G02X125240000Y-71675000I0J1905000D01*
G01*
X125240000Y-48180000D02*
X125240000Y-62150000D01*
X129050000Y-44370000D02*
G75*
G02X125240000Y-48180000I-3810000J0D01*
G01*
X51990000Y-40560000D02*
X125240000Y-40560000D01*
X48180000Y-44840000D02*
X48180000Y-44370000D01*
X48180000Y-44370000D02*
G75*
G02X51990000Y-40560000I3810000J0D01*
G01*
X48180000Y-94370000D02*
X48180000Y-44840000D01*
X51990000Y-98180000D02*
G75*
G02X48180000Y-94370000I0J3810000D01*
G01*
X129050000Y-94535000D02*
G75*
G02X125240000Y-98345000I-3810000J0D01*
G01*
X125240000Y-40560000D02*
G75*
G02X129050000Y-44370000I0J-3810000D01*
G01*
X105410000Y-78740000D02*
X105410000Y-73660000D01*
X107950000Y-85725000D02*
X107950000Y-73660000D01*
X102870000Y-95250000D02*
X102870000Y-86995000D01*
X100330000Y-95250000D02*
X100330000Y-84455000D01*
M02*
